<svg width="575" height="432" viewBox="0 0 575 432" fill="none" xmlns="http://www.w3.org/2000/svg">
<g clip-path="url(#clip0_154_4745)">
<path d="M280.062 49.6073C293.494 49.6073 304.383 38.5027 304.383 24.8044C304.383 11.1061 293.494 0.00146484 280.062 0.00146484C266.629 0.00146484 255.74 11.1061 255.74 24.8044C255.74 38.5027 266.629 49.6073 280.062 49.6073Z" fill="#FF6884"/>
<path d="M256.043 182.09L228.56 182.477L217.542 57.1843C217.274 54.1432 218.237 51.0683 220.184 48.7486L247.209 16.5511C250.992 12.0443 257.424 11.2312 262.171 14.6614L296.019 39.1181C298.78 41.1132 300.492 44.2327 300.714 47.6765L306.799 142.077L322.107 160.557L322.14 160.596L326.056 181.105L256.043 182.09Z" fill="#E6E6E6"/>
<path d="M250.286 45.6838L249.844 39.8685C249.727 38.3335 250.857 36.9878 252.362 36.8686L260.374 36.2345C261.879 36.1154 263.198 37.2674 263.315 38.8024L263.758 44.6177C263.874 46.1526 262.745 47.4984 261.24 47.6175L253.228 48.2516C251.723 48.3708 250.403 47.2188 250.286 45.6838Z" fill="#FF8063"/>
<path d="M236.786 92.1637L235.149 70.6478C235.032 69.1128 236.162 67.767 237.667 67.6479L249.528 66.7092C251.033 66.59 252.352 67.742 252.469 69.277L254.106 90.7929C254.223 92.3279 253.094 93.6737 251.589 93.7928L239.728 94.7315C238.223 94.8507 236.903 93.6987 236.786 92.1637Z" fill="#3F3D56"/>
<path d="M267.429 140.406C265.992 140.468 264.746 139.373 264.592 137.914L262.409 117.165C262.316 116.279 262.63 115.425 263.271 114.819C263.912 114.214 264.772 113.961 265.631 114.122L266.243 114.237C267.46 114.468 268.378 115.508 268.474 116.767L270.044 137.4C270.102 138.162 269.86 138.897 269.362 139.469C268.887 140.016 268.239 140.343 267.529 140.4C267.496 140.402 267.463 140.404 267.429 140.406Z" fill="#3F3D56"/>
<path d="M242.325 139.506L240.683 117.927C240.567 116.404 241.644 115.089 243.134 114.933L253.894 113.812C255.387 113.673 256.735 114.769 256.895 116.293L259.179 138.091C259.258 138.848 259.039 139.587 258.561 140.172C258.085 140.757 257.412 141.112 256.668 141.171L245.267 142.073C243.761 142.193 242.442 141.041 242.325 139.506Z" fill="#3F3D56"/>
<path d="M307.165 149.208L316.78 163.858L319.061 181.009L325.822 180.912L321.96 160.684L306.61 142.155C305.581 144.445 305.792 147.115 307.165 149.208Z" fill="#CCCCCC"/>
<path d="M318.416 176.1L291.022 178.652L291.057 179.044L318.451 176.492L318.416 176.1Z" fill="#3F3D56"/>
<path d="M316.489 172.767L290.503 175.032L290.536 175.424L316.522 173.159L316.489 172.767Z" fill="#3F3D56"/>
<path d="M314.87 169.334L290.036 171.797L290.073 172.189L314.907 169.725L314.87 169.334Z" fill="#3F3D56"/>
<path d="M313.83 165.874L290.007 168.573L290.049 168.965L313.873 166.266L313.83 165.874Z" fill="#3F3D56"/>
<path d="M312.436 162.831L289.551 165.47L289.594 165.862L312.48 163.223L312.436 162.831Z" fill="#3F3D56"/>
<path d="M310.693 160.193L288.342 161.962L288.372 162.355L310.723 160.586L310.693 160.193Z" fill="#3F3D56"/>
<path d="M309.327 157.531L287.625 159.51L287.659 159.902L309.361 157.923L309.327 157.531Z" fill="#3F3D56"/>
<path d="M307.959 154.877L286.965 157.256L287.008 157.647L308.002 155.269L307.959 154.877Z" fill="#3F3D56"/>
<path d="M306.984 152.205L286.228 154.222L286.265 154.614L307.021 152.597L306.984 152.205Z" fill="#3F3D56"/>
<path d="M305.235 149.608L285.382 151.817L285.424 152.209L305.277 150L305.235 149.608Z" fill="#3F3D56"/>
<path d="M304.287 147.275L284.576 149.032L284.61 149.424L304.321 147.667L304.287 147.275Z" fill="#3F3D56"/>
<path d="M282.505 140.867L280.479 114.248C280.362 112.713 281.492 111.367 282.997 111.248L295.628 110.249C297.133 110.13 298.452 111.282 298.569 112.817L300.595 139.435C300.712 140.97 299.582 142.316 298.077 142.435L285.447 143.435C283.941 143.554 282.622 142.402 282.505 140.867Z" fill="#FF8063"/>
<path d="M256.043 182.091L233.574 182.408L233.393 182.41L232.05 164.764C231.88 162.532 233.522 160.575 235.711 160.402L257.795 158.654C259.983 158.481 261.902 160.156 262.072 162.388L263.526 181.499L263.334 181.514L256.043 182.091Z" fill="#CCCCCC"/>
<path d="M280.37 92.4655L278.823 72.1269C278.706 70.5919 279.835 69.2461 281.341 69.127L285.504 68.7975C287.009 68.6784 288.328 69.8303 288.445 71.3653L289.993 91.704C290.11 93.2388 288.98 94.5845 287.475 94.7036L283.312 95.0331C281.807 95.1522 280.487 94.0003 280.37 92.4655Z" fill="#3F3D56"/>
<path d="M291.388 181.268L288.919 164.089L284.2 147.877L282.894 143.44C280.813 142.225 278.266 143.961 278.571 146.387L278.812 148.304L283.53 164.515L285.999 181.695" fill="#CCCCCC"/>
<path d="M159.726 183.395L132.244 183.782L121.225 58.4891C120.958 55.448 121.921 52.3731 123.868 50.0534L150.893 17.8559C154.676 13.3486 161.108 12.5362 165.855 15.9662L199.703 40.4229C202.464 42.418 204.175 45.5375 204.397 48.9813L210.482 143.382L225.791 161.862L225.823 161.901L229.74 182.41L159.726 183.395Z" fill="#E6E6E6"/>
<path d="M153.97 46.9885L153.528 41.1732C153.411 39.6382 154.54 38.2925 156.046 38.1733L164.057 37.5392C165.563 37.4201 166.882 38.572 166.999 40.107L167.441 45.9223C167.558 47.4573 166.429 48.8031 164.924 48.9222L156.912 49.5563C155.407 49.6755 154.087 48.5235 153.97 46.9885Z" fill="#FF8063"/>
<path d="M140.47 93.4684L138.833 71.9525C138.716 70.4175 139.845 69.0717 141.351 68.9525L153.211 68.0138C154.716 67.8947 156.036 69.0467 156.153 70.5816L157.79 92.0976C157.907 93.6326 156.777 94.9784 155.272 95.0975L143.412 96.0362C141.906 96.1553 140.587 95.0034 140.47 93.4684Z" fill="#3F3D56"/>
<path d="M167.217 116.413C166.667 116.933 166.397 117.668 166.477 118.428L168.66 139.177C168.792 140.43 169.862 141.37 171.097 141.317C171.746 141.293 172.33 141.004 172.757 140.513C173.185 140.021 173.393 139.39 173.343 138.736L171.773 118.102C171.69 117.021 170.902 116.127 169.856 115.93L169.244 115.814C169.037 115.775 168.829 115.764 168.626 115.78C168.106 115.821 167.613 116.039 167.217 116.413Z" fill="#3F3D56"/>
<path d="M134.685 143.81C134.107 143.323 133.757 142.635 133.699 141.873L132.129 121.24C132.033 119.981 132.782 118.809 133.95 118.39L134.538 118.179C135.361 117.885 136.25 118 136.974 118.497C137.699 118.994 138.139 119.79 138.181 120.679L139.163 141.523C139.233 142.988 138.167 144.266 136.737 144.432C136.704 144.435 136.671 144.438 136.638 144.441C135.928 144.497 135.238 144.275 134.685 143.81Z" fill="#3F3D56"/>
<path d="M210.849 150.513L220.464 165.163L222.745 182.314L229.506 182.217L225.644 161.989L210.294 143.459C209.265 145.749 209.475 148.42 210.849 150.513Z" fill="#CCCCCC"/>
<path d="M222.1 177.404L194.706 179.957L194.741 180.349L222.135 177.796L222.1 177.404Z" fill="#3F3D56"/>
<path d="M220.172 174.072L194.187 176.337L194.22 176.729L220.205 174.464L220.172 174.072Z" fill="#3F3D56"/>
<path d="M218.554 170.639L193.72 173.103L193.757 173.494L218.591 171.031L218.554 170.639Z" fill="#3F3D56"/>
<path d="M217.514 167.179L193.69 169.878L193.733 170.27L217.556 167.571L217.514 167.179Z" fill="#3F3D56"/>
<path d="M216.12 164.136L193.235 166.775L193.278 167.166L216.164 164.527L216.12 164.136Z" fill="#3F3D56"/>
<path d="M214.377 161.499L192.026 163.268L192.056 163.66L214.407 161.891L214.377 161.499Z" fill="#3F3D56"/>
<path d="M213.01 158.836L191.308 160.814L191.343 161.207L213.045 159.228L213.01 158.836Z" fill="#3F3D56"/>
<path d="M211.643 156.182L190.649 158.561L190.691 158.952L211.685 156.573L211.643 156.182Z" fill="#3F3D56"/>
<path d="M210.668 153.509L189.912 155.527L189.949 155.919L210.705 153.901L210.668 153.509Z" fill="#3F3D56"/>
<path d="M208.919 150.913L189.066 153.122L189.108 153.514L208.961 151.304L208.919 150.913Z" fill="#3F3D56"/>
<path d="M207.971 148.579L188.26 150.337L188.294 150.729L208.005 148.971L207.971 148.579Z" fill="#3F3D56"/>
<path d="M186.189 142.172L184.163 115.553C184.046 114.018 185.176 112.672 186.681 112.553L199.312 111.553C200.817 111.434 202.136 112.586 202.253 114.121L204.279 140.74C204.395 142.275 203.266 143.621 201.761 143.74L189.13 144.739C187.625 144.859 186.306 143.707 186.189 142.172Z" fill="#FF8063"/>
<path d="M159.726 183.395L137.258 183.713L137.077 183.715L135.734 166.068C135.564 163.837 137.206 161.88 139.395 161.707L161.479 159.959C163.667 159.786 165.586 161.461 165.755 163.692L167.21 182.804L167.017 182.819L159.726 183.395Z" fill="#CCCCCC"/>
<path d="M184.054 93.7705L182.506 73.4321C182.39 71.8971 183.519 70.5513 185.024 70.4322L189.187 70.1027C190.692 69.9836 192.012 71.1355 192.129 72.6705L193.677 93.009C193.793 94.5439 192.664 95.8897 191.159 96.0088L186.996 96.3383C185.491 96.4574 184.171 95.3055 184.054 93.7705Z" fill="#3F3D56"/>
<path d="M195.071 182.573L192.602 165.394L187.884 149.182L186.578 144.744C184.496 143.53 181.95 145.266 182.255 147.692L182.495 149.608L187.214 165.82L189.683 182.999" fill="#CCCCCC"/>
<path d="M63.4102 184.7L35.9275 185.087L24.9089 59.7941C24.6416 56.753 25.6048 53.6782 27.5518 51.3584L54.5766 19.1609C58.3594 14.6538 64.7921 13.8414 69.5385 17.2713L103.387 41.7279C106.148 43.7231 107.859 46.8425 108.081 50.2863L114.166 144.687L129.475 163.167L129.507 163.206L133.423 183.715L63.4102 184.7Z" fill="#E6E6E6"/>
<path d="M57.6538 48.2937L57.2113 42.4784C57.0945 40.9434 58.224 39.5976 59.7294 39.4785L67.7411 38.8444C69.2461 38.7253 70.5657 39.8772 70.6825 41.4122L71.1251 47.2275C71.2419 48.7625 70.1123 50.1083 68.6073 50.2274L60.5956 50.8615C59.0903 50.9806 57.7706 49.8287 57.6538 48.2937Z" fill="#FF8063"/>
<path d="M44.1536 94.7731L42.5163 73.2571C42.3995 71.7222 43.529 70.3764 45.0344 70.2572L56.895 69.3185C58.4 69.1994 59.7196 70.3513 59.8365 71.8863L61.4738 93.4023C61.5906 94.9373 60.4611 96.2831 58.9561 96.4022L47.0954 97.3409C45.5901 97.46 44.2704 96.3081 44.1536 94.7731Z" fill="#3F3D56"/>
<path d="M37.6982 119.88L38.2855 119.67C39.8923 119.094 41.5897 120.259 41.6716 121.994L42.6544 142.837C42.7188 144.204 41.732 145.387 40.399 145.541C38.9673 145.706 37.6866 144.628 37.5751 143.163L36.0049 122.53C35.9157 121.357 36.6104 120.27 37.6982 119.88Z" fill="#3F3D56"/>
<path d="M49.6925 142.116L48.0503 120.537C47.9344 119.014 49.0111 117.699 50.502 117.543L61.2616 116.422C62.7617 116.279 64.1027 117.379 64.2626 118.903L66.546 140.701C66.6252 141.458 66.4062 142.197 65.9289 142.782C65.452 143.367 64.7794 143.722 64.0352 143.781L52.6342 144.683C51.1289 144.803 49.8093 143.651 49.6925 142.116Z" fill="#3F3D56"/>
<path d="M114.533 151.818L124.148 166.467L126.429 183.618L133.19 183.521L129.327 163.293L113.978 144.764C112.949 147.054 113.159 149.724 114.533 151.818Z" fill="#CCCCCC"/>
<path d="M125.783 178.709L98.3893 181.262L98.4245 181.654L125.818 179.101L125.783 178.709Z" fill="#3F3D56"/>
<path d="M123.856 175.377L97.8706 177.642L97.9035 178.034L123.889 175.769L123.856 175.377Z" fill="#3F3D56"/>
<path d="M122.237 171.943L97.4034 174.407L97.4408 174.799L122.275 172.335L122.237 171.943Z" fill="#3F3D56"/>
<path d="M121.197 168.484L97.3741 171.183L97.4167 171.575L121.24 168.875L121.197 168.484Z" fill="#3F3D56"/>
<path d="M119.804 165.441L96.9184 168.08L96.9618 168.471L119.847 165.832L119.804 165.441Z" fill="#3F3D56"/>
<path d="M118.061 162.803L95.7095 164.572L95.7394 164.965L118.091 163.196L118.061 162.803Z" fill="#3F3D56"/>
<path d="M116.694 160.14L94.992 162.119L95.0264 162.511L116.729 160.533L116.694 160.14Z" fill="#3F3D56"/>
<path d="M115.326 157.487L94.3324 159.865L94.375 160.257L115.369 157.878L115.326 157.487Z" fill="#3F3D56"/>
<path d="M114.352 154.814L93.5957 156.832L93.6323 157.224L114.389 155.206L114.352 154.814Z" fill="#3F3D56"/>
<path d="M112.602 152.218L92.7494 154.427L92.7913 154.819L112.644 152.609L112.602 152.218Z" fill="#3F3D56"/>
<path d="M111.655 149.884L91.9439 151.642L91.9776 152.034L111.688 150.277L111.655 149.884Z" fill="#3F3D56"/>
<path d="M89.8724 143.477L87.8467 116.858C87.7299 115.323 88.8594 113.977 90.3648 113.858L102.995 112.859C104.5 112.739 105.82 113.891 105.937 115.427L107.962 142.045C108.079 143.58 106.95 144.926 105.445 145.045L92.8142 146.045C91.3088 146.164 89.9892 145.012 89.8724 143.477Z" fill="#FF8063"/>
<path d="M63.4102 184.7L40.9413 185.017L40.7603 185.02L39.4174 167.373C39.2476 165.142 40.8899 163.185 43.0783 163.012L65.1626 161.264C67.3509 161.091 69.2693 162.765 69.4391 164.997L70.8934 184.108L70.701 184.123L63.4102 184.7Z" fill="#CCCCCC"/>
<path d="M87.7379 95.0752L86.1901 74.7368C86.0733 73.2018 87.2029 71.856 88.7082 71.7368L92.871 71.4074C94.376 71.2883 95.6956 72.4402 95.8124 73.9752L97.3602 94.3136C97.477 95.8486 96.3475 97.1944 94.8425 97.3135L90.6797 97.643C89.1743 97.7621 87.8547 96.6102 87.7379 95.0752Z" fill="#3F3D56"/>
<path d="M98.7552 183.878L96.2862 166.698L91.5676 150.487L90.2618 146.049C88.1802 144.834 85.6335 146.57 85.9383 148.996L86.1791 150.913L90.8977 167.125L93.3667 184.304" fill="#CCCCCC"/>
<path d="M351.962 180.58L1.52588e-05 185.233L0.0100245 186.02L351.972 181.367L351.962 180.58Z" fill="#CCCCCC"/>
<path d="M116.779 345.157C115.991 343.803 112.583 345.253 111.956 344.024C111.332 342.799 114.498 340.932 116.307 336.668C116.634 335.9 118.69 331.054 117.168 329.559C114.283 326.725 101.082 338.42 96.4624 334.593C95.4486 333.753 94.7403 332.076 91.6719 329.354C90.4512 328.271 89.7131 327.782 88.9987 327.964C87.9851 328.222 87.9048 329.606 86.8178 332.326C85.1878 336.405 84.2237 336.159 83.2739 339.414C82.5689 341.83 82.73 343.235 81.9003 343.508C80.7263 343.896 79.6457 341.333 78.1579 341.562C76.6396 341.796 75.7217 344.78 75.4318 347.015C74.8877 351.207 76.3974 353.974 77.2342 356.883C78.1436 360.044 78.6833 364.852 76.5833 371.658L55.7974 431.382C60.3863 419.127 73.6733 385.532 79.2565 373.048C80.8682 369.444 82.6478 365.788 86.3019 364.346C89.82 362.957 94.6515 363.786 100.811 362.273C101.531 362.096 103.527 361.578 103.778 360.38C103.986 359.391 102.812 358.838 102.992 357.911C103.234 356.667 105.543 356.652 108.381 355.217C110.382 354.205 111.628 353.002 112.7 351.967C113.023 351.655 117.827 346.961 116.779 345.157Z" fill="#F2F2F2"/>
<path d="M35.001 376.599C34.1217 376.602 33.8365 378.726 33.064 378.685C32.2943 378.644 32.3097 376.521 30.7796 374.385C30.5037 374 28.7649 371.573 27.6062 371.903C25.4099 372.53 27.2297 382.511 24.0548 383.719C23.3581 383.984 22.3467 383.855 20.1512 384.606C19.2778 384.904 18.8295 385.132 18.7109 385.542C18.5427 386.124 19.1853 386.564 20.1809 387.893C21.6739 389.886 21.2772 390.297 22.5696 391.712C23.529 392.762 24.2515 393.086 24.1438 393.58C23.9915 394.28 22.4463 394.081 22.1274 394.892C21.8021 395.72 22.9733 397.04 23.9649 397.83C25.8257 399.312 27.5927 399.354 29.2342 399.775C31.018 400.232 33.4876 401.349 36.1572 404.364L58.9036 432C54.3295 426.167 41.9949 409.823 37.5975 403.427C36.3281 401.58 35.0823 399.635 35.4423 397.39C35.7889 395.228 37.5821 393.049 38.631 389.529C38.7535 389.118 39.0802 387.969 38.5765 387.498C38.16 387.109 37.5552 387.537 37.161 387.179C36.6323 386.699 37.2912 385.539 37.4194 383.705C37.5098 382.411 37.2903 381.44 37.1016 380.605C37.0448 380.353 36.1714 376.594 35.001 376.599Z" fill="#F2F2F2"/>
<path d="M52.542 380.614L52.0123 375.792L52.2543 375.426C53.3743 373.736 53.9452 372.085 53.952 370.518C53.9532 370.268 53.9417 370.019 53.9303 369.765C53.8846 368.759 53.8276 367.509 54.4669 366.051C54.8254 365.239 55.8324 363.357 57.3463 363.59C57.7539 363.648 58.0621 363.839 58.2962 364.063C58.3304 364.007 58.3658 363.951 58.4035 363.89C58.875 363.157 59.2483 362.843 59.6079 362.54C59.8842 362.307 60.1697 362.067 60.6172 361.499C60.8136 361.25 60.9666 361.031 61.0956 360.847C61.4872 360.29 61.9986 359.627 62.9006 359.638C63.8642 359.685 64.3688 360.498 64.7033 361.035C65.3004 361.995 65.571 362.686 65.7502 363.145C65.8153 363.313 65.8895 363.501 65.9272 363.56C66.2377 364.025 68.762 363.59 69.713 363.432C71.8491 363.068 73.6975 362.754 74.4591 364.128C75.0048 365.111 74.5995 366.41 73.218 368.093C72.7876 368.617 72.3298 369.016 71.9234 369.328C72.2601 369.533 72.5615 369.847 72.6837 370.341C72.9714 371.51 71.9862 372.681 69.7564 373.827C69.2027 374.113 68.4572 374.495 67.4126 374.679C66.9205 374.765 66.4775 374.786 66.0985 374.798C66.0905 375.021 66.0391 375.263 65.9055 375.512C65.5139 376.246 64.6988 376.595 63.4703 376.511C62.1185 376.439 61.0054 376.176 60.0235 375.946C59.1662 375.745 58.4275 375.575 57.8475 375.615C56.772 375.703 55.9431 376.581 54.9705 377.72L52.542 380.614Z" fill="#F2F2F2"/>
<path d="M54.9994 351.901L50.5596 353.647L50.1514 353.501C48.2638 352.825 46.553 352.68 45.0648 353.071C44.8282 353.133 44.5948 353.208 44.3569 353.283C43.4144 353.583 42.2428 353.957 40.698 353.696C39.8362 353.548 37.7961 353.032 37.633 351.48C37.5849 351.063 37.6878 350.711 37.8404 350.423C37.7787 350.403 37.7168 350.383 37.6498 350.361C36.8344 350.082 36.4416 349.793 36.0632 349.515C35.7722 349.302 35.4724 349.081 34.8199 348.784C34.5338 348.653 34.2874 348.558 34.0801 348.477C33.4529 348.232 32.6937 347.896 32.476 347.003C32.2758 346.041 32.9186 345.337 33.344 344.87C34.1025 344.038 34.6898 343.596 35.0795 343.303C35.222 343.196 35.3821 343.075 35.4278 343.023C35.7907 342.598 34.7374 340.219 34.346 339.321C33.4596 337.306 32.6926 335.562 33.8026 334.462C34.5963 333.675 35.9315 333.745 37.8788 334.681C38.485 334.973 38.9788 335.323 39.3778 335.645C39.4868 335.261 39.7085 334.884 40.1458 334.638C41.1816 334.058 42.5424 334.732 44.1947 336.641C44.6068 337.115 45.1582 337.753 45.5976 338.737C45.8042 339.201 45.9364 339.633 46.0436 340.003C46.2577 339.955 46.5004 339.944 46.7706 340.012C47.5657 340.213 48.1038 340.928 48.3358 342.161C48.6102 343.513 48.643 344.678 48.6734 345.705C48.7009 346.602 48.727 347.373 48.9117 347.935C49.2685 348.974 50.3114 349.569 51.6382 350.24L54.9994 351.901Z" fill="#F2F2F2"/>
<path d="M52.542 337.694L52.0123 332.871L52.2543 332.505C53.3743 330.815 53.9452 329.164 53.952 327.597C53.9532 327.348 53.9417 327.098 53.9303 326.845C53.8846 325.839 53.8276 324.588 54.4669 323.13C54.8254 322.318 55.8324 320.436 57.3463 320.669C57.7539 320.727 58.0621 320.918 58.2962 321.142C58.3304 321.086 58.3658 321.03 58.4035 320.969C58.875 320.236 59.2483 319.922 59.6079 319.619C59.8842 319.386 60.1697 319.146 60.6172 318.578C60.8136 318.329 60.9666 318.11 61.0956 317.926C61.4872 317.369 61.9986 316.706 62.9006 316.717C63.8642 316.764 64.3688 317.577 64.7033 318.115C65.3004 319.074 65.571 319.766 65.7502 320.224C65.8153 320.392 65.8895 320.581 65.9272 320.639C66.2377 321.105 68.762 320.669 69.713 320.511C71.8491 320.147 73.6975 319.833 74.4591 321.207C75.0048 322.19 74.5995 323.489 73.218 325.173C72.7876 325.697 72.3298 326.095 71.9234 326.407C72.2601 326.612 72.5615 326.926 72.6837 327.42C72.9714 328.589 71.9862 329.76 69.7564 330.906C69.2027 331.192 68.4572 331.574 67.4126 331.758C66.9205 331.844 66.4775 331.865 66.0985 331.877C66.0905 332.1 66.0391 332.342 65.9055 332.592C65.5139 333.325 64.6988 333.674 63.4703 333.591C62.1185 333.518 61.0054 333.255 60.0235 333.025C59.1662 332.824 58.4275 332.654 57.8475 332.694C56.772 332.783 55.9431 333.66 54.9705 334.799L52.542 337.694Z" fill="#F2F2F2"/>
<path d="M57.3805 431.303L56.3895 430.67L55.2341 430.805C55.2159 430.696 55.1531 430.444 55.0583 430.051C54.5412 427.894 52.9645 421.332 51.6492 410.998C50.7313 403.784 50.2118 396.367 50.1045 388.951C49.9972 381.522 50.342 375.899 50.6183 371.379C50.8272 367.97 51.0807 364.724 51.3296 361.562C51.9917 353.113 52.6162 345.133 52.1516 336.299C52.0488 334.326 51.833 330.221 49.4812 325.852C48.1168 323.319 46.2376 321.069 43.8949 319.169L45.3517 317.302C47.9376 319.402 50.0166 321.894 51.5316 324.707C54.1393 329.55 54.3745 334.024 54.4875 336.173C54.9601 345.164 54.3288 353.221 53.6597 361.75C53.4131 364.901 53.1597 368.133 52.9519 371.528C52.6779 376.006 52.3365 381.581 52.4427 388.913C52.5477 396.242 53.0615 403.567 53.9669 410.691C55.2661 420.894 56.82 427.359 57.3303 429.482C57.602 430.616 57.6591 430.854 57.3805 431.303Z" fill="#F2F2F2"/>
<path d="M39.6067 322.958C39.5108 322.958 39.4138 322.956 39.3156 322.949C37.3245 322.839 35.4806 321.624 33.8343 319.337C33.0626 318.261 32.6675 317.034 31.8798 314.587C31.7576 314.209 31.1639 312.295 30.8031 309.662C30.5668 307.941 30.5965 307.221 30.931 306.586C31.3021 305.878 31.9026 305.384 32.5785 305.051C32.5488 304.823 32.5727 304.588 32.6698 304.348C33.0683 303.354 34.1277 303.484 34.7009 303.547C34.9909 303.584 35.3528 303.633 35.7432 303.612C36.3575 303.582 36.6874 303.395 37.1875 303.116C37.6659 302.848 38.2607 302.515 39.1432 302.331C40.8831 301.961 42.3411 302.464 42.8217 302.629C45.3505 303.489 46.5973 305.493 48.0404 307.815C48.3281 308.281 49.3156 309.976 49.9675 312.3C50.4379 313.977 50.3717 314.722 50.2301 315.276C49.9424 316.415 49.2631 317.067 47.538 318.506C45.7364 320.012 44.8322 320.767 44.0559 321.226C42.2486 322.29 41.1137 322.958 39.6067 322.958Z" fill="#F2F2F2"/>
<path d="M562.084 430.219C562.084 430.661 561.734 431.019 561.301 431.019H18.0764V429.42H561.301C561.734 429.42 562.084 429.778 562.084 430.219Z" fill="#E6E6E6"/>
<path d="M405.263 177.554C405.263 177.554 376.022 181.14 380.954 157.563C385.887 133.985 413.853 90.4365 413.853 90.4365L429.723 99.5128L411.503 143.434L419.346 149.744L405.263 177.554Z" fill="#A0616A"/>
<path d="M501.087 148.85L496.966 183.41L393.716 182.894L414.453 146.141L501.087 148.85Z" fill="#FF8063"/>
<path d="M439.728 92.2728C446.047 83.2735 446.554 72.608 440.861 68.4507C435.167 64.2934 425.43 68.2187 419.111 77.218C412.793 86.2173 412.286 96.8828 417.979 101.04C423.672 105.197 433.41 101.272 439.728 92.2728Z" fill="#A0616A"/>
<path d="M497.498 280.611H491.159V430.596H497.498V280.611Z" fill="#3F3D56"/>
<path d="M467.069 280.611H460.73V430.596H467.069V280.611Z" fill="#3F3D56"/>
<path d="M296.542 186.223H290.203V430.596H296.542V186.223Z" fill="#E6E6E6"/>
<path d="M398.605 280.611H392.266V430.596H398.605V280.611Z" fill="#3F3D56"/>
<path d="M374.345 280.611H368.006V430.596H374.345V280.611Z" fill="#3F3D56"/>
<path d="M485.453 277.378H363.035L339.551 311.348L461.364 318.754L485.453 277.378Z" fill="#3F3D56"/>
<path d="M261.293 161.155L261.849 136.52L187.964 142.316L187.587 159.009L261.293 161.155Z" fill="#A0616A"/>
<path d="M211.288 139.372L207.754 148.043L202.679 148.208C202.679 148.208 208.621 150.063 210.272 161.075L205.396 162.566C205.396 162.566 200.713 167.021 191.959 166.589L168.488 164.587L168.398 156.242L184.62 154.33C184.62 154.33 188.234 151.905 170.341 141.935C170.341 141.935 164.413 138.238 169.744 119.985C170.477 117.476 172.69 115.674 175.257 115.617C176.673 115.586 178 116.105 178.53 117.899C179.878 122.465 178.514 127.018 182.22 129.868C185.926 132.719 211.288 139.372 211.288 139.372Z" fill="#2F2E41"/>
<path d="M476.292 255.337C476.292 255.337 450.799 299.554 393.114 291.586C379.387 289.689 367.31 281.366 360.429 269.105C347.13 245.406 326.936 203.91 333.483 180.413L235.921 161.424L228.234 137.261L333.821 123.273C343.16 122.036 352.309 126.668 356.989 135.003L408.423 226.606L423.756 228.313L476.292 255.337Z" fill="#2F2E41"/>
<path d="M263.219 171.24L261.829 146.639L188.642 158.478L189.582 175.148L263.219 171.24Z" fill="#A0616A"/>
<path d="M211.658 153.63L208.82 162.562L203.774 163.143C203.774 163.143 209.843 164.505 212.357 175.346L207.614 177.232C207.614 177.232 203.298 182.057 194.539 182.344L170.986 182.274L170.237 173.964L186.256 170.728C186.256 170.728 189.667 168.014 171.045 159.544C171.045 159.544 164.846 156.346 168.719 137.714C169.252 135.153 171.316 133.175 173.869 132.908C175.278 132.761 176.642 133.169 177.312 134.914C179.016 139.355 178.015 144.005 181.934 146.542C185.853 149.079 211.658 153.63 211.658 153.63Z" fill="#2F2E41"/>
<path d="M484.951 247.477C484.951 247.477 463.029 293.642 404.903 290.432C391.07 289.668 378.375 282.363 370.55 270.706C355.424 248.175 332.022 208.47 336.694 184.513L237.95 173.59L228.382 150.135L332.523 127.53C341.735 125.531 351.219 129.397 356.542 137.321L415.035 224.407L430.453 224.85L484.951 247.477Z" fill="#2F2E41"/>
<path d="M418.127 52.5322L413.056 56.4112L439.681 93.9075L444.752 92.6145L418.127 52.5322Z" fill="#3F3D56"/>
<path d="M487.355 135.797L516.516 134.504L529.195 192.688C529.195 192.688 502.57 294.833 470.873 290.954C470.873 290.954 451.221 276.085 451.221 270.913C451.221 265.741 424.596 252.812 424.596 252.812L418.257 230.831L437.275 201.093C437.275 201.093 444.882 177.819 470.239 164.889L487.355 135.797Z" fill="#FF8063"/>
<path d="M320.631 181.051H61.3535V187.516H188.14V430.596H194.479V187.516H320.631V181.051Z" fill="#E6E6E6"/>
<path d="M502.57 130.625C521.476 130.625 536.802 114.995 536.802 95.715C536.802 76.4346 521.476 60.8047 502.57 60.8047C483.664 60.8047 468.337 76.4346 468.337 95.715C468.337 114.995 483.664 130.625 502.57 130.625Z" fill="#A0616A"/>
<path d="M383.211 140.323L359.301 150.02L406.212 213.376L422.694 200.446L383.211 140.323Z" fill="#E6E6E6"/>
<path d="M476.578 261.862C476.578 261.862 467.703 290.501 448.686 276.182C429.668 261.862 402.329 217.901 402.329 217.901L416.989 206.911L448.685 241.974L457.561 237.296L476.578 261.862Z" fill="#A0616A"/>
<path d="M490.525 161.01L519.686 179.112L476.578 274.792L448.685 236.003L490.525 161.01Z" fill="#FF8063"/>
<path d="M413.502 218.449C419.566 214.878 420.083 204.213 414.656 194.628C409.23 185.042 399.915 180.166 393.85 183.736C387.786 187.307 387.27 197.972 392.696 207.557C398.123 217.143 407.438 222.019 413.502 218.449Z" fill="#A0616A"/>
<path d="M506.313 201.413C515.099 172.041 524.527 162.745 534.439 168.565C541.984 172.995 544.255 183.078 539.833 190.726C528.563 210.22 505.339 254.886 510.177 284.49C510.177 284.49 517.784 325.865 456.927 325.865C396.069 325.865 337.747 311.642 337.747 311.642L369.444 306.47L441.526 311.721C457.995 312.921 471.875 298.55 469.675 281.862C469.602 281.311 469.516 280.754 469.415 280.191C465.802 259.923 506.313 201.413 506.313 201.413Z" fill="#3F3D56"/>
<path d="M489.739 81.2432C486.943 89.2283 493.087 97.5198 501.383 96.9558L501.581 96.9424C507.158 104.051 507.312 114.108 501.956 121.391C501.516 130.778 502.957 140.158 506.193 148.958L515.284 173.681L529.28 167.02L535.922 185.099L575 164.57L551.316 110.226L544.089 80.7435C538.947 59.7679 517.966 47.1423 497.475 52.6929L481.755 56.9515C469.335 60.3159 462.186 73.5768 466.056 86.0737L489.739 81.2432Z" fill="#2F2E41"/>
</g>
<defs>
<clipPath id="clip0_154_4745">
<rect width="575" height="432" fill="white"/>
</clipPath>
</defs>
</svg>
