<svg width="318" height="307" viewBox="0 0 318 307" fill="none" xmlns="http://www.w3.org/2000/svg">
<g clip-path="url(#clip0_154_4854)">
<path d="M146.946 301.234L154.86 301.233L158.624 270.719L146.945 270.72L146.946 301.234Z" fill="#FFB6B6"/>
<path d="M174.059 301.054C174.305 301.469 174.435 302.808 174.435 303.291C174.435 304.774 173.233 305.976 171.75 305.976H147.242C146.231 305.976 145.41 305.156 145.41 304.144V303.124C145.41 303.124 144.198 300.058 146.694 296.28C146.694 296.28 149.796 299.238 154.431 294.604L155.798 292.129L165.693 299.363L171.178 300.038C172.378 300.186 173.442 300.015 174.059 301.054Z" fill="#2F2E41"/>
<path d="M116.918 301.234L124.832 301.233L128.596 270.719L116.917 270.72L116.918 301.234Z" fill="#FFB6B6"/>
<path d="M144.031 301.054C144.277 301.469 144.407 302.808 144.407 303.291C144.407 304.774 143.205 305.976 141.722 305.976H117.214C116.203 305.976 115.382 305.156 115.382 304.144V303.124C115.382 303.124 114.17 300.058 116.666 296.28C116.666 296.28 119.768 299.238 124.403 294.604L125.77 292.129L135.665 299.363L141.15 300.038C142.35 300.186 143.414 300.015 144.031 301.054Z" fill="#2F2E41"/>
<path d="M111.09 137.322L101.081 160.003L113.76 284.08L129.441 285.08L135.78 175.346L141.786 285.414L160.47 283.413L164.902 143.686L111.09 137.322Z" fill="#2F2E41"/>
<path d="M150.526 46.9326L130.442 43.2637L126.386 47.3187L105.752 55.9382L109.089 120.645C109.089 120.645 102.416 125.089 105.752 131.205C109.089 137.322 108.421 144.66 108.421 144.66H164.902L162.472 107.97L169.145 61.2748L153.553 53.8953L150.526 46.9326Z" fill="#FF8063"/>
<path d="M141.745 41.3706C151.486 41.3706 159.384 33.476 159.384 23.7376C159.384 13.9991 151.486 6.10449 141.745 6.10449C132.003 6.10449 124.106 13.9991 124.106 23.7376C124.106 33.476 132.003 41.3706 141.745 41.3706Z" fill="#FFB6B6"/>
<path d="M129.094 39.3908C126.981 39.5796 123.532 34.1757 123.685 28.9422C123.784 25.5754 120.86 24.9135 120.643 20.5716C120.517 18.0416 124.404 17.2528 124.671 15.2236C125.155 11.5469 127.528 9.07281 127.824 8.77205C130.381 6.17582 132.186 7.01982 135.193 4.01086C137.003 2.19932 136.54 1.70302 137.759 0.8995C141.278 -1.4195 147.601 1.09385 151.382 4.47943C152.691 5.65098 157.568 4.37055 159.699 7.67888C162.209 11.5767 161.626 19.5258 160.549 20.5749C159.896 21.2122 158.402 19.6551 154.354 18.6557C150.607 17.7305 154.142 22.3061 149.81 21.5383C144.687 20.6303 143.683 19.0721 141.765 20.0067C139.737 20.9946 138.152 24.0536 138.612 26.4582C138.84 27.6515 139.502 28.3168 139.129 28.9236C138.448 30.0314 137.666 28.945 136.792 30.0567C135.775 31.3499 138.301 34.6673 137.826 34.9876C137.73 35.0522 137.44 35.0438 134.713 32.4225C133.625 31.3759 133.306 30.7332 133.093 30.8318C132.748 30.9915 130.488 33.0962 131.351 34.7582C132.694 37.3447 130.975 37.4253 131.351 39.1665C131.738 40.9629 130.437 39.2708 129.094 39.3908Z" fill="#2F2E41"/>
<path d="M147.844 125.064C142.644 127.777 139.829 132.659 141.557 135.968C143.285 139.276 148.901 139.757 154.103 137.042C156.196 135.986 158.005 134.444 159.38 132.546L181.269 120.77L175.523 110.619L154.554 123.305C152.209 123.347 149.908 123.95 147.844 125.064Z" fill="#FFB6B6"/>
<path d="M165.141 61.9422C165.141 61.9422 171.147 57.9397 175.15 68.613C178.309 77.0333 184.167 101.853 186.499 111.956C187.119 114.638 186.223 117.44 184.165 119.269L181.49 121.646L168.477 131.318L159.606 118.413L170.381 111.918L158.092 85.2691L165.141 61.9422Z" fill="#FF8063"/>
<path d="M165.38 117.132V103.452C165.38 102.663 166.022 102.021 166.811 102.021H173.433C174.222 102.021 174.864 102.663 174.864 103.452V117.132C174.864 117.921 174.222 118.563 173.433 118.563H166.811C166.022 118.563 165.38 117.921 165.38 117.132Z" fill="#FF8063"/>
<path d="M260.01 95.1158C270.842 95.1158 279.623 86.3373 279.623 75.5086C279.623 64.6798 270.842 55.9014 260.01 55.9014C249.177 55.9014 240.396 64.6798 240.396 75.5086C240.396 86.3373 249.177 95.1158 260.01 95.1158Z" fill="#FF6884"/>
<path d="M240.64 199.846L218.477 200.152L209.591 101.105C209.376 98.7014 210.153 96.2707 211.723 94.4369L233.516 68.9842C236.567 65.4215 241.754 64.7787 245.582 67.4903L272.878 86.8238C275.105 88.401 276.485 90.867 276.664 93.5894L296.589 160.507L293.916 182.823L293.943 182.854L297.101 199.068L240.64 199.846Z" fill="#E6E6E6"/>
<path d="M235.998 92.0146L235.641 87.4175C235.547 86.2041 236.458 85.1402 237.672 85.0461L244.133 84.5448C245.346 84.4506 246.41 85.3612 246.505 86.5747L246.862 91.1718C246.956 92.3852 246.045 93.4491 244.831 93.5433L238.37 94.0445C237.156 94.1387 236.092 93.2281 235.998 92.0146Z" fill="#FF8063"/>
<path d="M225.111 128.757L223.791 111.748C223.696 110.535 224.607 109.471 225.821 109.377L235.386 108.635C236.6 108.54 237.664 109.451 237.758 110.665L239.079 127.673C239.173 128.887 238.262 129.951 237.048 130.045L227.483 130.787C226.269 130.881 225.205 129.97 225.111 128.757Z" fill="#3F3D56"/>
<path d="M249.823 166.894C248.663 166.943 247.658 166.077 247.534 164.924L245.774 148.521C245.699 147.821 245.953 147.146 246.469 146.667C246.986 146.188 247.679 145.988 248.372 146.116L248.866 146.207C249.848 146.389 250.588 147.211 250.665 148.207L251.931 164.518C251.978 165.12 251.783 165.701 251.382 166.153C250.998 166.585 250.476 166.844 249.903 166.889C249.876 166.891 249.849 166.893 249.823 166.894Z" fill="#3F3D56"/>
<path d="M229.578 166.182L228.253 149.124C228.16 147.92 229.028 146.88 230.23 146.757L238.907 145.871C240.111 145.761 241.198 146.627 241.327 147.832L243.169 165.063C243.233 165.662 243.056 166.246 242.671 166.709C242.287 167.171 241.744 167.452 241.144 167.498L231.95 168.212C230.736 168.306 229.672 167.395 229.578 166.182Z" fill="#3F3D56"/>
<path d="M281.867 173.852L289.621 185.433L291.46 198.991L296.913 198.915L293.798 182.924L281.419 168.276C280.589 170.087 280.759 172.198 281.867 173.852Z" fill="#CCCCCC"/>
<path d="M290.94 195.11L268.848 197.128L268.877 197.438L290.968 195.42L290.94 195.11Z" fill="#3F3D56"/>
<path d="M289.386 192.476L268.43 194.267L268.457 194.577L289.412 192.786L289.386 192.476Z" fill="#3F3D56"/>
<path d="M288.08 189.762L268.053 191.71L268.083 192.02L288.11 190.072L288.08 189.762Z" fill="#3F3D56"/>
<path d="M287.241 187.027L268.03 189.161L268.064 189.471L287.276 187.337L287.241 187.027Z" fill="#3F3D56"/>
<path d="M286.118 184.622L267.662 186.708L267.697 187.017L286.153 184.931L286.118 184.622Z" fill="#3F3D56"/>
<path d="M284.712 182.536L266.687 183.935L266.711 184.245L284.736 182.846L284.712 182.536Z" fill="#3F3D56"/>
<path d="M283.61 180.432L266.109 181.996L266.136 182.306L283.638 180.742L283.61 180.432Z" fill="#3F3D56"/>
<path d="M282.507 178.334L265.577 180.214L265.611 180.523L282.541 178.643L282.507 178.334Z" fill="#3F3D56"/>
<path d="M281.721 176.221L264.983 177.816L265.012 178.126L281.751 176.531L281.721 176.221Z" fill="#3F3D56"/>
<path d="M280.31 174.169L264.3 175.915L264.334 176.225L280.344 174.478L280.31 174.169Z" fill="#3F3D56"/>
<path d="M279.546 172.323L263.651 173.713L263.678 174.023L279.573 172.634L279.546 172.323Z" fill="#3F3D56"/>
<path d="M261.98 167.258L260.346 146.215C260.252 145.002 261.163 143.938 262.377 143.844L272.563 143.054C273.777 142.959 274.841 143.87 274.935 145.084L276.568 166.126C276.663 167.34 275.752 168.403 274.538 168.498L264.352 169.288C263.138 169.382 262.074 168.471 261.98 167.258Z" fill="#FF8063"/>
<path d="M240.64 199.846L222.521 200.097L222.374 200.099L221.292 186.149C221.155 184.385 222.479 182.838 224.244 182.701L242.053 181.319C243.818 181.182 245.365 182.506 245.502 184.271L246.675 199.378L246.52 199.39L240.64 199.846Z" fill="#CCCCCC"/>
<path d="M260.259 128.996L259.011 112.918C258.916 111.704 259.827 110.641 261.041 110.546L264.398 110.286C265.612 110.192 266.676 111.102 266.77 112.316L268.018 128.394C268.113 129.607 267.202 130.671 265.988 130.765L262.631 131.026C261.417 131.12 260.353 130.209 260.259 128.996Z" fill="#3F3D56"/>
<path d="M269.143 199.196L267.152 185.615L263.347 172.8L262.294 169.292C260.615 168.332 258.562 169.704 258.807 171.622L259.002 173.137L262.807 185.953L264.798 199.533" fill="#CCCCCC"/>
<path d="M46.0988 202.349L23.9355 202.655L15.0499 103.608C14.8343 101.204 15.611 98.7736 17.1812 96.9398L38.9746 71.4871C42.0254 67.9244 47.2126 67.2816 51.0409 69.9932L78.3368 89.3267C80.5636 90.9039 81.9435 93.3699 82.1226 96.0923L102.047 163.01L99.375 185.326L99.4012 185.357L102.559 201.571L46.0988 202.349Z" fill="#E6E6E6"/>
<path d="M41.4564 94.5166L41.0995 89.9195C41.0053 88.706 41.9162 87.6422 43.1301 87.548L49.5911 87.0467C50.8049 86.9526 51.869 87.8632 51.9632 89.0766L52.3201 93.6737C52.4143 94.8872 51.5035 95.951 50.2897 96.0452L43.8286 96.5465C42.6148 96.6406 41.5506 95.73 41.4564 94.5166Z" fill="#FF8063"/>
<path d="M30.5695 131.26L29.249 114.251C29.1548 113.038 30.0657 111.974 31.2796 111.88L40.8445 111.138C42.0583 111.043 43.1224 111.954 43.2166 113.167L44.537 130.176C44.6312 131.39 43.7205 132.454 42.5066 132.548L32.9417 133.29C31.7278 133.384 30.6637 132.473 30.5695 131.26Z" fill="#3F3D56"/>
<path d="M55.281 169.397C54.1218 169.446 53.1167 168.58 52.9927 167.427L51.2329 151.024C51.1578 150.324 51.411 149.649 51.9276 149.17C52.4442 148.691 53.1379 148.491 53.8305 148.619L54.3241 148.71C55.3062 148.892 56.046 149.714 56.1233 150.71L57.3896 167.021C57.4363 167.623 57.2411 168.204 56.84 168.656C56.4567 169.088 55.9342 169.347 55.3613 169.392C55.3346 169.394 55.3079 169.396 55.281 169.397Z" fill="#3F3D56"/>
<path d="M35.0361 168.685L33.7119 151.627C33.6184 150.423 34.4868 149.383 35.6888 149.26L44.3658 148.374C45.5696 148.264 46.6569 149.13 46.7859 150.335L48.6274 167.566C48.6912 168.165 48.5146 168.749 48.1297 169.212C47.7451 169.674 47.2028 169.955 46.6027 170.001L37.4083 170.715C36.1945 170.809 35.1303 169.898 35.0361 168.685Z" fill="#3F3D56"/>
<path d="M87.3254 176.355L95.0793 187.936L96.9187 201.494L102.371 201.418L99.2561 185.427L86.8777 170.779C86.048 172.589 86.2175 174.7 87.3254 176.355Z" fill="#CCCCCC"/>
<path d="M96.3982 197.613L74.3068 199.631L74.3352 199.941L96.4265 197.923L96.3982 197.613Z" fill="#3F3D56"/>
<path d="M94.8441 194.979L73.8885 196.77L73.915 197.08L94.8706 195.289L94.8441 194.979Z" fill="#3F3D56"/>
<path d="M93.5386 192.264L73.5118 194.212L73.5419 194.522L93.5688 192.574L93.5386 192.264Z" fill="#3F3D56"/>
<path d="M92.6999 189.53L73.4881 191.664L73.5225 191.974L92.7343 189.84L92.6999 189.53Z" fill="#3F3D56"/>
<path d="M91.5762 187.124L73.1206 189.21L73.1556 189.519L91.6112 187.433L91.5762 187.124Z" fill="#3F3D56"/>
<path d="M90.1705 185.039L72.1458 186.438L72.1698 186.748L90.1946 185.349L90.1705 185.039Z" fill="#3F3D56"/>
<path d="M89.0684 182.934L71.5671 184.498L71.5948 184.808L89.0961 183.244L89.0684 182.934Z" fill="#3F3D56"/>
<path d="M87.9654 180.836L71.0352 182.717L71.0696 183.026L87.9997 181.146L87.9654 180.836Z" fill="#3F3D56"/>
<path d="M87.1796 178.723L70.4411 180.318L70.4706 180.628L87.2091 179.033L87.1796 178.723Z" fill="#3F3D56"/>
<path d="M85.7687 176.671L69.7586 178.418L69.7924 178.728L85.8025 176.981L85.7687 176.671Z" fill="#3F3D56"/>
<path d="M85.0045 174.826L69.1091 176.216L69.1362 176.526L85.0316 175.136L85.0045 174.826Z" fill="#3F3D56"/>
<path d="M67.4385 169.761L65.8049 148.718C65.7107 147.505 66.6216 146.441 67.8354 146.347L78.0212 145.556C79.235 145.462 80.299 146.373 80.3933 147.587L82.0268 168.629C82.121 169.842 81.2103 170.906 79.9964 171L69.8107 171.791C68.5969 171.885 67.5327 170.974 67.4385 169.761Z" fill="#FF8063"/>
<path d="M46.0988 202.349L27.979 202.6L27.833 202.602L26.75 188.652C26.613 186.888 27.9373 185.341 29.7021 185.204L47.5116 183.822C49.2763 183.685 50.8235 185.009 50.9604 186.774L52.1333 201.881L51.9781 201.893L46.0988 202.349Z" fill="#CCCCCC"/>
<path d="M65.7172 131.499L64.469 115.421C64.3748 114.207 65.2857 113.144 66.4995 113.049L69.8567 112.789C71.0705 112.695 72.1346 113.605 72.2288 114.819L73.4769 130.897C73.5711 132.11 72.6604 133.174 71.4465 133.268L68.0894 133.529C66.8756 133.623 65.8114 132.712 65.7172 131.499Z" fill="#3F3D56"/>
<path d="M74.6019 201.699L72.6108 188.118L68.8056 175.303L67.7526 171.795C66.0738 170.834 64.0202 172.207 64.2659 174.125L64.4601 175.64L68.2653 188.456L70.2564 202.036" fill="#CCCCCC"/>
<path d="M162.967 200.878L140.805 201.183L131.919 102.137C131.703 99.7327 132.48 97.302 134.05 95.4682L155.844 70.0155C158.894 66.4523 164.082 65.8101 167.91 68.5216L195.206 87.8551C197.433 89.4323 209.412 98.3829 209.591 101.105L203.899 169.246L216.244 183.855L216.27 183.886L219.428 200.099L162.967 200.878Z" fill="#E6E6E6"/>
<path d="M158.325 93.0459L157.968 88.4488C157.874 87.2353 158.785 86.1715 159.999 86.0773L166.46 85.576C167.674 85.4819 168.738 86.3925 168.832 87.6059L169.189 92.203C169.283 93.4165 168.372 94.4803 167.159 94.5745L160.698 95.0758C159.484 95.1699 158.42 94.2593 158.325 93.0459Z" fill="#FF8063"/>
<path d="M147.438 129.789L146.118 112.78C146.024 111.567 146.935 110.503 148.149 110.409L157.713 109.667C158.927 109.573 159.991 110.483 160.086 111.697L161.406 128.706C161.5 129.919 160.589 130.983 159.376 131.077L149.811 131.819C148.597 131.913 147.533 131.003 147.438 129.789Z" fill="#3F3D56"/>
<path d="M169.008 147.927C168.564 148.338 168.347 148.919 168.412 149.52L170.171 165.922C170.278 166.913 171.141 167.656 172.137 167.614C172.661 167.595 173.132 167.366 173.476 166.978C173.821 166.59 173.988 166.091 173.948 165.573L172.682 149.262C172.616 148.407 171.98 147.701 171.136 147.545L170.643 147.453C170.476 147.423 170.308 147.414 170.144 147.427C169.725 147.459 169.327 147.631 169.008 147.927Z" fill="#3F3D56"/>
<path d="M142.773 169.585C142.307 169.2 142.025 168.656 141.978 168.053L140.712 151.742C140.634 150.747 141.239 149.821 142.181 149.489L142.655 149.323C143.318 149.09 144.035 149.181 144.62 149.574C145.204 149.967 145.559 150.596 145.592 151.299L146.385 167.776C146.441 168.935 145.581 169.945 144.428 170.076C144.402 170.079 144.375 170.081 144.348 170.083C143.775 170.128 143.219 169.952 142.773 169.585Z" fill="#3F3D56"/>
<path d="M204.194 174.883L211.948 186.464L213.788 200.023L219.24 199.946L216.125 183.955L203.747 169.308C202.917 171.118 203.086 173.229 204.194 174.883Z" fill="#CCCCCC"/>
<path d="M213.267 196.142L191.176 198.16L191.204 198.47L213.296 196.452L213.267 196.142Z" fill="#3F3D56"/>
<path d="M211.713 193.507L190.758 195.298L190.784 195.608L211.74 193.817L211.713 193.507Z" fill="#3F3D56"/>
<path d="M210.408 190.793L190.381 192.741L190.411 193.051L210.438 191.103L210.408 190.793Z" fill="#3F3D56"/>
<path d="M209.569 188.059L190.357 190.192L190.391 190.502L209.603 188.368L209.569 188.059Z" fill="#3F3D56"/>
<path d="M208.445 185.653L189.99 187.739L190.025 188.049L208.48 185.963L208.445 185.653Z" fill="#3F3D56"/>
<path d="M207.039 183.567L189.015 184.966L189.039 185.276L207.064 183.878L207.039 183.567Z" fill="#3F3D56"/>
<path d="M205.937 181.463L188.436 183.027L188.464 183.337L205.965 181.773L205.937 181.463Z" fill="#3F3D56"/>
<path d="M204.834 179.365L187.904 181.245L187.939 181.555L204.869 179.674L204.834 179.365Z" fill="#3F3D56"/>
<path d="M204.049 177.253L187.31 178.848L187.34 179.158L204.078 177.563L204.049 177.253Z" fill="#3F3D56"/>
<path d="M202.638 175.2L186.628 176.946L186.661 177.256L202.671 175.509L202.638 175.2Z" fill="#3F3D56"/>
<path d="M201.874 173.355L185.978 174.744L186.005 175.054L201.901 173.665L201.874 173.355Z" fill="#3F3D56"/>
<path d="M184.307 168.29L182.674 147.248C182.58 146.034 183.491 144.97 184.704 144.876L194.89 144.086C196.104 143.992 197.168 144.902 197.262 146.116L198.896 167.158C198.99 168.372 198.079 169.436 196.865 169.53L186.68 170.32C185.466 170.414 184.402 169.504 184.307 168.29Z" fill="#FF8063"/>
<path d="M162.968 200.877L144.848 201.128L144.702 201.13L143.619 187.18C143.482 185.416 144.806 183.869 146.571 183.732L164.381 182.351C166.145 182.214 167.692 183.538 167.829 185.302L169.002 200.409L168.847 200.422L162.968 200.877Z" fill="#CCCCCC"/>
<path d="M182.586 130.027L181.338 113.949C181.244 112.736 182.155 111.672 183.369 111.578L186.726 111.317C187.939 111.223 189.004 112.134 189.098 113.347L190.346 129.425C190.44 130.639 189.529 131.702 188.316 131.797L184.958 132.057C183.745 132.151 182.68 131.241 182.586 130.027Z" fill="#3F3D56"/>
<path d="M191.471 200.227L189.48 186.647L185.675 173.831L184.622 170.323C182.943 169.363 180.889 170.735 181.135 172.653L181.329 174.168L185.134 186.984L187.125 200.565" fill="#CCCCCC"/>
<path d="M317.992 198.652L34.159 202.33L34.1671 202.953L318 199.274L317.992 198.652Z" fill="#CCCCCC"/>
<path d="M128.975 107.148C135.996 107.148 141.688 101.459 141.688 94.4399C141.688 87.4212 135.996 81.7314 128.975 81.7314C121.954 81.7314 116.263 87.4212 116.263 94.4399C116.263 101.459 121.954 107.148 128.975 107.148Z" fill="#FF8063"/>
<path d="M137.225 81.0511C136.483 80.6171 135.351 80.8424 134.943 81.6494C133.333 84.834 132.159 88.1676 131.394 91.6187C130.173 90.1144 128.953 88.6101 127.732 87.1057C127.164 86.4058 125.963 86.5154 125.373 87.1057C124.68 87.7977 124.803 88.7625 125.373 89.4642C127.316 91.8588 129.259 94.2535 131.202 96.6481C131.613 97.1538 132.474 97.2347 133.025 96.9929C133.689 96.7011 133.96 96.162 134.05 95.4688C134.601 91.2576 135.909 87.1194 137.824 83.3328C138.23 82.5293 138.036 81.5251 137.225 81.0511Z" fill="white"/>
<path d="M135.969 122.318C141.675 123.68 147.003 121.841 147.869 118.21C148.735 114.58 144.812 110.534 139.104 109.173C136.831 108.598 134.454 108.575 132.171 109.107L107.921 103.643L105.599 115.073L129.751 119.246C131.548 120.752 133.681 121.806 135.969 122.318Z" fill="#FFB6B6"/>
<path d="M109.756 59.2739L105.752 55.9385C105.752 55.9385 97.7447 59.941 96.4101 63.2764C95.0755 66.6117 87.0681 98.6316 87.0681 98.6316C87.0681 98.6316 85.4971 116.18 89.619 118.413C93.741 120.645 119.765 119.311 119.765 119.311L121.767 105.969L111.09 101.967L109.756 59.2739Z" fill="#FF8063"/>
<path d="M269.441 246.119C268.877 245.169 266.44 246.186 265.992 245.324C265.546 244.465 267.81 243.157 269.104 240.168C269.337 239.628 270.807 236.232 269.719 235.183C267.656 233.197 258.215 241.396 254.911 238.712C254.186 238.124 253.68 236.948 251.485 235.04C250.612 234.28 250.084 233.938 249.574 234.065C248.849 234.246 248.791 235.216 248.014 237.123C246.848 239.983 246.159 239.81 245.479 242.092C244.975 243.786 245.09 244.771 244.497 244.963C243.657 245.234 242.885 243.437 241.821 243.598C240.735 243.762 240.078 245.854 239.871 247.421C239.482 250.36 240.562 252.299 241.16 254.339C241.81 256.555 242.196 259.925 240.694 264.697L225.829 306.567C229.111 297.975 238.613 274.423 242.606 265.671C243.759 263.145 245.032 260.582 247.645 259.571C250.161 258.597 253.616 259.178 258.021 258.117C258.536 257.994 259.964 257.63 260.143 256.791C260.292 256.097 259.452 255.71 259.581 255.06C259.754 254.188 261.406 254.177 263.435 253.171C264.866 252.462 265.757 251.618 266.524 250.893C266.755 250.674 270.191 247.383 269.441 246.119Z" fill="#F2F2F2"/>
<path d="M210.956 268.161C210.327 268.163 210.123 269.653 209.571 269.624C209.02 269.595 209.031 268.106 207.937 266.609C207.74 266.339 206.496 264.638 205.668 264.869C204.097 265.308 205.398 272.306 203.128 273.153C202.63 273.339 201.906 273.248 200.336 273.774C199.711 273.983 199.391 274.144 199.306 274.431C199.186 274.839 199.645 275.147 200.357 276.079C201.425 277.476 201.141 277.764 202.066 278.756C202.752 279.492 203.269 279.72 203.191 280.066C203.083 280.556 201.977 280.417 201.749 280.986C201.517 281.566 202.354 282.491 203.064 283.045C204.394 284.084 205.658 284.114 206.832 284.409C208.108 284.729 209.874 285.512 211.783 287.626L228.051 307C224.779 302.911 215.958 291.453 212.813 286.969C211.905 285.674 211.014 284.311 211.272 282.736C211.52 281.221 212.802 279.693 213.552 277.226C213.64 276.938 213.874 276.132 213.513 275.802C213.215 275.529 212.783 275.829 212.501 275.578C212.123 275.242 212.594 274.428 212.686 273.143C212.75 272.236 212.593 271.555 212.459 270.97C212.418 270.793 211.793 268.158 210.956 268.161Z" fill="#F2F2F2"/>
<path d="M223.501 270.976L223.122 267.595L223.295 267.339C224.096 266.154 224.504 264.996 224.509 263.898C224.51 263.723 224.502 263.548 224.494 263.37C224.461 262.665 224.42 261.788 224.878 260.766C225.134 260.197 225.854 258.878 226.937 259.041C227.228 259.082 227.449 259.216 227.616 259.372C227.641 259.333 227.666 259.294 227.693 259.252C228.03 258.737 228.297 258.517 228.554 258.305C228.752 258.141 228.956 257.973 229.276 257.575C229.416 257.4 229.526 257.247 229.618 257.118C229.898 256.728 230.264 256.262 230.909 256.271C231.598 256.303 231.959 256.873 232.198 257.25C232.625 257.923 232.819 258.408 232.947 258.729C232.994 258.847 233.047 258.979 233.074 259.02C233.296 259.346 235.101 259.041 235.781 258.93C237.309 258.675 238.631 258.455 239.175 259.418C239.566 260.107 239.276 261.018 238.288 262.198C237.98 262.565 237.653 262.845 237.362 263.063C237.603 263.207 237.818 263.427 237.906 263.774C238.111 264.593 237.407 265.414 235.812 266.217C235.416 266.418 234.883 266.686 234.136 266.815C233.784 266.875 233.467 266.89 233.196 266.898C233.19 267.055 233.154 267.225 233.058 267.399C232.778 267.913 232.195 268.158 231.316 268.1C230.35 268.049 229.554 267.865 228.851 267.703C228.238 267.563 227.71 267.443 227.295 267.471C226.526 267.533 225.933 268.149 225.238 268.947L223.501 270.976Z" fill="#F2F2F2"/>
<path d="M225.258 250.846L222.083 252.07L221.791 251.968C220.441 251.494 219.218 251.393 218.154 251.667C217.984 251.71 217.817 251.762 217.647 251.815C216.973 252.026 216.135 252.288 215.03 252.105C214.414 252.001 212.955 251.639 212.839 250.551C212.804 250.259 212.878 250.012 212.987 249.81C212.943 249.796 212.898 249.782 212.851 249.767C212.267 249.571 211.986 249.369 211.716 249.174C211.508 249.024 211.293 248.869 210.827 248.661C210.622 248.569 210.446 248.502 210.298 248.446C209.849 248.274 209.306 248.038 209.15 247.413C209.007 246.738 209.467 246.244 209.771 245.917C210.314 245.334 210.734 245.024 211.012 244.818C211.114 244.743 211.229 244.659 211.261 244.622C211.521 244.325 210.768 242.656 210.488 242.027C209.854 240.614 209.305 239.392 210.099 238.621C210.667 238.069 211.622 238.118 213.014 238.774C213.448 238.978 213.801 239.224 214.086 239.45C214.164 239.181 214.323 238.916 214.636 238.744C215.376 238.337 216.35 238.81 217.531 240.148C217.826 240.48 218.22 240.928 218.535 241.618C218.682 241.943 218.777 242.245 218.853 242.505C219.007 242.471 219.18 242.464 219.373 242.512C219.942 242.652 220.327 243.154 220.493 244.018C220.689 244.966 220.713 245.782 220.734 246.502C220.754 247.131 220.773 247.672 220.905 248.066C221.16 248.794 221.906 249.211 222.855 249.681L225.258 250.846Z" fill="#F2F2F2"/>
<path d="M223.501 240.886L223.122 237.505L223.295 237.249C224.096 236.064 224.504 234.906 224.509 233.808C224.51 233.633 224.502 233.458 224.494 233.28C224.461 232.575 224.42 231.699 224.878 230.677C225.134 230.107 225.854 228.788 226.937 228.951C227.228 228.992 227.449 229.126 227.616 229.282C227.641 229.243 227.666 229.204 227.693 229.162C228.03 228.647 228.297 228.427 228.554 228.215C228.752 228.052 228.956 227.883 229.276 227.485C229.416 227.31 229.526 227.157 229.618 227.028C229.898 226.638 230.264 226.173 230.909 226.181C231.598 226.213 231.959 226.783 232.198 227.16C232.625 227.833 232.819 228.318 232.947 228.639C232.994 228.757 233.047 228.889 233.074 228.93C233.296 229.256 235.101 228.951 235.781 228.84C237.309 228.585 238.631 228.365 239.175 229.328C239.566 230.017 239.276 230.928 238.288 232.108C237.98 232.476 237.653 232.755 237.362 232.974C237.603 233.117 237.818 233.338 237.906 233.684C238.111 234.503 237.407 235.324 235.812 236.127C235.416 236.328 234.883 236.596 234.136 236.725C233.784 236.785 233.467 236.8 233.196 236.808C233.19 236.965 233.154 237.135 233.058 237.309C232.778 237.824 232.195 238.069 231.316 238.01C230.35 237.959 229.554 237.775 228.851 237.613C228.238 237.473 227.71 237.353 227.295 237.381C226.526 237.443 225.933 238.059 225.238 238.857L223.501 240.886Z" fill="#F2F2F2"/>
<path d="M226.961 306.512L226.253 306.068L225.426 306.163C225.413 306.086 225.368 305.91 225.301 305.634C224.931 304.122 223.803 299.522 222.862 292.277C222.206 287.22 221.834 282.02 221.758 276.821C221.681 271.613 221.928 267.671 222.125 264.502C222.275 262.112 222.456 259.836 222.634 257.619C223.107 251.697 223.554 246.102 223.222 239.909C223.148 238.526 222.994 235.648 221.312 232.585C220.336 230.809 218.992 229.232 217.317 227.9L218.359 226.591C220.208 228.063 221.695 229.81 222.778 231.782C224.643 235.178 224.811 238.314 224.892 239.82C225.23 246.123 224.779 251.772 224.3 257.752C224.124 259.96 223.943 262.226 223.794 264.606C223.598 267.746 223.354 271.654 223.43 276.795C223.505 281.932 223.872 287.068 224.52 292.062C225.449 299.215 226.56 303.747 226.925 305.236C227.12 306.031 227.161 306.197 226.961 306.512Z" fill="#F2F2F2"/>
<path d="M214.25 230.556C214.181 230.556 214.112 230.554 214.042 230.549C212.618 230.472 211.299 229.62 210.122 228.017C209.57 227.263 209.287 226.403 208.724 224.687C208.637 224.422 208.212 223.081 207.954 221.234C207.785 220.028 207.806 219.523 208.045 219.078C208.311 218.581 208.74 218.235 209.224 218.002C209.202 217.842 209.22 217.677 209.289 217.509C209.574 216.812 210.332 216.903 210.742 216.947C210.949 216.973 211.208 217.008 211.487 216.993C211.926 216.972 212.162 216.841 212.52 216.645C212.862 216.458 213.287 216.224 213.919 216.095C215.163 215.836 216.206 216.188 216.549 216.304C218.358 216.907 219.249 218.312 220.281 219.94C220.487 220.266 221.194 221.455 221.66 223.084C221.996 224.259 221.949 224.782 221.848 225.17C221.642 225.968 221.156 226.426 219.922 227.434C218.634 228.491 217.987 229.02 217.432 229.341C216.139 230.087 215.328 230.556 214.25 230.556Z" fill="#F2F2F2"/>
<path d="M285.627 305.752C285.627 306.061 285.376 306.312 285.066 306.312H0.560543C0.250968 306.312 0 306.061 0 305.752C0 305.442 0.250961 305.191 0.560543 305.191H285.066C285.376 305.191 285.627 305.442 285.627 305.752Z" fill="#E6E6E6"/>
</g>
<defs>
<clipPath id="clip0_154_4854">
<rect width="318" height="307" fill="white"/>
</clipPath>
</defs>
</svg>
