<svg width="664" height="339" viewBox="0 0 664 339" fill="none" xmlns="http://www.w3.org/2000/svg">
<g clip-path="url(#clip0_154_4952)">
<path d="M459.393 298.51L451.663 310.656L456.166 294.844C446.659 284.93 433.499 277.678 433.499 277.678C433.499 277.678 417.293 304.296 421.655 320.67C426.017 337.044 437.279 340.169 449.294 336.973C461.308 333.776 469.524 325.467 465.163 309.094C464.192 305.449 462.083 301.871 459.393 298.51Z" fill="#F2F2F2"/>
<path d="M449.166 311.867L449.381 312.674C451.832 322.068 452.199 329.809 450.465 335.79C450.442 335.878 450.413 335.962 450.389 336.05L449.985 335.931L449.598 335.811C451.561 329.328 450.685 321.137 448.549 312.942C448.483 312.678 448.415 312.409 448.34 312.142C447.405 308.681 446.26 305.234 445.014 301.92C444.919 301.663 444.82 301.402 444.721 301.142C443.053 296.777 441.23 292.666 439.541 289.124C439.423 288.873 439.301 288.623 439.18 288.377C436.297 282.392 433.853 278.152 433.304 277.215C433.239 277.1 433.201 277.038 433.193 277.023L433.544 276.814L433.547 276.809L433.902 276.599C433.91 276.614 434.039 276.823 434.263 277.217C435.113 278.685 437.368 282.685 439.969 288.06C440.085 288.303 440.207 288.553 440.325 288.804C441.699 291.677 443.155 294.91 444.54 298.341C444.889 299.202 445.223 300.054 445.542 300.898C445.645 301.157 445.744 301.417 445.839 301.675C447.187 305.257 448.296 308.654 449.166 311.867Z" fill="white"/>
<path d="M439.969 288.06C439.71 288.167 439.448 288.275 439.18 288.377C438.451 288.653 437.709 288.892 436.956 289.093C433.748 289.951 430.388 290.079 427.123 289.467C427.012 289.723 426.9 289.98 426.786 290.241C430.228 290.917 433.78 290.797 437.169 289.892C437.973 289.678 438.765 289.421 439.541 289.124C439.806 289.023 440.068 288.915 440.325 288.804C442.452 287.899 444.428 286.676 446.188 285.177C445.957 285.003 445.732 284.832 445.511 284.664C443.841 286.063 441.974 287.207 439.969 288.06Z" fill="white"/>
<path d="M445.542 300.898C445.27 300.988 444.996 301.069 444.721 301.142C444.638 301.169 444.55 301.192 444.466 301.214C440.988 302.14 437.338 302.211 433.827 301.422C430.316 300.633 427.048 299.007 424.302 296.683C424.205 296.961 424.108 297.239 424.016 297.521C426.855 299.856 430.21 301.482 433.804 302.263C437.397 303.044 441.125 302.959 444.679 302.014C444.791 301.984 444.903 301.954 445.013 301.92C445.292 301.842 445.566 301.76 445.839 301.675C450.049 300.321 453.78 297.783 456.585 294.366C456.394 294.164 456.204 293.962 456.009 293.762C453.289 297.108 449.651 299.588 445.542 300.898Z" fill="white"/>
<path d="M449.166 311.867C448.892 311.965 448.617 312.056 448.34 312.142C448.044 312.234 447.746 312.321 447.446 312.401C442.772 313.639 437.822 313.331 433.338 311.522C428.853 309.713 425.076 306.501 422.571 302.367C422.477 302.739 422.383 303.106 422.297 303.476C424.965 307.555 428.852 310.69 433.405 312.436C437.958 314.182 442.945 314.449 447.659 313.2C447.959 313.121 448.257 313.037 448.549 312.942C448.831 312.859 449.106 312.768 449.381 312.674C454.916 310.728 459.504 306.752 462.216 301.553C462.053 301.279 461.88 301.013 461.705 300.743C459.131 305.939 454.634 309.929 449.166 311.867Z" fill="white"/>
<path d="M419.567 21.9112L411.837 34.0571L416.34 18.2453C406.833 8.33145 393.672 1.0791 393.672 1.0791C393.672 1.0791 377.467 27.6973 381.829 44.0711C386.19 60.445 397.453 63.5706 409.467 60.3739C421.482 57.1772 429.698 48.8687 425.337 32.4949C424.366 28.8504 422.257 25.2725 419.567 21.9112Z" fill="#F2F2F2"/>
<path d="M409.34 35.2683L409.555 36.0754C412.006 45.4696 412.372 53.2106 410.639 59.1912C410.615 59.2789 410.587 59.3635 410.563 59.4512L410.159 59.332L409.771 59.2125C411.735 52.7298 410.859 44.5383 408.723 36.3438C408.657 36.079 408.589 35.8103 408.514 35.5436C407.579 32.0827 406.434 28.6351 405.187 25.3213C405.093 25.064 404.994 24.8037 404.895 24.5434C403.227 20.178 401.404 16.0677 399.715 12.525C399.597 12.274 399.475 12.0242 399.354 11.7783C396.471 5.79357 394.027 1.55328 393.478 0.616871C393.413 0.501509 393.375 0.438921 393.366 0.424012L393.718 0.215073L393.72 0.210009L394.076 0C394.084 0.0149296 394.212 0.224601 394.437 0.618343C395.286 2.08672 397.542 6.08617 400.143 11.4614C400.259 11.7043 400.381 11.9542 400.499 12.2052C401.872 15.0787 403.329 18.3111 404.713 21.742C405.063 22.6033 405.397 23.4557 405.716 24.2993C405.819 24.5585 405.918 24.8187 406.013 25.076C407.361 28.6581 408.47 32.0555 409.34 35.2683Z" fill="white"/>
<path d="M400.142 11.4614C399.884 11.5687 399.622 11.6769 399.354 11.7783C398.625 12.0546 397.883 12.2936 397.13 12.494C393.921 13.3522 390.561 13.4801 387.297 12.8682C387.186 13.1246 387.074 13.3811 386.96 13.6426C390.402 14.3182 393.953 14.1987 397.342 13.2931C398.146 13.079 398.938 12.8226 399.715 12.5249C399.98 12.4246 400.242 12.3163 400.499 12.2051C402.626 11.2999 404.602 10.0771 406.361 8.57868C406.131 8.40467 405.906 8.23358 405.685 8.06543C404.015 9.46402 402.147 10.6084 400.142 11.4614Z" fill="white"/>
<path d="M405.716 24.2995C405.444 24.3889 405.17 24.4703 404.894 24.5437C404.812 24.57 404.724 24.5934 404.64 24.6158C401.162 25.5411 397.512 25.6123 394.001 24.8233C390.49 24.0342 387.222 22.4084 384.476 20.0843C384.379 20.3625 384.281 20.6409 384.189 20.922C387.029 23.2575 390.384 24.8832 393.978 25.6645C397.571 26.4458 401.299 26.3603 404.853 25.4149C404.965 25.3851 405.076 25.3553 405.187 25.3215C405.466 25.2431 405.74 25.1617 406.012 25.0763C410.223 23.7221 413.954 21.1845 416.759 17.7671C416.568 17.5654 416.378 17.3637 416.183 17.1631C413.463 20.5091 409.825 22.9893 405.716 24.2995Z" fill="white"/>
<path d="M409.34 35.268C409.066 35.3664 408.791 35.4569 408.514 35.5433C408.217 35.6351 407.92 35.7229 407.62 35.8026C402.945 37.0406 397.996 36.732 393.511 34.9232C389.027 33.1143 385.25 29.9025 382.745 25.7685C382.651 26.14 382.556 26.5076 382.471 26.8769C385.139 30.9563 389.026 34.0915 393.579 35.8373C398.132 37.5831 403.119 37.8505 407.833 36.6017C408.133 36.522 408.431 36.4382 408.723 36.3435C409.005 36.26 409.28 36.1695 409.555 36.0751C415.089 34.1292 419.678 30.1539 422.39 24.9541C422.227 24.6808 422.053 24.4147 421.879 24.1445C419.305 29.3409 414.808 33.3308 409.34 35.268Z" fill="white"/>
<path d="M207 318.898L192.597 318.963L208.341 314.203C211.549 300.85 210.54 285.864 210.54 285.864C210.54 285.864 179.373 286.625 167.947 299.143C156.521 311.661 159.977 322.821 169.162 331.195C178.347 339.569 189.782 341.988 201.209 329.47C203.752 326.684 205.624 322.976 207 318.898Z" fill="#F2F2F2"/>
<path d="M190.228 317.518L189.665 318.135C183.081 325.274 176.763 329.766 170.791 331.541C170.705 331.569 170.618 331.59 170.531 331.617L170.413 331.213L170.304 330.823C176.823 328.97 183.245 323.806 188.989 317.58C189.176 317.382 189.366 317.18 189.55 316.972C191.958 314.316 194.241 311.489 196.357 308.65C196.523 308.431 196.688 308.207 196.853 307.983C199.627 304.221 202.102 300.467 204.171 297.132C204.319 296.897 204.463 296.659 204.604 296.424C208.084 290.765 210.333 286.419 210.824 285.451C210.886 285.334 210.919 285.268 210.927 285.253L211.292 285.435L211.298 285.435L211.667 285.62C211.659 285.635 211.552 285.856 211.342 286.258C210.565 287.766 208.417 291.824 205.298 296.916C205.156 297.145 205.012 297.383 204.864 297.618C203.188 300.326 201.254 303.298 199.114 306.317C198.578 307.076 198.041 307.818 197.503 308.542C197.34 308.769 197.175 308.993 197.009 309.211C194.723 312.281 192.462 315.05 190.228 317.518Z" fill="white"/>
<path d="M205.298 296.917C205.068 296.757 204.835 296.595 204.604 296.425C203.978 295.961 203.376 295.466 202.8 294.941C200.343 292.708 198.419 289.951 197.17 286.876C196.894 286.921 196.618 286.966 196.336 287.011C197.628 290.271 199.648 293.192 202.242 295.552C202.857 296.113 203.501 296.64 204.171 297.132C204.399 297.3 204.632 297.462 204.864 297.618C206.776 298.917 208.873 299.918 211.086 300.588C211.108 300.3 211.13 300.018 211.152 299.742C209.072 299.093 207.099 298.141 205.298 296.917Z" fill="white"/>
<path d="M197.503 308.541C197.281 308.361 197.064 308.175 196.853 307.983C196.786 307.927 196.719 307.866 196.655 307.808C193.996 305.384 191.964 302.353 190.73 298.974C189.497 295.596 189.099 291.969 189.571 288.403C189.284 288.472 188.997 288.541 188.711 288.615C188.28 292.265 188.725 295.965 190.009 299.409C191.294 302.853 193.381 305.941 196.097 308.419C196.183 308.497 196.269 308.575 196.357 308.65C196.574 308.842 196.79 309.028 197.009 309.211C200.425 312.019 204.578 313.785 208.971 314.296C209.038 314.027 209.105 313.758 209.168 313.485C204.881 313.007 200.827 311.289 197.503 308.541Z" fill="white"/>
<path d="M190.228 317.517C189.997 317.341 189.772 317.158 189.55 316.972C189.312 316.772 189.077 316.569 188.848 316.36C185.279 313.099 182.864 308.77 181.963 304.022C181.062 299.273 181.724 294.361 183.85 290.021C183.486 290.143 183.126 290.261 182.769 290.389C180.777 294.838 180.238 299.8 181.229 304.572C182.221 309.344 184.691 313.683 188.29 316.971C188.52 317.18 188.752 317.386 188.989 317.58C189.212 317.772 189.437 317.955 189.665 318.134C194.294 321.736 200.121 323.446 205.964 322.916C206.106 322.631 206.236 322.341 206.369 322.048C200.604 322.693 194.814 321.068 190.228 317.517Z" fill="white"/>
<path d="M159.184 330.193L167.46 330.192L171.396 298.29L159.182 298.291L159.184 330.193Z" fill="#FFB6B6"/>
<path d="M157.073 327.492L173.371 327.491H173.371C176.126 327.491 178.767 328.585 180.715 330.532C182.663 332.478 183.757 335.118 183.757 337.871V338.209L157.073 338.21L157.073 327.492Z" fill="#2F2E41"/>
<path d="M93.7069 330.193L101.983 330.192L105.919 298.29L93.7055 298.291L93.7069 330.193Z" fill="#FFB6B6"/>
<path d="M91.5961 327.492L107.894 327.491H107.894C110.649 327.491 113.291 328.585 115.238 330.532C117.186 332.478 118.28 335.118 118.281 337.871V338.209L91.5966 338.21L91.5961 327.492Z" fill="#2F2E41"/>
<path d="M107.742 199.151L102.164 204.282L95.8777 266.264L91.646 315.618L104.434 317.342L135.453 233.014L158.149 316.942L173.45 317.342L163.295 207.787L107.742 199.151Z" fill="#2F2E41"/>
<path d="M134.696 107.5C143.47 107.5 150.583 100.391 150.583 91.6215C150.583 82.8521 143.47 75.7432 134.696 75.7432C125.922 75.7432 118.809 82.8521 118.809 91.6215C118.809 100.391 125.922 107.5 134.696 107.5Z" fill="#FFB9B9"/>
<path d="M126.565 84.2481C126.565 84.2481 124.671 88.3448 132.248 86.7061C132.248 86.7061 135.089 88.3448 135.089 85.8868C135.089 85.8868 138.877 89.9834 139.824 87.5254C140.771 85.0674 142.665 88.3448 142.665 88.3448L144.559 84.2481L146.453 86.7061H153.083C153.083 86.7061 154.977 70.3193 132.248 71.958C109.518 73.5966 120.7 99.5599 120.7 99.5599C120.7 99.5599 120.883 94.8995 122.777 97.3575C124.671 99.8156 126.565 84.2481 126.565 84.2481Z" fill="#2F2E41"/>
<path d="M146.801 112.682L124.398 111.28L104.434 116.573L107.46 167.988L102.165 204.282C102.165 204.282 131.22 222.033 164.201 208.062L161.069 199.826C161.069 199.826 160.961 187.22 158.315 184.753C155.668 182.286 155.879 161.94 155.879 161.94L165.714 124.134L146.801 112.682Z" fill="#3F3D56"/>
<path d="M109.767 118.196L104.434 116.573C104.434 116.573 96.1286 116.85 91.81 126.293C87.4915 135.736 84.7914 149.229 84.7914 149.229L112.22 150.22L109.767 118.196Z" fill="#3F3D56"/>
<path d="M173.432 208.33L172.544 152.602L160.694 154.378L163.311 207.177C162.234 208.061 161.441 209.242 161.031 210.574C160.622 211.905 160.614 213.328 161.008 214.664C161.403 216 162.182 217.19 163.249 218.086C164.317 218.982 165.624 219.544 167.009 219.702C168.394 219.86 169.794 219.606 171.036 218.973C172.278 218.34 173.305 217.356 173.99 216.143C174.675 214.93 174.988 213.542 174.888 212.152C174.789 210.763 174.283 209.433 173.432 208.33Z" fill="#FFB9B9"/>
<path d="M159.044 128.989L165.714 124.134C165.714 124.134 178.532 134.153 178.576 156.195L160.694 160.53L150.583 145.996L159.044 128.989Z" fill="#3F3D56"/>
<path d="M518.799 330.16L527.075 330.16L531.011 298.258L518.798 298.258L518.799 330.16Z" fill="#9E616A"/>
<path d="M516.688 327.461L532.986 327.46C535.74 327.46 538.383 328.554 540.331 330.5C542.278 332.447 543.373 335.087 543.373 337.84V338.177L516.689 338.178L516.688 327.461Z" fill="#2F2E41"/>
<path d="M469.817 323.127L477.707 325.622L491.088 296.392L479.443 292.711L469.817 323.127Z" fill="#9E616A"/>
<path d="M468.619 319.916L484.158 324.828C486.784 325.659 488.973 327.498 490.243 329.941C491.513 332.384 491.759 335.231 490.929 337.856L490.827 338.177L465.385 330.135L468.619 319.916Z" fill="#2F2E41"/>
<path d="M488.45 184.461L483.858 197.406L483.728 267.289L470.705 315.135L486.691 319.594L504.351 274.479L510.015 234.853L517.479 274.71L516.452 322.083H533.225L534.491 249.081C534.847 228.578 531.257 208.199 523.918 189.051L488.45 184.461Z" fill="#2F2E41"/>
<path d="M482.981 132.025H510.093L521.421 143.348L524.806 190.148L483.858 196.733L470.705 152.079L477.868 133.101L482.981 132.025Z" fill="#FF8063"/>
<path d="M473.231 152.526L431.488 136.83L430.401 130.341L456.727 108.078L465.489 114.646L449.607 132.025L477.868 133.102L473.231 152.526Z" fill="#FF8063"/>
<path d="M461.79 117.183C465.518 117.183 468.54 114.163 468.54 110.437C468.54 106.711 465.518 103.69 461.79 103.69C458.062 103.69 455.04 106.711 455.04 110.437C455.04 114.163 458.062 117.183 461.79 117.183Z" fill="#9E616A"/>
<path d="M477.445 118.936L480.495 105.19C481.583 100.308 484.565 96.0583 488.787 93.3734C493.008 90.6886 498.124 89.7887 503.009 90.8714C507.894 91.9542 512.15 94.931 514.84 99.1478C517.53 103.365 518.435 108.476 517.356 113.36L514.306 127.106C514.16 127.762 513.759 128.333 513.192 128.694C512.625 129.055 511.938 129.176 511.281 129.032L479.371 121.959C478.715 121.813 478.144 121.413 477.783 120.846C477.421 120.279 477.3 119.592 477.445 118.936Z" fill="#2F2E41"/>
<path d="M494.607 124.664C502.251 124.664 508.448 118.471 508.448 110.831C508.448 103.191 502.251 96.998 494.607 96.998C486.963 96.998 480.766 103.191 480.766 110.831C480.766 118.471 486.963 124.664 494.607 124.664Z" fill="#9E616A"/>
<path d="M475.891 105.323C476.752 101.461 479.112 98.0982 482.451 95.9724C485.79 93.8465 489.837 93.1313 493.703 93.9836L496.454 94.5933C500.319 95.4544 503.684 97.8124 505.811 101.15C507.938 104.487 508.653 108.532 507.801 112.396L507.74 112.671L501.926 111.382L501.175 105.394L499.547 110.855L496.542 110.189L496.163 107.168L495.342 109.923L475.83 105.598L475.891 105.323Z" fill="#2F2E41"/>
<path d="M489.866 125.907C489.675 125.477 489.61 125.002 489.677 124.537C489.744 124.071 489.942 123.634 490.247 123.276C494.391 118.381 500.745 109.046 496.729 101.53L496.44 100.99L512.168 104.476L506.931 128.076L492.085 127.429C491.934 127.422 491.785 127.402 491.638 127.37C491.248 127.284 490.884 127.106 490.576 126.852C490.268 126.597 490.025 126.274 489.866 125.907Z" fill="#2F2E41"/>
<path d="M663.196 339H0.80374C0.59098 338.999 0.387143 338.915 0.236917 338.764C0.0866898 338.613 0.00233459 338.409 0.00233459 338.197C0.00233459 337.984 0.0866898 337.78 0.236917 337.63C0.387143 337.479 0.59098 337.394 0.80374 337.394H663.196C663.41 337.394 663.614 337.478 663.765 337.629C663.915 337.779 664 337.984 664 338.197C664 338.41 663.915 338.614 663.765 338.765C663.614 338.915 663.41 339 663.196 339Z" fill="#CACACA"/>
<path d="M334.782 140.135H120.588C118.962 140.135 117.352 140.455 115.85 141.077C114.348 141.699 112.983 142.61 111.833 143.759C110.683 144.908 109.771 146.272 109.149 147.774C108.527 149.275 108.207 150.884 108.207 152.509V203.994C108.207 205.619 108.527 207.228 109.149 208.729C109.771 210.23 110.683 211.595 111.833 212.744C112.983 213.893 114.348 214.804 115.85 215.426C117.352 216.048 118.962 216.368 120.588 216.368H123.732V225.67C123.732 226.234 123.9 226.786 124.213 227.255C124.527 227.724 124.973 228.09 125.495 228.306C126.017 228.522 126.591 228.579 127.145 228.468C127.699 228.358 128.207 228.087 128.607 227.687L139.933 216.368H334.782C336.408 216.368 338.018 216.048 339.52 215.426C341.022 214.804 342.387 213.893 343.537 212.744C344.687 211.595 345.599 210.23 346.221 208.729C346.843 207.228 347.164 205.619 347.164 203.994V152.509C347.164 150.884 346.843 149.275 346.221 147.774C345.599 146.272 344.687 144.908 343.537 143.759C342.387 142.61 341.022 141.699 339.52 141.077C338.018 140.455 336.408 140.135 334.782 140.135Z" fill="#E6E6E6"/>
<path d="M283.268 209.959H120.588C119.006 209.957 117.489 209.328 116.37 208.21C115.251 207.091 114.621 205.575 114.619 203.993V152.509C114.621 150.928 115.251 149.411 116.37 148.293C117.489 147.175 119.006 146.546 120.588 146.544H334.782C336.364 146.546 337.882 147.175 339.001 148.293C340.12 149.412 340.749 150.928 340.751 152.51C340.734 167.741 334.672 182.343 323.895 193.113C313.119 203.884 298.508 209.942 283.268 209.959Z" fill="white"/>
<path d="M273.136 157.675H182.684C180.447 157.675 178.634 159.487 178.634 161.723V161.723C178.634 163.958 180.447 165.77 182.684 165.77H273.136C275.373 165.77 277.187 163.958 277.187 161.723C277.187 159.487 275.373 157.675 273.136 157.675Z" fill="#FF8063"/>
<path d="M292.375 173.866H163.446C161.209 173.866 159.396 175.678 159.396 177.914V177.914C159.396 180.15 161.209 181.962 163.446 181.962H292.375C294.611 181.962 296.425 180.15 296.425 177.914C296.425 175.678 294.611 173.866 292.375 173.866Z" fill="#E6E6E6"/>
<path d="M292.375 190.058H163.446C161.209 190.058 159.396 191.87 159.396 194.105V194.105C159.396 196.341 161.209 198.153 163.446 198.153H292.375C294.611 198.153 296.425 196.341 296.425 194.105C296.425 191.87 294.611 190.058 292.375 190.058Z" fill="#E6E6E6"/>
<path d="M639.943 175.982H485.046C483.87 175.982 482.706 176.214 481.62 176.664C480.533 177.113 479.546 177.772 478.715 178.603C477.883 179.434 477.224 180.421 476.774 181.507C476.324 182.592 476.092 183.756 476.092 184.931V222.163C476.092 223.338 476.324 224.502 476.774 225.587C477.224 226.673 477.883 227.66 478.715 228.491C479.546 229.322 480.533 229.981 481.62 230.43C482.706 230.88 483.87 231.112 485.046 231.112H487.32V237.838C487.32 238.246 487.441 238.645 487.668 238.985C487.895 239.324 488.217 239.589 488.594 239.745C488.972 239.901 489.387 239.942 489.788 239.862C490.188 239.783 490.556 239.586 490.845 239.297L499.035 231.112H639.943C641.119 231.112 642.284 230.88 643.37 230.43C644.456 229.981 645.443 229.322 646.275 228.491C647.106 227.66 647.766 226.673 648.216 225.587C648.666 224.502 648.897 223.338 648.897 222.163V184.931C648.897 183.756 648.666 182.592 648.216 181.507C647.766 180.421 647.106 179.434 646.275 178.603C645.443 177.772 644.456 177.113 643.37 176.664C642.284 176.214 641.119 175.982 639.943 175.982Z" fill="#E6E6E6"/>
<path d="M639.943 226.57H485.046C483.877 226.569 482.756 226.104 481.929 225.278C481.102 224.452 480.637 223.331 480.636 222.163V184.931C480.637 183.762 481.102 182.642 481.929 181.816C482.756 180.99 483.877 180.525 485.046 180.523H602.691C613.737 180.536 624.326 184.927 632.137 192.733C639.948 200.539 644.341 211.123 644.353 222.163C644.352 223.331 643.887 224.452 643.06 225.278C642.234 226.104 641.113 226.569 639.943 226.57Z" fill="white"/>
<path d="M595.364 188.667H529.951C528.334 188.667 527.023 189.978 527.023 191.594C527.023 193.211 528.334 194.521 529.951 194.521H595.364C596.981 194.521 598.292 193.211 598.292 191.594C598.292 189.978 596.981 188.667 595.364 188.667Z" fill="#FF8063"/>
<path d="M609.276 200.376H516.039C514.422 200.376 513.11 201.687 513.11 203.303C513.11 204.92 514.422 206.23 516.039 206.23H609.276C610.893 206.23 612.205 204.92 612.205 203.303C612.205 201.687 610.893 200.376 609.276 200.376Z" fill="#E6E6E6"/>
<path d="M609.276 212.084H516.039C514.422 212.084 513.11 213.395 513.11 215.011C513.11 216.628 514.422 217.938 516.039 217.938H609.276C610.893 217.938 612.205 216.628 612.205 215.011C612.205 213.395 610.893 212.084 609.276 212.084Z" fill="#E6E6E6"/>
<path d="M309.541 45.1035H464.438C465.614 45.1035 466.779 45.335 467.865 45.7847C468.951 46.2344 469.938 46.8936 470.77 47.7245C471.601 48.5555 472.261 49.542 472.711 50.6277C473.161 51.7134 473.392 52.8771 473.392 54.0523V91.2839C473.392 92.4591 473.161 93.6227 472.711 94.7085C472.261 95.7942 471.601 96.7807 470.77 97.6117C469.938 98.4426 468.951 99.1018 467.865 99.5515C466.779 100.001 465.614 100.233 464.438 100.233H462.165V106.959C462.165 107.367 462.044 107.766 461.817 108.106C461.59 108.445 461.267 108.71 460.89 108.866C460.513 109.022 460.098 109.063 459.697 108.983C459.296 108.904 458.928 108.707 458.64 108.418L450.449 100.233H309.541C308.365 100.233 307.201 100.001 306.115 99.5515C305.028 99.1018 304.041 98.4426 303.21 97.6117C302.378 96.7807 301.719 95.7942 301.269 94.7085C300.819 93.6228 300.587 92.4591 300.587 91.2839V54.0523C300.587 52.8771 300.819 51.7134 301.269 50.6277C301.719 49.542 302.378 48.5555 303.21 47.7245C304.041 46.8936 305.028 46.2344 306.115 45.7847C307.201 45.335 308.365 45.1035 309.541 45.1035Z" fill="#E6E6E6"/>
<path d="M464.438 95.692H346.794C335.749 95.6796 325.159 91.2887 317.348 83.4826C309.537 75.6766 305.144 65.0928 305.131 54.0533C305.132 52.8848 305.597 51.7644 306.424 50.9381C307.251 50.1117 308.372 49.6469 309.541 49.6455H464.438C465.608 49.6468 466.728 50.1116 467.555 50.9379C468.382 51.7642 468.847 52.8845 468.848 54.053V91.2845C468.847 92.4531 468.382 93.5734 467.555 94.3997C466.728 95.2259 465.608 95.6907 464.438 95.692Z" fill="white"/>
<path d="M354.121 63.6426L419.533 63.6426C421.151 63.6426 422.462 62.332 422.462 60.7154C422.462 59.0987 421.151 57.7881 419.533 57.7881L354.121 57.7881C352.503 57.7881 351.192 59.0987 351.192 60.7154C351.192 62.332 352.503 63.6426 354.121 63.6426Z" fill="#FF8063"/>
<path d="M340.209 75.3516L433.445 75.3516C435.063 75.3516 436.374 74.041 436.374 72.4243C436.374 70.8077 435.063 69.4971 433.445 69.4971L340.209 69.4971C338.591 69.4971 337.28 70.8077 337.28 72.4243C337.28 74.041 338.591 75.3516 340.209 75.3516Z" fill="#E6E6E6"/>
<path d="M340.209 87.0605L433.445 87.0605C435.063 87.0605 436.374 85.75 436.374 84.1333C436.374 82.5167 435.063 81.2061 433.445 81.2061L340.209 81.2061C338.591 81.2061 337.28 82.5167 337.28 84.1333C337.28 85.75 338.591 87.0605 340.209 87.0605Z" fill="#E6E6E6"/>
<path d="M131.03 139.109C131.03 137.23 130.284 135.429 128.954 134.1C127.625 132.772 125.822 132.025 123.943 132.025C122.063 132.025 120.26 132.772 118.931 134.1C117.602 135.429 116.855 137.23 116.855 139.109C116.855 139.178 116.863 139.245 116.865 139.314L104.434 151.738L105.38 149.566L91.2041 148.891L89.1362 163.849C88.955 165.23 89.2073 166.633 89.8581 167.864C90.5089 169.096 91.5262 170.095 92.7695 170.724C94.0128 171.353 95.4208 171.581 96.7991 171.375C98.1774 171.17 99.4581 170.543 100.464 169.579L124.968 146.11C126.651 145.865 128.19 145.023 129.303 143.738C130.416 142.452 131.029 140.809 131.03 139.109Z" fill="#FFB9B9"/>
<path d="M509.015 132.309L553.17 138.583L555.639 144.682L534.771 172.121L524.793 167.609L536.524 147.2L508.703 152.276L509.015 132.309Z" fill="#FF8063"/>
<path d="M528.617 179.924C532.345 179.924 535.367 176.904 535.367 173.178C535.367 169.452 532.345 166.432 528.617 166.432C524.889 166.432 521.867 169.452 521.867 173.178C521.867 176.904 524.889 179.924 528.617 179.924Z" fill="#9E616A"/>
</g>
<defs>
<clipPath id="clip0_154_4952">
<rect width="664" height="339" fill="white"/>
</clipPath>
</defs>
</svg>
