<svg width="116" height="116" viewBox="0 0 116 116" fill="none" xmlns="http://www.w3.org/2000/svg">
<path d="M64.7716 84.4316L67.5322 67.1775L48.8979 59.5858L46.1372 85.8119L64.7716 84.4316Z" fill="#A0616A"/>
<path d="M83.4996 109.931C81.8998 110.711 80.2694 111.415 78.6147 112.039C75.3052 113.292 71.8891 114.237 68.3845 114.868C64.9593 115.486 61.4425 115.8 57.9258 115.8C53.1749 115.8 48.4514 115.23 43.8833 114.102C42.0945 113.664 40.2904 113.127 38.5169 112.502C38.3309 112.436 38.142 112.369 37.9561 112.301C35.7559 111.503 33.5922 110.568 31.5109 109.51C31.2305 109.37 30.9501 109.227 30.6698 109.074C30.359 108.916 30.0512 108.748 29.7403 108.574C29.3441 108.358 28.951 108.133 28.5579 107.904C27.2415 107.142 25.9463 106.319 24.709 105.463L24.6268 105.408C24.5536 105.357 24.4805 105.308 24.4104 105.256C24.4561 105.015 24.4988 104.796 24.5384 104.601C24.6907 103.836 24.7913 103.415 24.7913 103.415L33.1351 86.179L35.4603 81.3764L36.5939 80.91L45.1572 77.3903H66.0868L72.6905 80.1208C72.6905 80.1208 72.724 80.2458 72.7911 80.4865C73.4493 82.8483 77.2891 96.2569 83.2468 109.376C83.329 109.559 83.4144 109.745 83.4996 109.931Z" fill="#FF8063"/>
<path d="M60.0625 72.7241C70.5574 72.7241 79.0651 64.2163 79.0651 53.7215C79.0651 43.2266 70.5574 34.7189 60.0625 34.7189C49.5677 34.7189 41.0599 43.2266 41.0599 53.7215C41.0599 64.2163 49.5677 72.7241 60.0625 72.7241Z" fill="#A0616A"/>
<path d="M36.6273 80.7465L36.5946 80.91L30.8011 108.456L30.751 108.695L30.6703 109.075C30.3585 108.916 30.051 108.748 29.7414 108.576C29.3446 108.358 28.9521 108.133 28.5574 107.904C27.2426 107.143 25.9474 106.319 24.7089 105.464L24.6261 105.407C24.5541 105.357 24.48 105.307 24.4102 105.257C23.4639 104.596 22.5415 103.907 21.641 103.196C21.6345 103.192 21.6301 103.188 21.6236 103.181C20.0166 101.886 18.4685 100.493 16.9879 99.0121C16.0329 98.0571 15.1149 97.0737 14.2362 96.0641L14.3692 95.5059L14.3823 95.4492L14.548 94.7384C16.022 88.5132 21.0087 83.7359 27.2906 82.5323L35.6373 80.934L36.6273 80.7465H36.6273Z" fill="#FF8063"/>
<path d="M95.8083 101.876C93.349 103.97 90.713 105.865 87.9307 107.529C87.6595 107.694 87.3821 107.855 87.1048 108.017C85.9225 108.699 84.7187 109.336 83.4997 109.931C81.8998 110.711 80.2695 111.415 78.6148 112.039L78.4868 111.436L71.944 80.325L72.7912 80.4865L81.2813 82.1138C87.5619 83.3176 92.5506 88.0959 94.0224 94.3216L95.6467 101.2L95.8083 101.876Z" fill="#FF8063"/>
<path d="M81.9456 58.8011C81.4518 60.6418 78.9682 68.8668 72.6083 70.5976C71.3589 70.939 68.3785 71.3321 69.1678 70.5976C69.3475 70.4301 69.5213 70.2655 69.695 70.1039C76.5973 63.613 79.4132 59.6454 78.1272 50.8383C77.3104 45.2309 68.0098 40.1387 62.7773 39.6328C60.571 39.4197 57.7552 40.1661 55.8963 42.0892C52.8275 45.2583 53.3334 54.9859 51.633 60.6998C51.1759 62.2295 50.5633 63.4728 49.6826 64.2255C49.1341 64.6948 48.7836 64.0975 48.5246 63.1193C47.973 61.0409 47.8298 57.2349 47.0466 58.3104C44.7824 61.428 46.9399 65.5602 47.5921 67.1541C47.7262 67.4803 47.8633 67.794 48.0004 68.0928V68.0957C48.0797 68.2663 48.1619 68.4371 48.2412 68.5987V68.6017C50.417 73.0385 53.0317 74.6262 55.3356 77.3903C56.2406 78.4721 57.097 79.7306 57.8619 81.413C58.386 82.565 58.7639 83.7229 59.023 84.8595C60.3424 90.5582 58.7761 95.7358 58.3525 97.1437C57.4657 100.075 55.942 105.113 51.4715 107.956C45.8581 111.528 40.7354 108.38 38.2853 111.771C38.2548 111.811 38.2274 111.85 38.2 111.89C38.1085 112.027 38.0263 112.164 37.9562 112.301C35.7559 111.503 33.5923 110.568 31.5109 109.51C31.2305 109.37 30.9502 109.227 30.6698 109.074C30.359 108.916 30.0512 108.748 29.7404 108.575C29.7282 108.337 29.716 108.099 29.7068 107.858C29.5271 103.735 29.7983 99.2037 30.8253 94.6844C31.4835 91.7986 32.1357 88.9369 33.1351 86.179C33.7873 84.3812 34.5857 82.6257 35.6371 80.9344C36.4782 79.5753 37.4777 78.2557 38.6906 76.988C41.3541 74.2057 43.7219 73.0448 44.0967 70.1069C44.633 65.9137 40.2661 64.6522 38.6906 58.3104C37.6149 53.9741 36.4904 47.7239 37.5813 43.5123C38.6114 39.5325 39.5073 36.0798 42.4969 32.697C43.216 31.8863 49.1189 26.2486 55.9572 25.3222C59.1082 24.8987 61.918 28.9335 65.7273 29.8019C70.1063 30.7986 72.6144 31.3685 75.0645 33.2425C79.206 36.4056 80.3731 41.1354 81.4549 45.5297C82.3021 48.9673 83.3992 53.4134 81.9456 58.8011V58.8011Z" fill="#2F2E41"/>
<path d="M99.0121 16.9879C88.0575 6.0333 73.4921 0 58 0C42.5079 0 27.9425 6.0333 16.9879 16.9879C6.0333 27.9425 0 42.5079 0 58C0 72.1402 5.02594 85.5086 14.2362 96.0641C15.1149 97.0737 16.0329 98.0571 16.9879 99.0121C18.4684 100.493 20.0165 101.886 21.6235 103.181C21.6301 103.188 21.6344 103.192 21.641 103.196C31.9131 111.493 44.6099 116 58 116C73.4921 116 88.0575 109.967 99.0121 99.0121C109.967 88.0575 116 73.4921 116 58C116 42.5079 109.967 27.9425 99.0121 16.9879V16.9879ZM95.7087 101.456C91.9867 104.694 87.8438 107.459 83.3761 109.661C81.8083 110.435 80.2014 111.14 78.5573 111.77C72.1708 114.221 65.2391 115.564 58 115.564C51.0138 115.564 44.3155 114.312 38.1165 112.023C35.5719 111.085 33.1123 109.971 30.7509 108.695C30.4042 108.508 30.0597 108.318 29.7174 108.124C27.9163 107.104 26.1741 105.99 24.5017 104.786C20.7644 102.104 17.3608 98.9859 14.3692 95.5059C5.6888 85.4235 0.43609 72.3147 0.43609 58C0.43609 26.2592 26.2592 0.43609 58 0.43609C89.7408 0.43609 115.564 26.2592 115.564 58C115.564 75.3302 107.867 90.8965 95.7087 101.456Z" fill="#CDCDCD"/>
</svg>
