<svg width="248" height="144" viewBox="0 0 248 144" fill="none" xmlns="http://www.w3.org/2000/svg">
<g clip-path="url(#clip0_37_299)">
<path d="M218.965 143.249L219.808 124.225C219.808 124.225 247.444 117.27 247.444 97.2239C247.444 77.1774 202.282 74.7227 197.732 83.9277C197.687 84.0198 197.642 84.1118 197.597 84.2038C191.977 95.7085 195.15 110.645 204.713 117.289C207.983 119.56 211.882 121.504 216.437 122.589L216.117 142.798" fill="#CCCCCC"/>
<path d="M193.333 39.3862C201.95 39.3862 208.935 30.907 208.935 20.4474C208.935 9.98776 201.95 1.50857 193.333 1.50857C184.716 1.50857 177.731 9.98776 177.731 20.4474C177.731 30.907 184.716 39.3862 193.333 39.3862Z" fill="#FF6884"/>
<path d="M170.316 138.739L152.72 137.378L151.771 41.3308C151.748 38.9995 152.514 36.7167 153.872 35.068L172.723 12.185C175.362 8.98196 179.516 8.75048 182.385 11.6479L202.842 32.3057C204.511 33.9909 205.454 36.4688 205.428 39.1039L204.725 111.336L213.617 126.327L213.636 126.358L215.142 142.208L170.316 138.739Z" fill="#E6E6E6"/>
<path d="M173.274 34.5486V30.0948C173.274 28.9192 174.062 27.9628 175.03 27.9628H180.185C181.154 27.9628 181.941 28.9192 181.941 30.0948V34.5486C181.941 35.7242 181.154 36.6806 180.185 36.6806H175.03C174.062 36.6806 173.274 35.7242 173.274 34.5486Z" fill="#FF8063"/>
<path d="M162.377 69.1194V52.641C162.377 51.4654 163.165 50.509 164.133 50.509H171.765C172.733 50.509 173.521 51.4654 173.521 52.641V69.1194C173.521 70.295 172.733 71.2515 171.765 71.2515H164.133C163.165 71.2515 162.377 70.295 162.377 69.1194Z" fill="#3F3D56"/>
<path d="M179.628 107.692C178.705 107.652 177.961 106.744 177.934 105.624L177.548 89.6965C177.532 89.0166 177.774 88.3848 178.213 87.9624C178.653 87.5402 179.215 87.3993 179.756 87.5737L180.142 87.6988C180.91 87.9474 181.446 88.7944 181.446 89.7587V105.561C181.446 106.145 181.256 106.69 180.91 107.095C180.579 107.482 180.149 107.693 179.692 107.693C179.67 107.693 179.649 107.693 179.628 107.692L179.628 107.692Z" fill="#3F3D56"/>
<path d="M156.227 107.095C155.881 106.69 155.691 106.145 155.691 105.561V89.7587C155.691 88.7944 156.227 87.9474 156.995 87.6988L157.38 87.5737C157.922 87.3993 158.484 87.5402 158.923 87.9624C159.363 88.3845 159.605 89.0166 159.589 89.6965L159.203 105.624C159.176 106.744 158.432 107.652 157.509 107.692C157.488 107.693 157.467 107.693 157.445 107.693C156.988 107.693 156.558 107.482 156.227 107.095H156.227Z" fill="#3F3D56"/>
<path d="M163.615 105.494V88.9679C163.615 87.8012 164.368 86.865 165.329 86.8362L172.265 86.631C173.226 86.6149 174.035 87.5308 174.064 88.7007L174.463 105.432C174.477 106.013 174.301 106.563 173.967 106.98C173.634 107.396 173.186 107.626 172.707 107.626H165.372C164.403 107.626 163.615 106.67 163.615 105.494H163.615Z" fill="#3F3D56"/>
<path d="M204.613 116.787L210.049 128.519L210.673 141.713L215.002 142.047L213.516 126.415L204.601 111.384C203.832 113.065 203.836 115.111 204.613 116.787Z" fill="#CCCCCC"/>
<path d="M210.5 137.937L192.855 138.229L192.858 138.53L210.503 138.237L210.5 137.937Z" fill="#3F3D56"/>
<path d="M209.429 135.283L192.699 135.442L192.701 135.743L209.431 135.584L209.429 135.283Z" fill="#3F3D56"/>
<path d="M208.561 132.572L192.558 132.952L192.563 133.252L208.566 132.873L208.561 132.572Z" fill="#3F3D56"/>
<path d="M208.064 129.876L192.696 130.496L192.704 130.796L208.072 130.177L208.064 129.876Z" fill="#3F3D56"/>
<path d="M207.321 127.475L192.556 128.105L192.564 128.406L207.33 127.776L207.321 127.475Z" fill="#3F3D56"/>
<path d="M206.335 125.362H191.953V125.663H206.335V125.362Z" fill="#3F3D56"/>
<path d="M205.59 123.253L191.614 123.452L191.617 123.752L205.593 123.554L205.59 123.253Z" fill="#3F3D56"/>
<path d="M204.845 121.15L191.302 121.696L191.31 121.997L204.853 121.451L204.845 121.15Z" fill="#3F3D56"/>
<path d="M204.351 119.057L190.978 119.343L190.982 119.643L204.356 119.358L204.351 119.057Z" fill="#3F3D56"/>
<path d="M203.359 116.975L190.554 117.461L190.562 117.761L203.367 117.276L203.359 116.975Z" fill="#3F3D56"/>
<path d="M202.866 115.141L190.174 115.292L190.177 115.593L202.869 115.442L202.866 115.141Z" fill="#3F3D56"/>
<path d="M189.247 108.951V88.5648C189.247 87.389 190.035 86.4326 191.003 86.4326H199.13C200.098 86.4326 200.886 87.389 200.886 88.5648V108.951C200.886 110.127 200.098 111.083 199.13 111.083H191.003C190.035 111.083 189.247 110.127 189.247 108.951Z" fill="#FF8063"/>
<path d="M170.316 138.739L155.93 137.627L155.814 137.618V124.103C155.814 122.394 156.96 121.003 158.368 121.003H172.577C173.985 121.003 175.131 122.394 175.131 124.103V138.74H175.007L170.316 138.739H170.316Z" fill="#CCCCCC"/>
<path d="M190.238 71.9754V56.3987C190.238 55.2231 191.025 54.2667 191.994 54.2667H194.672C195.641 54.2667 196.429 55.2231 196.429 56.3987V71.9754C196.429 73.1509 195.641 74.1073 194.672 74.1073H191.994C191.025 74.1073 190.238 73.1509 190.238 71.9754Z" fill="#3F3D56"/>
<path d="M192.962 140.243L192.219 127.016L189.99 114.39L189.371 110.933C188.098 109.883 186.385 111.051 186.462 112.916L186.523 114.39L188.751 127.016L189.494 140.243" fill="#CCCCCC"/>
<path d="M108.652 133.93L91.0559 132.568L90.1069 36.5209C90.084 34.1897 90.8496 31.9069 92.2078 30.2582L111.059 7.37511C113.698 4.17167 117.851 3.94077 120.72 6.83802L141.178 27.4958C142.847 29.1811 143.79 31.6589 143.764 34.294L143.061 106.526L151.952 121.517L151.971 121.549L153.478 137.398L108.652 133.93V133.93Z" fill="#E6E6E6"/>
<path d="M111.609 29.7387V25.285C111.609 24.1094 112.397 23.1529 113.366 23.1529H118.521C119.489 23.1529 120.277 24.1094 120.277 25.285V29.7387C120.277 30.9143 119.489 31.8708 118.521 31.8708H113.366C112.397 31.8708 111.609 30.9143 111.609 29.7387Z" fill="#FF8063"/>
<path d="M100.713 64.3096V47.8312C100.713 46.6556 101.501 45.6991 102.469 45.6991H110.101C111.069 45.6991 111.857 46.6556 111.857 47.8312V64.3096C111.857 65.4852 111.069 66.4416 110.101 66.4416H102.469C101.501 66.4416 100.713 65.4852 100.713 64.3096Z" fill="#3F3D56"/>
<path d="M116.703 83.3883C116.326 83.7508 116.117 84.2939 116.132 84.8778L116.517 100.805C116.541 101.767 117.18 102.547 117.972 102.581C118.388 102.602 118.776 102.417 119.073 102.069C119.37 101.721 119.534 101.253 119.534 100.751V84.9489C119.534 84.1204 119.074 83.393 118.414 83.1795L118.028 83.0545C117.897 83.0122 117.765 82.9914 117.635 82.9914C117.3 82.9914 116.974 83.1276 116.703 83.3883Z" fill="#3F3D56"/>
<path d="M94.5628 102.285C94.2169 101.88 94.0264 101.335 94.0264 100.751V84.9489C94.0264 83.9845 94.5625 83.1376 95.3301 82.8889L95.7161 82.7638C96.2569 82.5895 96.8199 82.7304 97.2591 83.1525C97.6985 83.575 97.9408 84.207 97.9244 84.8866L97.5384 100.814C97.5113 101.934 96.7677 102.842 95.845 102.882C95.8237 102.883 95.8022 102.883 95.7809 102.883C95.3241 102.883 94.8936 102.672 94.5628 102.285Z" fill="#3F3D56"/>
<path d="M101.951 100.684V84.158C101.951 82.9914 102.704 82.0552 103.665 82.0264L110.601 81.8212C110.616 81.8209 110.63 81.8206 110.644 81.8206C111.589 81.8206 112.372 82.7386 112.4 83.8909L112.799 100.622C112.813 101.203 112.637 101.753 112.303 102.17C111.97 102.587 111.522 102.816 111.043 102.816H103.708C102.739 102.816 101.951 101.86 101.951 100.684Z" fill="#3F3D56"/>
<path d="M142.949 111.977L148.385 123.709L149.009 136.903L153.338 137.237L151.852 121.605L142.937 106.574C142.167 108.255 142.172 110.301 142.949 111.977Z" fill="#CCCCCC"/>
<path d="M148.835 133.127L131.191 133.42L131.194 133.72L148.839 133.427L148.835 133.127Z" fill="#3F3D56"/>
<path d="M147.765 130.474L131.035 130.632L131.037 130.933L147.767 130.774L147.765 130.474Z" fill="#3F3D56"/>
<path d="M146.897 127.762L130.894 128.142L130.899 128.443L146.901 128.063L146.897 127.762Z" fill="#3F3D56"/>
<path d="M146.4 125.066L131.032 125.686L131.04 125.986L146.408 125.367L146.4 125.066Z" fill="#3F3D56"/>
<path d="M145.657 122.666L130.892 123.296L130.9 123.596L145.666 122.966L145.657 122.666Z" fill="#3F3D56"/>
<path d="M144.67 120.553H130.289V120.853H144.67V120.553Z" fill="#3F3D56"/>
<path d="M143.926 118.443L129.949 118.642L129.952 118.943L143.929 118.744L143.926 118.443Z" fill="#3F3D56"/>
<path d="M143.18 116.341L129.637 116.886L129.646 117.187L143.188 116.641L143.18 116.341Z" fill="#3F3D56"/>
<path d="M142.687 114.247L129.314 114.533L129.318 114.833L142.692 114.548L142.687 114.247Z" fill="#3F3D56"/>
<path d="M141.695 112.165L128.89 112.651L128.897 112.952L141.702 112.466L141.695 112.165Z" fill="#3F3D56"/>
<path d="M141.202 110.332L128.51 110.482L128.512 110.783L141.204 110.632L141.202 110.332Z" fill="#3F3D56"/>
<path d="M127.583 104.141V83.7549C127.583 82.5792 128.37 81.6227 129.339 81.6227H137.466C138.434 81.6227 139.222 82.5792 139.222 83.7549V104.141C139.222 105.317 138.434 106.273 137.466 106.273H129.339C128.37 106.273 127.583 105.317 127.583 104.141Z" fill="#FF8063"/>
<path d="M108.652 133.93L94.266 132.817L94.1501 132.808V119.293C94.1501 117.584 95.2958 116.194 96.7038 116.194H110.913C112.321 116.194 113.467 117.584 113.467 119.293V133.93H113.343L108.652 133.93Z" fill="#CCCCCC"/>
<path d="M128.573 67.1654V51.5889C128.573 50.4133 129.361 49.4568 130.33 49.4568H133.008C133.977 49.4568 134.764 50.4133 134.764 51.5889V67.1654C134.764 68.341 133.977 69.2975 133.008 69.2975H130.33C129.361 69.2975 128.573 68.341 128.573 67.1654Z" fill="#3F3D56"/>
<path d="M131.297 135.433L130.555 122.206L128.326 109.58L127.707 106.123C126.434 105.073 124.721 106.241 124.798 108.106L124.859 109.58L127.087 122.206L127.83 135.433" fill="#CCCCCC"/>
<path d="M46.9877 129.12L29.3919 127.758L28.4429 31.7111C28.4199 29.3798 29.1856 27.097 30.5438 25.4483L49.395 2.56525C52.0337 -0.638043 56.1874 -0.868937 59.0561 2.02816L79.5139 22.686C81.1829 24.3712 82.1253 26.8491 82.0997 29.4842L81.3969 101.716L90.2885 116.707L90.3071 116.739L91.8138 132.588L46.9877 129.12L46.9877 129.12Z" fill="#E6E6E6"/>
<path d="M49.9451 24.9289V20.4751C49.9451 19.2995 50.733 18.343 51.7016 18.343H56.8565C57.8248 18.343 58.6127 19.2995 58.6127 20.4751V24.9289C58.6127 26.1045 57.8248 27.0609 56.8565 27.0609H51.7016C50.733 27.0609 49.9451 26.1045 49.9451 24.9289Z" fill="#FF8063"/>
<path d="M39.0486 59.4997V43.0213C39.0486 41.8457 39.8365 40.8892 40.8051 40.8892H48.4365C49.4048 40.8892 50.1927 41.8457 50.1927 43.0213V59.4997C50.1927 60.6753 49.4048 61.6318 48.4365 61.6318H40.8051C39.8365 61.6318 39.0486 60.6753 39.0486 59.4997Z" fill="#3F3D56"/>
<path d="M56.2989 98.0721C55.3765 98.0324 54.6326 97.1238 54.6053 96.0039L54.2195 80.0768C54.2031 79.3969 54.4454 78.7648 54.8846 78.3427C55.3238 77.9205 55.8861 77.7793 56.4276 77.954L56.8135 78.079C57.5812 78.3277 58.1173 79.1746 58.1173 80.139V95.9413C58.1173 96.525 57.9268 97.0698 57.5809 97.4752C57.2501 97.8628 56.8198 98.0732 56.363 98.0732C56.3417 98.0732 56.3202 98.073 56.2989 98.0721L56.2989 98.0721Z" fill="#3F3D56"/>
<path d="M33.698 78.2243L34.0839 78.0994C35.1396 77.7576 36.1685 78.7467 36.1364 80.0725L35.7505 95.9996C35.7252 97.0438 35.0365 97.8848 34.1764 97.9218H34.1764C33.2527 97.9615 32.4861 97.0633 32.4861 95.9413V80.1391C32.4861 79.2413 32.9833 78.4556 33.698 78.2243V78.2243Z" fill="#3F3D56"/>
<path d="M40.2869 95.8744V79.3481C40.2869 78.1815 41.0395 77.2453 42.0006 77.2165L48.9366 77.0113C49.903 76.9925 50.7072 77.9111 50.7352 79.081L51.1347 95.8125C51.1485 96.3934 50.9725 96.943 50.6387 97.3599C50.3052 97.7767 49.8578 98.0063 49.379 98.0063H42.0434C41.0748 98.0063 40.2869 97.0499 40.2869 95.8744H40.2869Z" fill="#3F3D56"/>
<path d="M81.2842 107.167L86.7207 118.899L87.3448 132.093L91.6736 132.427L90.1878 116.795L81.2725 101.764C80.503 103.445 80.5075 105.491 81.2842 107.167Z" fill="#CCCCCC"/>
<path d="M87.1709 128.317L69.5264 128.61L69.5298 128.91L87.1743 128.618L87.1709 128.317Z" fill="#3F3D56"/>
<path d="M86.1006 125.664L69.3708 125.822L69.3728 126.123L86.1025 125.964L86.1006 125.664Z" fill="#3F3D56"/>
<path d="M85.2323 122.953L69.2295 123.332L69.2343 123.633L85.2372 123.253L85.2323 122.953Z" fill="#3F3D56"/>
<path d="M84.7356 120.256L69.3677 120.876L69.3759 121.176L84.7438 120.557L84.7356 120.256Z" fill="#3F3D56"/>
<path d="M83.9926 117.856L69.2273 118.486L69.236 118.786L84.0013 118.156L83.9926 117.856Z" fill="#3F3D56"/>
<path d="M83.006 115.743H68.6248V116.043H83.006V115.743Z" fill="#3F3D56"/>
<path d="M82.2617 113.633L68.2854 113.832L68.2883 114.133L82.2646 113.934L82.2617 113.633Z" fill="#3F3D56"/>
<path d="M81.5159 111.531L67.9731 112.077L67.9814 112.377L81.5242 111.831L81.5159 111.531Z" fill="#3F3D56"/>
<path d="M81.0229 109.437L67.6497 109.723L67.654 110.023L81.0272 109.738L81.0229 109.437Z" fill="#3F3D56"/>
<path d="M80.0302 107.355L67.2253 107.841L67.2331 108.142L80.038 107.656L80.0302 107.355Z" fill="#3F3D56"/>
<path d="M79.5379 105.522L66.8459 105.672L66.8484 105.973L79.5403 105.822L79.5379 105.522Z" fill="#3F3D56"/>
<path d="M65.9185 99.3315V78.9451C65.9185 77.7693 66.7064 76.8129 67.675 76.8129H75.8016C76.77 76.8129 77.5579 77.7693 77.5579 78.9451V99.3315C77.5579 100.507 76.77 101.463 75.8016 101.463H67.675C66.7064 101.463 65.9185 100.507 65.9185 99.3315Z" fill="#FF8063"/>
<path d="M46.9875 129.12L32.6017 128.007L32.4858 127.998V114.484C32.4858 112.774 33.6315 111.384 35.0395 111.384H49.249C50.657 111.384 51.8024 112.774 51.8024 114.484V129.12H51.6785L46.9875 129.12Z" fill="#CCCCCC"/>
<path d="M66.9089 62.3555V46.779C66.9089 45.6034 67.6969 44.6469 68.6654 44.6469H71.3439C72.3122 44.6469 73.1001 45.6034 73.1001 46.779V62.3555C73.1001 63.5312 72.3122 64.4876 71.3439 64.4876H68.6654C67.6969 64.4876 66.9089 63.5312 66.9089 62.3555Z" fill="#3F3D56"/>
<path d="M69.6331 130.623L68.8902 117.396L66.6614 104.77L66.0423 101.313C64.77 100.263 63.0568 101.431 63.1336 103.296L63.1943 104.77L65.4231 117.396L66.1661 130.623" fill="#CCCCCC"/>
<path d="M24.3143 127.316L25.1568 108.293C25.1568 108.293 52.7931 101.338 52.7931 81.2912C52.7931 61.2447 7.63143 58.79 3.08157 67.995C3.03607 68.0871 2.99085 68.1791 2.9459 68.2711C-2.67386 79.7758 0.49899 94.712 10.0619 101.356C13.3319 103.628 17.2307 105.572 21.7866 106.656L21.4657 126.865" fill="#CCCCCC"/>
<path d="M6.40668 125.705L6.37476 126.305L231.704 143.969L231.736 143.369L6.40668 125.705Z" fill="#CCCCCC"/>
</g>
<defs>
<clipPath id="clip0_37_299">
<rect x="0.167969" width="247.276" height="144" rx="13" fill="white"/>
</clipPath>
</defs>
</svg>
