<svg width="393" height="129" viewBox="0 0 393 129" fill="none" xmlns="http://www.w3.org/2000/svg">
<rect width="393" height="129" rx="20" fill="#C1B886"/>
<rect y="107" width="393" height="22" fill="#A65858"/>
<path d="M291.98 122.038L292.831 106.628C292.831 106.628 320.724 100.994 320.724 84.7558C320.724 68.5172 275.142 66.5288 270.55 73.9853C270.504 74.0599 270.458 74.1345 270.413 74.209C264.741 83.5283 267.943 95.6273 277.595 101.009C280.896 102.849 284.831 104.424 289.429 105.303L289.105 121.673" fill="#CCCCCC"/>
<path d="M266.11 37.9047C274.806 37.9047 281.857 31.0361 281.857 22.5633C281.857 14.0906 274.806 7.22205 266.11 7.22205C257.413 7.22205 250.363 14.0906 250.363 22.5633C250.363 31.0361 257.413 37.9047 266.11 37.9047Z" fill="#FF6884"/>
<path d="M242.879 118.385L225.119 117.282L224.161 39.4798C224.138 37.5914 224.911 35.7422 226.281 34.4067L245.308 15.8703C247.971 13.2758 252.163 13.0883 255.059 15.4353L275.707 32.169C277.392 33.5342 278.343 35.5414 278.317 37.6759L277.608 96.1873L286.582 108.33L286.601 108.356L288.122 121.195L242.879 118.385V118.385Z" fill="#E6E6E6"/>
<path d="M245.863 33.9859V30.3782C245.863 29.4259 246.659 28.6511 247.636 28.6511H252.839C253.816 28.6511 254.612 29.4259 254.612 30.3782V33.9859C254.612 34.9382 253.816 35.713 252.839 35.713H247.636C246.659 35.713 245.863 34.9382 245.863 33.9859Z" fill="#FF8063"/>
<path d="M234.865 61.9899V48.6416C234.865 47.6893 235.661 46.9146 236.638 46.9146H244.341C245.318 46.9146 246.113 47.6893 246.113 48.6416V61.9899C246.113 62.9422 245.318 63.7169 244.341 63.7169H236.638C235.661 63.7169 234.865 62.9422 234.865 61.9899Z" fill="#3F3D56"/>
<path d="M252.276 93.2353C251.345 93.2032 250.595 92.4672 250.567 91.5599L250.178 78.6583C250.161 78.1075 250.406 77.5958 250.849 77.2536C251.292 76.9116 251.86 76.7975 252.406 76.9387L252.796 77.04C253.571 77.2414 254.112 77.9275 254.112 78.7087V91.5093C254.112 91.982 253.919 92.4234 253.57 92.7518C253.237 93.0657 252.802 93.2362 252.341 93.2362C252.319 93.2362 252.298 93.236 252.276 93.2353L252.276 93.2353Z" fill="#3F3D56"/>
<path d="M228.658 92.7518C228.309 92.4234 228.117 91.982 228.117 91.5093V78.7087C228.117 77.9275 228.658 77.2414 229.433 77.04L229.822 76.9387C230.369 76.7975 230.936 76.9116 231.379 77.2536C231.823 77.5955 232.067 78.1075 232.051 78.6583L231.661 91.5599C231.634 92.4672 230.883 93.2032 229.952 93.2353C229.93 93.236 229.909 93.2362 229.887 93.2362C229.426 93.2362 228.992 93.0655 228.658 92.7518H228.658Z" fill="#3F3D56"/>
<path d="M236.115 91.455V78.068C236.115 77.123 236.875 76.3646 237.845 76.3413L244.846 76.1751C245.816 76.162 246.632 76.904 246.661 77.8516L247.064 91.4049C247.078 91.8755 246.9 92.3207 246.564 92.6583C246.227 92.996 245.775 93.182 245.292 93.182H237.888C236.911 93.182 236.115 92.4072 236.115 91.455H236.115Z" fill="#3F3D56"/>
<path d="M277.494 100.603L282.981 110.106L283.611 120.794L287.98 121.064L286.48 108.402L277.482 96.226C276.706 97.5879 276.71 99.2448 277.494 100.603Z" fill="#CCCCCC"/>
<path d="M283.436 117.735L265.627 117.972L265.631 118.216L283.439 117.978L283.436 117.735Z" fill="#3F3D56"/>
<path d="M282.355 115.586L265.47 115.714L265.472 115.958L282.357 115.829L282.355 115.586Z" fill="#3F3D56"/>
<path d="M281.479 113.39L265.327 113.697L265.332 113.941L281.484 113.633L281.479 113.39Z" fill="#3F3D56"/>
<path d="M280.978 111.206L265.467 111.707L265.475 111.951L280.986 111.449L280.978 111.206Z" fill="#3F3D56"/>
<path d="M280.228 109.261L265.325 109.771L265.334 110.015L280.237 109.504L280.228 109.261Z" fill="#3F3D56"/>
<path d="M279.232 107.549H264.717V107.793H279.232V107.549Z" fill="#3F3D56"/>
<path d="M278.481 105.841L264.374 106.002L264.377 106.245L278.484 106.084L278.481 105.841Z" fill="#3F3D56"/>
<path d="M277.728 104.137L264.059 104.58L264.067 104.823L277.736 104.381L277.728 104.137Z" fill="#3F3D56"/>
<path d="M277.23 102.442L263.733 102.673L263.737 102.916L277.235 102.685L277.23 102.442Z" fill="#3F3D56"/>
<path d="M276.229 100.755L263.305 101.149L263.312 101.392L276.236 100.999L276.229 100.755Z" fill="#3F3D56"/>
<path d="M275.732 99.2698L262.922 99.3917L262.924 99.6352L275.734 99.5134L275.732 99.2698Z" fill="#3F3D56"/>
<path d="M261.985 94.2555V77.7416C261.985 76.7892 262.781 76.0144 263.758 76.0144H271.961C272.938 76.0144 273.733 76.7892 273.733 77.7416V94.2555C273.733 95.2077 272.938 95.9825 271.961 95.9825H263.758C262.781 95.9825 261.985 95.2077 261.985 94.2555Z" fill="#FF8063"/>
<path d="M242.879 118.385L228.359 117.484L228.242 117.477V106.529C228.242 105.145 229.398 104.018 230.819 104.018H245.161C246.582 104.018 247.738 105.145 247.738 106.529V118.386H247.613L242.879 118.385H242.879Z" fill="#CCCCCC"/>
<path d="M262.985 64.3034V51.6856C262.985 50.7333 263.78 49.9585 264.758 49.9585H267.461C268.439 49.9585 269.234 50.7333 269.234 51.6856V64.3034C269.234 65.2556 268.439 66.0303 267.461 66.0303H264.758C263.78 66.0303 262.985 65.2556 262.985 64.3034Z" fill="#3F3D56"/>
<path d="M265.735 119.603L264.985 108.889L262.735 98.6611L262.11 95.8607C260.826 95.01 259.097 95.9563 259.175 97.4672L259.236 98.6611L261.485 108.889L262.235 119.603" fill="#CCCCCC"/>
<path d="M180.64 114.489L162.88 113.386L161.923 35.5836C161.899 33.6952 162.672 31.846 164.043 30.5105L183.07 11.9742C185.733 9.37924 189.925 9.19221 192.821 11.5391L213.469 28.2729C215.153 29.638 216.105 31.6452 216.079 33.7797L215.369 92.2912L224.344 104.434L224.363 104.46L225.883 117.299L180.64 114.489V114.489Z" fill="#E6E6E6"/>
<path d="M183.625 30.0897V26.4819C183.625 25.5297 184.42 24.7549 185.398 24.7549H190.601C191.578 24.7549 192.373 25.5297 192.373 26.4819V30.0897C192.373 31.042 191.578 31.8168 190.601 31.8168H185.398C184.42 31.8168 183.625 31.042 183.625 30.0897Z" fill="#FF8063"/>
<path d="M172.627 58.0936V44.7454C172.627 43.7931 173.422 43.0183 174.4 43.0183H182.102C183.08 43.0183 183.875 43.7931 183.875 44.7454V58.0936C183.875 59.0459 183.08 59.8207 182.102 59.8207H174.4C173.422 59.8207 172.627 59.0459 172.627 58.0936Z" fill="#3F3D56"/>
<path d="M188.766 73.5483C188.385 73.842 188.175 74.2819 188.189 74.7549L188.579 87.6566C188.602 88.4359 189.247 89.068 190.047 89.0956C190.467 89.112 190.859 88.9624 191.158 88.6804C191.458 88.3983 191.624 88.0193 191.624 87.6131V74.8125C191.624 74.1414 191.159 73.5521 190.493 73.3792L190.104 73.2779C189.972 73.2437 189.839 73.2268 189.707 73.2268C189.369 73.2268 189.04 73.3371 188.766 73.5483Z" fill="#3F3D56"/>
<path d="M166.42 88.8556C166.071 88.5272 165.878 88.0858 165.878 87.613V74.8125C165.878 74.0313 166.42 73.3452 167.194 73.1438L167.584 73.0425C168.13 72.9012 168.698 73.0154 169.141 73.3573C169.585 73.6995 169.829 74.2115 169.813 74.762L169.423 87.6637C169.396 88.5709 168.645 89.3069 167.714 89.339C167.693 89.3397 167.671 89.34 167.649 89.34C167.188 89.34 166.754 89.1692 166.42 88.8556Z" fill="#3F3D56"/>
<path d="M173.877 87.5589V74.1718C173.877 73.2268 174.637 72.4684 175.607 72.4451L182.607 72.2789C182.622 72.2787 182.637 72.2784 182.651 72.2784C183.604 72.2784 184.395 73.0221 184.423 73.9554L184.826 87.5087C184.84 87.9793 184.662 88.4245 184.325 88.7622C183.989 89.0999 183.537 89.2858 183.054 89.2858H175.65C174.672 89.2858 173.877 88.511 173.877 87.5589Z" fill="#3F3D56"/>
<path d="M215.256 96.7065L220.743 106.21L221.373 116.898L225.742 117.168L224.242 104.505L215.244 92.3297C214.468 93.6916 214.472 95.3486 215.256 96.7065Z" fill="#CCCCCC"/>
<path d="M221.198 113.839L203.389 114.076L203.392 114.319L221.201 114.082L221.198 113.839Z" fill="#3F3D56"/>
<path d="M220.117 111.69L203.232 111.818L203.234 112.062L220.119 111.933L220.117 111.69Z" fill="#3F3D56"/>
<path d="M219.241 109.493L203.089 109.801L203.094 110.044L219.246 109.737L219.241 109.493Z" fill="#3F3D56"/>
<path d="M218.739 107.309L203.228 107.811L203.237 108.055L218.748 107.553L218.739 107.309Z" fill="#3F3D56"/>
<path d="M217.989 105.365L203.087 105.875L203.096 106.119L217.998 105.608L217.989 105.365Z" fill="#3F3D56"/>
<path d="M216.994 103.653H202.479V103.897H216.994V103.653Z" fill="#3F3D56"/>
<path d="M216.242 101.944L202.136 102.105L202.139 102.349L216.245 102.188L216.242 101.944Z" fill="#3F3D56"/>
<path d="M215.49 100.241L201.821 100.683L201.829 100.927L215.498 100.485L215.49 100.241Z" fill="#3F3D56"/>
<path d="M214.992 98.5456L201.494 98.7767L201.499 99.0202L214.996 98.7891L214.992 98.5456Z" fill="#3F3D56"/>
<path d="M213.99 96.859L201.066 97.2524L201.074 97.496L213.998 97.1025L213.99 96.859Z" fill="#3F3D56"/>
<path d="M213.493 95.3737L200.683 95.4956L200.686 95.7391L213.496 95.6172L213.493 95.3737Z" fill="#3F3D56"/>
<path d="M199.747 90.3593V73.8453C199.747 72.8929 200.542 72.1182 201.52 72.1182H209.722C210.7 72.1182 211.495 72.8929 211.495 73.8453V90.3593C211.495 91.3114 210.7 92.0862 209.722 92.0862H201.52C200.542 92.0862 199.747 91.3114 199.747 90.3593Z" fill="#FF8063"/>
<path d="M180.64 114.489L166.12 113.588L166.003 113.581V102.633C166.003 101.249 167.16 100.122 168.581 100.122H182.923C184.344 100.122 185.5 101.249 185.5 102.633V114.489H185.375L180.64 114.489Z" fill="#CCCCCC"/>
<path d="M200.747 60.407V47.7893C200.747 46.837 201.542 46.0623 202.52 46.0623H205.223C206.201 46.0623 206.996 46.837 206.996 47.7893V60.407C206.996 61.3593 206.201 62.1341 205.223 62.1341H202.52C201.542 62.1341 200.747 61.3593 200.747 60.407Z" fill="#3F3D56"/>
<path d="M203.496 115.707L202.746 104.992L200.497 94.7648L199.872 91.9644C198.588 91.1138 196.859 92.06 196.936 93.571L196.998 94.7648L199.247 104.992L199.997 115.707" fill="#CCCCCC"/>
<path d="M118.402 110.593L100.642 109.49L99.6845 31.6874C99.6613 29.799 100.434 27.9498 101.805 26.6143L120.832 8.07797C123.495 5.48316 127.687 5.29612 130.583 7.6429L151.231 24.3767C152.915 25.7418 153.867 27.749 153.841 29.8835L153.131 88.395L162.106 100.538L162.125 100.564L163.645 113.403L118.402 110.593L118.402 110.593Z" fill="#E6E6E6"/>
<path d="M121.387 26.1936V22.5858C121.387 21.6335 122.182 20.8588 123.16 20.8588H128.363C129.34 20.8588 130.135 21.6335 130.135 22.5858V26.1936C130.135 27.1459 129.34 27.9206 128.363 27.9206H123.16C122.182 27.9206 121.387 27.1459 121.387 26.1936Z" fill="#FF8063"/>
<path d="M110.389 54.1975V40.8493C110.389 39.897 111.184 39.1222 112.162 39.1222H119.864C120.842 39.1222 121.637 39.897 121.637 40.8493V54.1975C121.637 55.1498 120.842 55.9246 119.864 55.9246H112.162C111.184 55.9246 110.389 55.1498 110.389 54.1975Z" fill="#3F3D56"/>
<path d="M127.8 85.4429C126.869 85.4108 126.118 84.6748 126.091 83.7676L125.701 70.8659C125.685 70.3151 125.929 69.8031 126.373 69.4612C126.816 69.1192 127.383 69.0048 127.93 69.1463L128.32 69.2476C129.094 69.4491 129.635 70.1351 129.635 70.9163V83.7169C129.635 84.1897 129.443 84.631 129.094 84.9594C128.76 85.2733 128.326 85.4439 127.865 85.4439C127.843 85.4439 127.822 85.4436 127.8 85.4429L127.8 85.4429Z" fill="#3F3D56"/>
<path d="M104.989 69.3653L105.378 69.2641C106.444 68.9873 107.482 69.7885 107.45 70.8624L107.06 83.7641C107.035 84.61 106.34 85.2912 105.471 85.3212H105.471C104.539 85.3534 103.765 84.6258 103.765 83.7169V70.9164C103.765 70.1891 104.267 69.5527 104.989 69.3653V69.3653Z" fill="#3F3D56"/>
<path d="M111.639 83.6626V70.2756C111.639 69.3306 112.399 68.5722 113.369 68.5489L120.369 68.3827C121.345 68.3675 122.156 69.1115 122.184 70.0592L122.588 83.6124C122.602 84.0831 122.424 84.5282 122.087 84.8659C121.75 85.2036 121.299 85.3896 120.816 85.3896H113.412C112.434 85.3896 111.639 84.6148 111.639 83.6626H111.639Z" fill="#3F3D56"/>
<path d="M153.018 92.8102L158.505 102.314L159.135 113.001L163.504 113.272L162.004 100.609L153.006 88.4335C152.229 89.7954 152.234 91.4524 153.018 92.8102Z" fill="#CCCCCC"/>
<path d="M158.959 109.943L141.151 110.18L141.154 110.423L158.963 110.186L158.959 109.943Z" fill="#3F3D56"/>
<path d="M157.879 107.793L140.994 107.922L140.995 108.165L157.881 108.037L157.879 107.793Z" fill="#3F3D56"/>
<path d="M157.003 105.597L140.851 105.905L140.856 106.148L157.008 105.841L157.003 105.597Z" fill="#3F3D56"/>
<path d="M156.501 103.413L140.99 103.915L140.998 104.158L156.509 103.657L156.501 103.413Z" fill="#3F3D56"/>
<path d="M155.751 101.468L140.849 101.979L140.858 102.222L155.76 101.712L155.751 101.468Z" fill="#3F3D56"/>
<path d="M154.756 99.757H140.241V100H154.756V99.757Z" fill="#3F3D56"/>
<path d="M154.004 98.0482L139.898 98.2092L139.901 98.4527L154.007 98.2917L154.004 98.0482Z" fill="#3F3D56"/>
<path d="M153.252 96.345L139.583 96.7871L139.591 97.0306L153.26 96.5885L153.252 96.345Z" fill="#3F3D56"/>
<path d="M152.754 94.6493L139.256 94.8805L139.261 95.124L152.758 94.8929L152.754 94.6493Z" fill="#3F3D56"/>
<path d="M151.752 92.9627L138.828 93.3562L138.836 93.5997L151.76 93.2062L151.752 92.9627Z" fill="#3F3D56"/>
<path d="M151.255 91.4774L138.445 91.5992L138.447 91.8428L151.257 91.7209L151.255 91.4774Z" fill="#3F3D56"/>
<path d="M137.509 86.463V69.9491C137.509 68.9967 138.304 68.2219 139.282 68.2219H147.484C148.461 68.2219 149.257 68.9967 149.257 69.9491V86.463C149.257 87.4152 148.461 88.19 147.484 88.19H139.282C138.304 88.19 137.509 87.4152 137.509 86.463Z" fill="#FF8063"/>
<path d="M118.402 110.593L103.882 109.692L103.765 109.685V98.7369C103.765 97.3524 104.922 96.226 106.343 96.226H120.685C122.106 96.226 123.262 97.3524 123.262 98.7369V110.593H123.137L118.402 110.593Z" fill="#CCCCCC"/>
<path d="M138.509 56.5108V43.8931C138.509 42.9408 139.304 42.166 140.282 42.166H142.985C143.962 42.166 144.758 42.9408 144.758 43.8931V56.5108C144.758 57.4631 143.962 58.2379 142.985 58.2379H140.282C139.304 58.2379 138.509 57.4631 138.509 56.5108Z" fill="#3F3D56"/>
<path d="M141.258 111.811L140.508 101.096L138.259 90.8686L137.634 88.0682C136.35 87.2175 134.621 88.1638 134.698 89.6747L134.759 90.8686L137.009 101.096L137.759 111.811" fill="#CCCCCC"/>
<path d="M95.5175 109.132L96.3679 93.722C96.3679 93.722 124.261 88.0882 124.261 71.8496C124.261 55.611 78.6794 53.6226 74.0872 61.0791C74.0413 61.1537 73.9956 61.2282 73.9503 61.3027C68.2782 70.6221 71.4806 82.721 81.1325 88.1029C84.4329 89.9432 88.368 91.518 92.9663 92.3964L92.6424 108.767" fill="#CCCCCC"/>
<path d="M77.4432 107.826L77.411 108.312L304.838 122.621L304.87 122.135L77.4432 107.826Z" fill="#CCCCCC"/>
</svg>
