<svg width="249" height="157" viewBox="0 0 249 157" fill="none" xmlns="http://www.w3.org/2000/svg">
<g clip-path="url(#clip0_51_1930)">
<path d="M220.323 156.181L221.171 135.44C221.171 135.44 249 127.857 249 106.001C249 84.1446 203.524 81.4683 198.942 91.5044C198.896 91.6048 198.851 91.7051 198.805 91.8054C193.146 104.349 196.341 120.633 205.971 127.877C209.264 130.354 213.19 132.474 217.777 133.656L217.454 155.69" fill="#CCCCCC"/>
<path d="M194.512 42.9417C203.188 42.9417 210.222 33.697 210.222 22.2931C210.222 10.8892 203.188 1.64453 194.512 1.64453C185.835 1.64453 178.801 10.8892 178.801 22.2931C178.801 33.697 185.835 42.9417 194.512 42.9417Z" fill="#FF6884"/>
<path d="M171.335 151.265L153.616 149.78L152.66 45.0622C152.637 42.5205 153.408 40.0316 154.776 38.234L173.758 13.2851C176.416 9.79297 180.598 9.5406 183.487 12.6996L204.087 35.2223C205.768 37.0597 206.717 39.7613 206.691 42.6342L205.983 121.387L214.937 137.731L214.956 137.766L216.473 155.046L171.335 151.265Z" fill="#E6E6E6"/>
<path d="M174.312 37.6677V32.8118C174.312 31.5301 175.106 30.4873 176.081 30.4873H181.272C182.247 30.4873 183.041 31.5301 183.041 32.8118V37.6677C183.041 38.9494 182.247 39.9922 181.272 39.9922H176.081C175.106 39.9922 174.312 38.9494 174.312 37.6677Z" fill="#FF8063"/>
<path d="M163.34 75.3594V57.3934C163.34 56.1116 164.133 55.0688 165.109 55.0688H172.793C173.768 55.0688 174.562 56.1116 174.562 57.3934V75.3594C174.562 76.6411 173.769 77.6839 172.793 77.6839H165.109C164.133 77.6839 163.34 76.6411 163.34 75.3594Z" fill="#3F3D56"/>
<path d="M180.711 117.414C179.782 117.371 179.033 116.38 179.005 115.159L178.617 97.794C178.6 97.0527 178.844 96.3639 179.286 95.9033C179.729 95.4431 180.295 95.2894 180.84 95.4796L181.229 95.6159C182.002 95.887 182.542 96.8104 182.542 97.8619V115.091C182.542 115.727 182.35 116.321 182.001 116.763C181.669 117.186 181.235 117.415 180.775 117.415C180.754 117.415 180.732 117.415 180.711 117.414L180.711 117.414Z" fill="#3F3D56"/>
<path d="M157.147 116.763C156.799 116.321 156.607 115.727 156.607 115.091V97.8619C156.607 96.8104 157.147 95.887 157.92 95.6159L158.308 95.4796C158.854 95.2894 159.42 95.4431 159.862 95.9033C160.304 96.3636 160.549 97.0527 160.532 97.794L160.143 115.159C160.116 116.38 159.367 117.371 158.438 117.414C158.417 117.415 158.395 117.415 158.374 117.415C157.914 117.415 157.48 117.185 157.147 116.763H157.147Z" fill="#3F3D56"/>
<path d="M164.587 115.018V96.9997C164.587 95.7277 165.345 94.707 166.312 94.6756L173.297 94.4519C174.265 94.4343 175.08 95.4329 175.108 96.7084L175.51 114.95C175.524 115.584 175.347 116.183 175.011 116.637C174.675 117.092 174.224 117.342 173.742 117.342H166.355C165.38 117.342 164.587 116.299 164.587 115.018H164.587Z" fill="#3F3D56"/>
<path d="M205.87 127.33L211.345 140.121L211.973 154.507L216.332 154.87L214.836 137.827L205.858 121.439C205.083 123.272 205.088 125.503 205.87 127.33Z" fill="#CCCCCC"/>
<path d="M211.798 150.389L194.03 150.708L194.034 151.036L211.801 150.717L211.798 150.389Z" fill="#3F3D56"/>
<path d="M210.72 147.496L193.874 147.669L193.876 147.997L210.722 147.824L210.72 147.496Z" fill="#3F3D56"/>
<path d="M209.846 144.541L193.731 144.955L193.736 145.282L209.851 144.869L209.846 144.541Z" fill="#3F3D56"/>
<path d="M209.345 141.601L193.87 142.276L193.879 142.604L209.354 141.929L209.345 141.601Z" fill="#3F3D56"/>
<path d="M208.597 138.983L193.729 139.67L193.738 139.998L208.606 139.311L208.597 138.983Z" fill="#3F3D56"/>
<path d="M207.604 136.68H193.122V137.008H207.604V136.68Z" fill="#3F3D56"/>
<path d="M206.854 134.38L192.781 134.597L192.783 134.924L206.857 134.708L206.854 134.38Z" fill="#3F3D56"/>
<path d="M206.103 132.088L192.466 132.683L192.474 133.01L206.112 132.415L206.103 132.088Z" fill="#3F3D56"/>
<path d="M205.607 129.806L192.14 130.117L192.145 130.444L205.611 130.133L205.607 129.806Z" fill="#3F3D56"/>
<path d="M204.607 127.535L191.713 128.065L191.721 128.393L204.615 127.863L204.607 127.535Z" fill="#3F3D56"/>
<path d="M204.111 125.536L191.331 125.7L191.333 126.028L204.114 125.864L204.111 125.536Z" fill="#3F3D56"/>
<path d="M190.397 118.787V96.56C190.397 95.2782 191.19 94.2354 192.166 94.2354H200.349C201.324 94.2354 202.118 95.2782 202.118 96.56V118.787C202.118 120.068 201.324 121.111 200.349 121.111H192.166C191.19 121.111 190.397 120.068 190.397 118.787Z" fill="#FF8063"/>
<path d="M171.335 151.264L156.848 150.052L156.732 150.042V135.307C156.732 133.443 157.885 131.927 159.303 131.927H173.611C175.029 131.927 176.183 133.443 176.183 135.307V151.265H176.058L171.335 151.264H171.335Z" fill="#CCCCCC"/>
<path d="M191.395 78.473V61.4901C191.395 60.2083 192.188 59.1655 193.163 59.1655H195.86C196.836 59.1655 197.629 60.2083 197.629 61.4901V78.473C197.629 79.7546 196.836 80.7974 195.86 80.7974H193.163C192.188 80.7974 191.395 79.7546 191.395 78.473Z" fill="#3F3D56"/>
<path d="M194.138 152.903L193.39 138.482L191.145 124.717L190.522 120.947C189.241 119.802 187.515 121.076 187.593 123.11L187.654 124.717L189.898 138.482L190.646 152.903" fill="#CCCCCC"/>
<path d="M109.24 146.021L91.5217 144.536L90.5661 39.8181C90.543 37.2764 91.314 34.7875 92.6816 32.99L111.664 8.04109C114.321 4.54846 118.504 4.29672 121.393 7.45552L141.993 29.9783C143.674 31.8157 144.623 34.5172 144.597 37.3902L143.889 116.143L152.843 132.487L152.862 132.522L154.379 149.802L109.24 146.021Z" fill="#E6E6E6"/>
<path d="M112.218 32.4235V27.5677C112.218 26.286 113.012 25.2432 113.987 25.2432H119.178C120.153 25.2432 120.946 26.286 120.946 27.5677V32.4235C120.946 33.7053 120.153 34.7481 119.178 34.7481H113.987C113.012 34.7481 112.218 33.7053 112.218 32.4235Z" fill="#FF8063"/>
<path d="M101.246 70.1153V52.1492C101.246 50.8675 102.039 49.8247 103.015 49.8247H110.699C111.674 49.8247 112.468 50.8675 112.468 52.1492V70.1153C112.468 71.397 111.674 72.4398 110.699 72.4398H103.015C102.039 72.4398 101.246 71.397 101.246 70.1153Z" fill="#3F3D56"/>
<path d="M117.347 90.9161C116.967 91.3114 116.758 91.9036 116.772 92.5402L117.16 109.905C117.184 110.954 117.828 111.805 118.625 111.842C119.045 111.864 119.435 111.663 119.734 111.283C120.033 110.903 120.198 110.393 120.198 109.847V92.6176C120.198 91.7144 119.735 90.9213 119.07 90.6886L118.682 90.5522C118.55 90.5061 118.417 90.4834 118.286 90.4834C117.949 90.4834 117.621 90.6319 117.347 90.9161Z" fill="#3F3D56"/>
<path d="M95.0528 111.519C94.7046 111.077 94.5127 110.483 94.5127 109.847V92.6177C94.5127 91.5663 95.0526 90.6429 95.8256 90.3718L96.2142 90.2354C96.7588 90.0453 97.3257 90.1989 97.768 90.6592C98.2104 91.1198 98.4545 91.8089 98.4379 92.5499L98.0492 109.915C98.022 111.136 97.2731 112.127 96.344 112.17C96.3226 112.171 96.3009 112.171 96.2795 112.171C95.8195 112.171 95.386 111.941 95.0528 111.519Z" fill="#3F3D56"/>
<path d="M102.493 109.774V91.7555C102.493 90.4835 103.251 89.4628 104.218 89.4314L111.203 89.2077C111.218 89.2074 111.232 89.207 111.247 89.207C112.198 89.207 112.986 90.2079 113.014 91.4642L113.416 109.706C113.43 110.34 113.253 110.939 112.917 111.393C112.581 111.848 112.13 112.098 111.648 112.098H104.261C103.286 112.098 102.493 111.055 102.493 109.774Z" fill="#3F3D56"/>
<path d="M143.776 122.086L149.25 134.877L149.879 149.263L154.238 149.626L152.742 132.583L143.764 116.195C142.989 118.028 142.994 120.259 143.776 122.086Z" fill="#CCCCCC"/>
<path d="M149.704 145.145L131.936 145.464L131.94 145.792L149.707 145.473L149.704 145.145Z" fill="#3F3D56"/>
<path d="M148.626 142.252L131.779 142.425L131.781 142.753L148.628 142.58L148.626 142.252Z" fill="#3F3D56"/>
<path d="M147.752 139.297L131.637 139.71L131.642 140.038L147.756 139.625L147.752 139.297Z" fill="#3F3D56"/>
<path d="M147.251 136.357L131.776 137.032L131.785 137.36L147.26 136.685L147.251 136.357Z" fill="#3F3D56"/>
<path d="M146.503 133.74L131.635 134.427L131.644 134.755L146.512 134.068L146.503 133.74Z" fill="#3F3D56"/>
<path d="M145.51 131.436H131.028V131.764H145.51V131.436Z" fill="#3F3D56"/>
<path d="M144.76 129.136L130.686 129.353L130.689 129.68L144.763 129.464L144.76 129.136Z" fill="#3F3D56"/>
<path d="M144.009 126.843L130.372 127.438L130.38 127.766L144.018 127.171L144.009 126.843Z" fill="#3F3D56"/>
<path d="M143.513 124.561L130.046 124.873L130.051 125.2L143.517 124.889L143.513 124.561Z" fill="#3F3D56"/>
<path d="M142.513 122.291L129.619 122.821L129.627 123.149L142.521 122.619L142.513 122.291Z" fill="#3F3D56"/>
<path d="M142.017 120.292L129.237 120.456L129.239 120.784L142.02 120.62L142.017 120.292Z" fill="#3F3D56"/>
<path d="M128.303 113.543V91.3159C128.303 90.034 129.096 88.9912 130.072 88.9912H138.255C139.23 88.9912 140.023 90.034 140.023 91.3159V113.543C140.023 114.824 139.23 115.867 138.255 115.867H130.072C129.096 115.867 128.303 114.824 128.303 113.543Z" fill="#FF8063"/>
<path d="M109.24 146.02L94.754 144.808L94.6374 144.798V130.063C94.6374 128.199 95.791 126.683 97.2088 126.683H111.517C112.935 126.683 114.089 128.199 114.089 130.063V146.021H113.964L109.24 146.02Z" fill="#CCCCCC"/>
<path d="M129.3 73.2292V56.2464C129.3 54.9647 130.094 53.9219 131.069 53.9219H133.766C134.741 53.9219 135.535 54.9647 135.535 56.2464V73.2292C135.535 74.5109 134.741 75.5537 133.766 75.5537H131.069C130.094 75.5537 129.3 74.5109 129.3 73.2292Z" fill="#3F3D56"/>
<path d="M132.044 147.66L131.295 133.239L129.051 119.473L128.428 115.704C127.147 114.559 125.421 115.832 125.499 117.866L125.56 119.473L127.804 133.239L128.552 147.66" fill="#CCCCCC"/>
<path d="M47.146 140.776L29.4276 139.292L28.4719 34.5739C28.4488 32.0322 29.2198 29.5433 30.5875 27.7457L49.5701 2.79683C52.2273 -0.695644 56.4099 -0.947383 59.2986 2.21126L79.899 24.734C81.5796 26.5714 82.5286 29.273 82.5028 32.146L81.7951 110.899L90.7487 127.243L90.7675 127.278L92.2847 144.558L47.146 140.776L47.146 140.776Z" fill="#E6E6E6"/>
<path d="M50.1241 27.1794V22.3236C50.1241 21.0418 50.9176 19.999 51.8929 19.999H57.0837C58.0588 19.999 58.8522 21.0418 58.8522 22.3236V27.1794C58.8522 28.4611 58.0588 29.5039 57.0837 29.5039H51.8929C50.9176 29.5039 50.1241 28.4611 50.1241 27.1794Z" fill="#FF8063"/>
<path d="M39.1517 64.8711V46.9051C39.1517 45.6234 39.9451 44.5806 40.9204 44.5806H48.605C49.5801 44.5806 50.3735 45.6234 50.3735 46.9051V64.8711C50.3735 66.1529 49.5801 67.1957 48.605 67.1957H40.9204C39.9451 67.1957 39.1517 66.1529 39.1517 64.8711Z" fill="#3F3D56"/>
<path d="M56.5224 106.926C55.5936 106.883 54.8445 105.892 54.817 104.671L54.4285 87.3059C54.412 86.5646 54.656 85.8755 55.0982 85.4152C55.5405 84.9549 56.1067 84.801 56.652 84.9914L57.0406 85.1278C57.8136 85.3989 58.3535 86.3223 58.3535 87.3737V104.603C58.3535 105.239 58.1616 105.833 57.8133 106.275C57.4802 106.698 57.047 106.927 56.5869 106.927C56.5655 106.927 56.5438 106.927 56.5224 106.926L56.5224 106.926Z" fill="#3F3D56"/>
<path d="M33.7637 85.2861L34.1523 85.1499C35.2153 84.7773 36.2514 85.8557 36.2191 87.3011L35.8305 104.666C35.805 105.805 35.1115 106.722 34.2455 106.762H34.2454C33.3153 106.805 32.5433 105.826 32.5433 104.603V87.3738C32.5433 86.3949 33.044 85.5383 33.7637 85.2861V85.2861Z" fill="#3F3D56"/>
<path d="M40.3985 104.53V86.5115C40.3985 85.2395 41.1564 84.2188 42.1242 84.1874L49.1086 83.9637C50.0817 83.9432 50.8915 84.9447 50.9197 86.2202L51.322 104.462C51.3359 105.096 51.1586 105.695 50.8226 106.149C50.4867 106.604 50.0362 106.854 49.554 106.854H42.1673C41.192 106.854 40.3985 105.811 40.3985 104.53H40.3985Z" fill="#3F3D56"/>
<path d="M81.6819 116.842L87.1562 129.633L87.7847 144.018L92.1437 144.382L90.6475 127.339L81.67 110.951C80.8952 112.784 80.8997 115.014 81.6819 116.842Z" fill="#CCCCCC"/>
<path d="M87.6096 139.901L69.842 140.22L69.8455 140.548L87.613 140.229L87.6096 139.901Z" fill="#3F3D56"/>
<path d="M86.5318 137.009L69.6854 137.182L69.6873 137.509L86.5337 137.336L86.5318 137.009Z" fill="#3F3D56"/>
<path d="M85.6574 134.053L69.543 134.466L69.5479 134.794L85.6623 134.38L85.6574 134.053Z" fill="#3F3D56"/>
<path d="M85.1572 131.113L69.6821 131.788L69.6904 132.116L85.1654 131.441L85.1572 131.113Z" fill="#3F3D56"/>
<path d="M84.409 128.496L69.5407 129.183L69.5495 129.51L84.4177 128.823L84.409 128.496Z" fill="#3F3D56"/>
<path d="M83.4156 126.192H68.9341V126.52H83.4156V126.192Z" fill="#3F3D56"/>
<path d="M82.666 123.892L68.5923 124.108L68.5952 124.436L82.6689 124.219L82.666 123.892Z" fill="#3F3D56"/>
<path d="M81.9151 121.6L68.2779 122.195L68.2862 122.523L81.9234 121.927L81.9151 121.6Z" fill="#3F3D56"/>
<path d="M81.4185 119.317L67.9521 119.628L67.9565 119.956L81.4229 119.645L81.4185 119.317Z" fill="#3F3D56"/>
<path d="M80.4191 117.047L67.5249 117.577L67.5327 117.904L80.4269 117.375L80.4191 117.047Z" fill="#3F3D56"/>
<path d="M79.9231 115.048L67.1427 115.212L67.1451 115.54L79.9256 115.376L79.9231 115.048Z" fill="#3F3D56"/>
<path d="M66.2087 108.299V86.0723C66.2087 84.7904 67.0022 83.7476 67.9775 83.7476H76.1608C77.1359 83.7476 77.9293 84.7904 77.9293 86.0723V108.299C77.9293 109.581 77.1359 110.623 76.1608 110.623H67.9775C67.0022 110.623 66.2087 109.581 66.2087 108.299Z" fill="#FF8063"/>
<path d="M47.146 140.776L32.6599 139.563L32.5433 139.554V124.819C32.5433 122.955 33.6969 121.439 35.1147 121.439H49.4233C50.8411 121.439 51.9945 122.955 51.9945 124.819V140.777H51.8698L47.146 140.776Z" fill="#CCCCCC"/>
<path d="M67.2062 67.985V51.0023C67.2062 49.7205 67.9997 48.6777 68.975 48.6777H71.6721C72.6472 48.6777 73.4406 49.7205 73.4406 51.0023V67.985C73.4406 69.2668 72.6472 70.3096 71.6721 70.3096H68.975C67.9997 70.3096 67.2062 69.2668 67.2062 67.985Z" fill="#3F3D56"/>
<path d="M69.9494 142.416L69.2013 127.994L66.9569 114.229L66.3335 110.46C65.0524 109.315 63.3272 110.588 63.4046 112.622L63.4657 114.229L65.7101 127.994L66.4582 142.416" fill="#CCCCCC"/>
<path d="M24.3146 138.81L25.1631 118.069C25.1631 118.069 52.992 110.486 52.992 88.6298C52.992 66.7735 7.5155 64.0972 2.93391 74.1333C2.8881 74.2337 2.84256 74.334 2.7973 74.4343C-2.86164 86.9776 0.333329 103.262 9.96291 110.506C13.2557 112.983 17.1817 115.102 21.7693 116.285L21.4462 138.318" fill="#CCCCCC"/>
<path d="M6.28212 137.053L6.24997 137.707L233.15 156.966L233.182 156.311L6.28212 137.053Z" fill="#CCCCCC"/>
</g>
<defs>
<clipPath id="clip0_51_1930">
<rect width="249" height="157" rx="13" fill="white"/>
</clipPath>
</defs>
</svg>
