<svg width="170" height="170" viewBox="0 0 170 170" fill="none" xmlns="http://www.w3.org/2000/svg">
<g clip-path="url(#clip0_41_1036)">
<path d="M94.9237 123.736L98.9695 98.4496L71.6605 87.3237L67.6147 125.759L94.9237 123.736Z" fill="#A0616A"/>
<path d="M122.37 161.105C120.026 162.248 117.636 163.28 115.211 164.195C110.361 166.031 105.355 167.415 100.219 168.34C95.1989 169.246 90.0451 169.706 84.8913 169.706C77.9287 169.706 71.0064 168.871 64.3118 167.219C61.6903 166.576 59.0463 165.79 56.4472 164.874C56.1747 164.776 55.8979 164.678 55.6254 164.579C52.4009 163.409 49.23 162.038 46.1798 160.489C45.7688 160.283 45.358 160.073 44.9471 159.85C44.4916 159.618 44.0405 159.372 43.585 159.117C43.0044 158.8 42.4282 158.47 41.8521 158.135C39.9229 157.018 38.0248 155.812 36.2116 154.558L36.091 154.477C35.9838 154.402 35.8766 154.33 35.7739 154.254C35.8408 153.901 35.9034 153.579 35.9614 153.294C36.1847 152.173 36.3322 151.557 36.3322 151.557L48.5601 126.296L51.9677 119.258L53.6291 118.575L66.1787 113.417H96.8513L106.529 117.418C106.529 117.418 106.578 117.601 106.677 117.954C107.641 121.415 113.268 141.066 122 160.292C122.12 160.56 122.245 160.832 122.37 161.105Z" fill="#FF8063"/>
<path d="M88.0225 106.578C103.403 106.578 115.871 94.1099 115.871 78.7295C115.871 63.3491 103.403 50.8809 88.0225 50.8809C72.6421 50.8809 60.1739 63.3491 60.1739 78.7295C60.1739 94.1099 72.6421 106.578 88.0225 106.578Z" fill="#A0616A"/>
<path d="M53.6778 118.335L53.6299 118.575L45.1395 158.943L45.066 159.295L44.9477 159.851C44.4908 159.617 44.0402 159.371 43.5865 159.119C43.0049 158.799 42.4297 158.47 41.8513 158.135C39.9244 157.02 38.0263 155.812 36.2113 154.559L36.0899 154.476C35.9844 154.402 35.8758 154.329 35.7735 154.255C34.3867 153.287 33.035 152.277 31.7152 151.236C31.7056 151.229 31.6993 151.223 31.6897 151.213C29.3346 149.315 27.0658 147.273 24.896 145.104C23.4964 143.704 22.1511 142.263 20.8633 140.783L21.0583 139.965L21.0775 139.882L21.3203 138.84C23.4805 129.717 30.7885 122.716 39.9947 120.952L52.2271 118.61L53.6778 118.335Z" fill="#FF8063"/>
<path d="M140.409 149.301C136.804 152.369 132.941 155.147 128.864 157.586C128.466 157.827 128.06 158.063 127.654 158.3C125.921 159.301 124.157 160.234 122.37 161.105C120.026 162.248 117.636 163.28 115.211 164.195L115.024 163.311L105.435 117.717L106.677 117.954L119.119 120.339C128.323 122.103 135.634 129.106 137.791 138.23L140.172 148.31L140.409 149.301Z" fill="#FF8063"/>
<path d="M120.093 86.174C119.369 88.8715 115.729 100.925 106.409 103.462C104.578 103.962 100.21 104.538 101.367 103.462C101.63 103.216 101.885 102.975 102.139 102.738C112.255 93.2258 116.381 87.4113 114.497 74.5043C113.3 66.2866 99.6694 58.8239 92.0012 58.0824C88.7678 57.7702 84.6412 58.864 81.917 61.6823C77.4196 66.3267 78.1609 80.5827 75.669 88.9565C74.9991 91.1982 74.1014 93.0204 72.8107 94.1234C72.0067 94.8112 71.4932 93.9359 71.1135 92.5023C70.3053 89.4563 70.0954 83.8786 68.9476 85.4548C65.6294 90.0237 68.7912 96.0795 69.747 98.4154C69.9435 98.8934 70.1444 99.3531 70.3454 99.791V99.7953C70.4615 100.045 70.5821 100.296 70.6982 100.532V100.537C73.8869 107.039 77.7188 109.366 81.0952 113.417C82.4216 115.002 83.6765 116.847 84.7975 119.312C85.5657 121 86.1195 122.697 86.4991 124.363C88.4328 132.714 86.1373 140.302 85.5165 142.366C84.2169 146.662 81.9839 154.044 75.4323 158.211C67.2058 163.445 59.6984 158.832 56.1077 163.803C56.063 163.861 56.0228 163.919 55.9827 163.977C55.8487 164.178 55.7281 164.379 55.6254 164.579C52.4009 163.41 49.23 162.038 46.1798 160.489C45.7688 160.283 45.358 160.073 44.9471 159.85C44.4916 159.618 44.0405 159.372 43.585 159.118C43.5671 158.769 43.5492 158.421 43.5358 158.068C43.2724 152.026 43.6698 145.385 45.1749 138.761C46.1395 134.532 47.0953 130.338 48.5601 126.297C49.5159 123.662 50.6859 121.089 52.2267 118.611C53.4594 116.619 54.9242 114.685 56.7016 112.827C60.6051 108.75 64.0752 107.048 64.6245 102.743C65.4104 96.5976 59.0106 94.7488 56.7016 85.4547C55.1252 79.0998 53.4772 69.9401 55.0761 63.7679C56.5856 57.9354 57.8986 52.8754 62.2798 47.9178C63.3337 46.7298 71.9845 38.4676 82.0062 37.1099C86.6241 36.4893 90.7418 42.4025 96.3244 43.6751C102.742 45.1357 106.418 45.9709 110.008 48.7173C116.078 53.353 117.788 60.2845 119.373 66.7244C120.615 71.7623 122.223 78.2782 120.093 86.174Z" fill="#2F2E41"/>
<path d="M145.104 24.896C129.05 8.84191 107.704 0 85 0C62.2961 0 40.9502 8.84191 24.896 24.896C8.84191 40.9502 0 62.2961 0 85C0 105.723 7.3656 125.314 20.8633 140.784C22.1511 142.263 23.4964 143.704 24.896 145.104C27.0658 147.274 29.3346 149.316 31.6897 151.214C31.6993 151.223 31.7056 151.23 31.7152 151.236C46.7692 163.395 65.3765 170 85 170C107.704 170 129.05 161.158 145.104 145.104C161.158 129.05 170 107.704 170 85C170 62.2961 161.158 40.9502 145.104 24.896ZM140.263 148.686C134.808 153.431 128.737 157.483 122.189 160.711C119.892 161.845 117.536 162.877 115.127 163.801C105.767 167.392 95.609 169.361 85 169.361C74.7617 169.361 64.9451 167.527 55.8603 164.171C52.1312 162.797 48.5267 161.164 45.066 159.295C44.5579 159.02 44.053 158.742 43.5513 158.458C40.9118 156.962 38.3586 155.329 35.9077 153.566C30.4306 149.635 25.4425 145.066 21.0583 139.966C8.33704 125.19 0.639098 105.978 0.639098 85C0.639098 38.4833 38.4833 0.639098 85 0.639098C131.517 0.639098 169.361 38.4833 169.361 85C169.361 110.398 158.081 133.21 140.263 148.686Z" fill="#3F3D56"/>
</g>
<defs>
<clipPath id="clip0_41_1036">
<rect width="170" height="170" fill="white"/>
</clipPath>
</defs>
</svg>
