<svg width="82" height="75" viewBox="0 0 82 75" fill="none" xmlns="http://www.w3.org/2000/svg">
<g clip-path="url(#clip0_81_1412)">
<path d="M69.6174 6.9613L2.84766 27.3738L4.70334 33.4438L71.4731 13.0313L69.6174 6.9613Z" fill="#3F3D56"/>
<path d="M11.2247 55.2575L0.89844 21.4801C0.821884 21.2297 0.847946 20.9591 0.97089 20.7279C1.09383 20.4967 1.30359 20.3238 1.55401 20.2472L66.7051 0.329562C66.9555 0.253252 67.226 0.279416 67.4571 0.402316C67.6883 0.525215 67.8612 0.734806 67.938 0.985082L77.0863 30.9094L76.8165 30.9919L67.6682 1.06757C67.6133 0.888881 67.4897 0.739259 67.3246 0.651487C67.1596 0.563715 66.9664 0.544949 66.7876 0.599303L1.63649 20.517C1.45761 20.5717 1.30779 20.6952 1.21997 20.8603C1.13215 21.0255 1.11354 21.2187 1.16822 21.3976L11.4945 55.175L11.2247 55.2575Z" fill="#3F3D56"/>
<path d="M62.6122 31.2397C62.4138 31.2421 62.2199 31.1802 62.0596 31.0632C61.8993 30.9462 61.7812 30.7805 61.723 30.5908L59.991 24.9255C59.9202 24.693 59.9445 24.4419 60.0587 24.2272C60.1728 24.0126 60.3674 23.852 60.5997 23.7807L66.2651 22.0487C66.4976 21.9779 66.7487 22.0023 66.9633 22.1164C67.178 22.2306 67.3385 22.4252 67.4099 22.6576L69.1418 28.3229C69.2126 28.5554 69.1883 28.8065 69.0742 29.0211C68.9601 29.2357 68.7655 29.3963 68.5331 29.4677L62.8678 31.1996C62.7849 31.225 62.6989 31.2385 62.6122 31.2397Z" fill="#FF8063"/>
<path d="M10.6262 21.4566C10.6084 21.3983 10.5874 21.3412 10.5633 21.2853C10.3992 20.9014 10.099 20.5918 9.72048 20.4158C9.34193 20.2398 8.9117 20.2099 8.51246 20.3319C8.11322 20.4539 7.77314 20.7191 7.55756 21.0766C7.34198 21.434 7.26611 21.8586 7.34454 22.2686C7.35558 22.3284 7.37002 22.3876 7.38778 22.4458C7.49541 22.796 7.71358 23.1019 8.00963 23.3177C8.30567 23.5335 8.66367 23.6476 9.02999 23.6429C9.18994 23.6412 9.34879 23.6163 9.5016 23.569C9.93052 23.4375 10.2898 23.1413 10.5006 22.7453C10.7114 22.3493 10.7566 21.8858 10.6262 21.4566ZM9.41904 23.2992C9.06133 23.4082 8.67501 23.3708 8.34479 23.1954C8.01458 23.0199 7.76743 22.7207 7.65753 22.3632C7.64025 22.305 7.62627 22.2458 7.61566 22.186C7.5583 21.8481 7.62598 21.5009 7.80605 21.2092C7.98613 20.9176 8.26626 20.7015 8.59407 20.6014C8.92189 20.5014 9.27494 20.5241 9.5872 20.6654C9.89947 20.8067 10.1496 21.057 10.2907 21.3693C10.317 21.4241 10.339 21.4809 10.3565 21.5391C10.4653 21.8968 10.4277 22.2831 10.2519 22.6131C10.0762 22.9431 9.7766 23.1899 9.41904 23.2992Z" fill="#FF8063"/>
<path d="M6.49108 22.72C6.39674 22.4112 6.40105 22.0807 6.50343 21.7745C6.6058 21.4683 6.80113 21.2016 7.06221 21.0116C6.81515 21.0029 6.56956 21.0533 6.34591 21.1586C6.12227 21.264 5.92703 21.4212 5.77648 21.6173C5.62592 21.8134 5.52439 22.0426 5.48036 22.2859C5.43633 22.5292 5.45107 22.7794 5.52335 23.0158C5.59563 23.2523 5.72335 23.468 5.89588 23.645C6.06841 23.8221 6.28075 23.9554 6.51522 24.0337C6.74968 24.1121 6.99948 24.1333 7.2438 24.0956C7.48813 24.0579 7.71991 23.9624 7.91983 23.8169C7.59716 23.8054 7.28611 23.6936 7.03002 23.497C6.77392 23.3003 6.58553 23.0287 6.49108 22.72Z" fill="#FF8063"/>
<path d="M50.4269 29.132C50.3955 29.0245 50.3431 28.9242 50.2729 28.8369C50.2027 28.7496 50.1159 28.677 50.0176 28.6233C49.9193 28.5695 49.8113 28.5357 49.6999 28.5237C49.5885 28.5118 49.4759 28.5219 49.3684 28.5535L40.0393 31.296L39.0346 31.5914L45.3673 31.5079L46.372 31.2125L49.8498 30.1905C50.0666 30.1265 50.2491 29.9791 50.3573 29.7806C50.4655 29.5822 50.4906 29.3489 50.4269 29.132Z" fill="#CCCCCC"/>
<path d="M43.7765 27.2631C43.7126 27.0463 43.5652 26.8636 43.3667 26.7554C43.1682 26.6472 42.9348 26.6222 42.7179 26.686L28.7195 30.8006C28.5239 30.8588 28.3555 30.985 28.2447 31.1564C28.134 31.3278 28.0881 31.5331 28.1153 31.7353L31.7527 31.6874L32.7588 31.392L43.1994 28.3231C43.4164 28.2589 43.599 28.1112 43.7072 27.9125C43.8154 27.7138 43.8403 27.4802 43.7765 27.2631Z" fill="#CCCCCC"/>
<path d="M80.0004 30.7689L11.8786 31.6669C11.6168 31.6707 11.3672 31.7781 11.1846 31.9656C11.002 32.1531 10.9012 32.4054 10.9043 32.6672L11.436 73.0043C11.4398 73.2661 11.5472 73.5156 11.7347 73.6983C11.9222 73.8809 12.1746 73.9817 12.4363 73.9786L80.5581 73.0806C80.8199 73.0768 81.0695 72.9694 81.2521 72.7819C81.4348 72.5944 81.5356 72.3421 81.5324 72.0803L81.0007 31.7432C80.9969 31.4815 80.8895 31.2319 80.702 31.0492C80.5145 30.8666 80.2621 30.7658 80.0004 30.7689ZM81.2503 72.084C81.2527 72.271 81.1808 72.4513 81.0503 72.5853C80.9198 72.7193 80.7414 72.796 80.5544 72.7985L12.4326 73.6965C12.2456 73.6989 12.0653 73.6269 11.9313 73.4964C11.7973 73.3659 11.7206 73.1876 11.7181 73.0006L11.1864 32.6635C11.184 32.4765 11.256 32.2962 11.3865 32.1622C11.5169 32.0282 11.6953 31.9515 11.8823 31.949L80.0041 31.051C80.1911 31.0486 80.3714 31.1206 80.5054 31.2511C80.6394 31.3816 80.7161 31.5599 80.7186 31.7469L81.2503 72.084Z" fill="#3F3D56"/>
<path d="M18.5794 37.0803C18.2446 37.0847 17.9161 36.9897 17.6353 36.8074C17.3546 36.6251 17.1341 36.3637 17.002 36.0561C16.8698 35.7485 16.8318 35.4087 16.8928 35.0795C16.9537 34.7503 17.111 34.4466 17.3445 34.2068C17.5781 33.967 17.8776 33.8018 18.205 33.7322C18.5324 33.6626 18.8732 33.6916 19.1841 33.8156C19.4951 33.9397 19.7623 34.1531 19.9519 34.429C20.1415 34.7048 20.2451 35.0308 20.2495 35.3655C20.2549 35.8142 20.0821 36.2468 19.769 36.5682C19.4559 36.8897 19.0281 37.0738 18.5794 37.0803ZM18.5385 33.9774C18.2595 33.9811 17.9879 34.0674 17.758 34.2254C17.5281 34.3835 17.3503 34.6061 17.2469 34.8653C17.1436 35.1244 17.1194 35.4083 17.1774 35.6812C17.2354 35.9541 17.3731 36.2036 17.5729 36.3982C17.7728 36.5929 18.0258 36.7239 18.3001 36.7747C18.5744 36.8255 18.8577 36.7939 19.114 36.6837C19.3703 36.5736 19.5882 36.3899 19.7401 36.1559C19.892 35.9219 19.9711 35.6482 19.9674 35.3692C19.9621 34.9953 19.8086 34.6388 19.5408 34.3778C19.2729 34.1169 18.9124 33.9729 18.5385 33.9774Z" fill="#FF8063"/>
<path d="M15.9264 35.4225C15.9222 35.0996 16.0188 34.7835 16.2027 34.5182C16.3866 34.2528 16.6488 34.0514 16.9526 33.9421C16.7178 33.8646 16.4679 33.8442 16.2237 33.8828C15.9796 33.9214 15.7481 34.0178 15.5487 34.1639C15.3493 34.3101 15.1877 34.5018 15.0774 34.723C14.9671 34.9442 14.9112 35.1886 14.9145 35.4358C14.9178 35.683 14.98 35.9259 15.0961 36.1441C15.2123 36.3624 15.3789 36.5497 15.582 36.6906C15.7852 36.8314 16.0191 36.9216 16.2642 36.9538C16.5093 36.9859 16.7586 36.959 16.9912 36.8753C16.6846 36.774 16.4173 36.5796 16.2264 36.3192C16.0356 36.0588 15.9307 35.7453 15.9264 35.4225Z" fill="#FF8063"/>
<path d="M25.6813 55.2936C25.3447 55.2977 25.0203 55.1681 24.7792 54.9333C24.5381 54.6984 24.4 54.3775 24.3952 54.041L24.345 50.233C24.3405 49.8963 24.47 49.5717 24.7049 49.3305C24.9398 49.0893 25.2609 48.9513 25.5976 48.9469C25.9342 48.9425 26.2589 49.0719 26.5001 49.3068C26.7412 49.5418 26.8792 49.8629 26.8837 50.1995L26.9339 54.0076C26.9379 54.3441 26.8083 54.6685 26.5735 54.9096C26.3387 55.1507 26.0178 55.2888 25.6813 55.2936Z" fill="#FF8063"/>
<path d="M29.0663 55.2491C28.7297 55.2531 28.4053 55.1235 28.1642 54.8887C27.9231 54.6539 27.785 54.333 27.7802 53.9965L27.73 50.1884C27.7256 49.8518 27.855 49.5271 28.0899 49.286C28.3248 49.0448 28.6459 48.9068 28.9826 48.9023C29.3193 48.8979 29.6439 49.0274 29.8851 49.2623C30.1263 49.4972 30.2642 49.8183 30.2687 50.155L30.3189 53.963C30.3229 54.2995 30.1933 54.6239 29.9585 54.865C29.7237 55.1061 29.4028 55.2443 29.0663 55.2491Z" fill="#FF8063"/>
<path d="M32.4512 55.2044C32.1146 55.2085 31.7902 55.0789 31.5491 54.844C31.308 54.6092 31.1699 54.2883 31.1651 53.9518L31.1149 50.1437C31.1104 49.8071 31.2399 49.4825 31.4748 49.2413C31.7097 49.0001 32.0308 48.8621 32.3675 48.8577C32.7041 48.8532 33.0288 48.9827 33.27 49.2176C33.5111 49.4525 33.6491 49.7736 33.6536 50.1103L33.7038 53.9183C33.7078 54.2549 33.5782 54.5793 33.3434 54.8204C33.1086 55.0615 32.7877 55.1996 32.4512 55.2044Z" fill="#FF8063"/>
<path d="M37.6697 55.1356C37.3331 55.1396 37.0087 55.01 36.7676 54.7752C36.5265 54.5403 36.3884 54.2195 36.3836 53.8829L36.3334 50.0749C36.3289 49.7382 36.4584 49.4136 36.6933 49.1724C36.9282 48.9312 37.2493 48.7932 37.586 48.7888C37.9227 48.7844 38.2473 48.9139 38.4885 49.1488C38.7297 49.3837 38.8676 49.7048 38.8721 50.0414L38.9223 53.8495C38.9263 54.186 38.7967 54.5104 38.5619 54.7515C38.3271 54.9926 38.0062 55.1307 37.6697 55.1356Z" fill="#FF8063"/>
<path d="M41.0546 55.091C40.718 55.0951 40.3936 54.9654 40.1525 54.7306C39.9114 54.4958 39.7733 54.1749 39.7685 53.8384L39.7183 50.0303C39.7138 49.6937 39.8433 49.3691 40.0782 49.1279C40.3131 48.8867 40.6342 48.7487 40.9709 48.7443C41.3075 48.7398 41.6322 48.8693 41.8734 49.1042C42.1145 49.3391 42.2525 49.6602 42.257 49.9969L42.3072 53.8049C42.3112 54.1415 42.1816 54.4659 41.9468 54.707C41.712 54.9481 41.3911 55.0862 41.0546 55.091Z" fill="#FF8063"/>
<path d="M44.4394 55.0463C44.1029 55.0504 43.7785 54.9208 43.5374 54.6859C43.2963 54.4511 43.1582 54.1302 43.1534 53.7937L43.1032 49.9857C43.0987 49.649 43.2282 49.3244 43.4631 49.0832C43.698 48.842 44.0191 48.704 44.3558 48.6996C44.6924 48.6951 45.0171 48.8246 45.2582 49.0595C45.4994 49.2944 45.6374 49.6155 45.6419 49.9522L45.6921 53.7602C45.6961 54.0968 45.5665 54.4212 45.3317 54.6623C45.0968 54.9034 44.776 55.0415 44.4394 55.0463Z" fill="#FF8063"/>
<path d="M49.6579 54.9776C49.3214 54.9816 48.997 54.852 48.7559 54.6172C48.5148 54.3824 48.3767 54.0615 48.3719 53.725L48.3217 49.9169C48.3172 49.5803 48.4467 49.2557 48.6816 49.0145C48.9165 48.7733 49.2376 48.6353 49.5743 48.6309C49.9109 48.6264 50.2356 48.7559 50.4767 48.9908C50.7179 49.2257 50.8559 49.5468 50.8604 49.8835L50.9106 53.6915C50.9146 54.0281 50.785 54.3525 50.5502 54.5936C50.3154 54.8347 49.9945 54.9728 49.6579 54.9776Z" fill="#FF8063"/>
<path d="M53.0428 54.9329C52.7063 54.937 52.3819 54.8074 52.1408 54.5725C51.8997 54.3377 51.7616 54.0168 51.7567 53.6803L51.7066 49.8723C51.7021 49.5356 51.8316 49.211 52.0665 48.9698C52.3014 48.7286 52.6225 48.5906 52.9592 48.5862C53.2958 48.5817 53.6204 48.7112 53.8616 48.9461C54.1028 49.181 54.2408 49.5021 54.2453 49.8388L54.2954 53.6468C54.2995 53.9834 54.1699 54.3078 53.9351 54.5489C53.7002 54.79 53.3794 54.9281 53.0428 54.9329Z" fill="#FF8063"/>
<path d="M56.4278 54.8884C56.0913 54.8924 55.7669 54.7628 55.5258 54.528C55.2847 54.2932 55.1466 53.9723 55.1418 53.6357L55.0916 49.8277C55.0871 49.491 55.2166 49.1664 55.4515 48.9252C55.6864 48.684 56.0075 48.5461 56.3442 48.5416C56.6808 48.5372 57.0055 48.6667 57.2466 48.9016C57.4878 49.1365 57.6258 49.4576 57.6303 49.7942L57.6805 53.6023C57.6845 53.9388 57.5549 54.2632 57.3201 54.5043C57.0852 54.7454 56.7644 54.8835 56.4278 54.8884Z" fill="#FF8063"/>
<path d="M61.6462 54.8195C61.3097 54.8236 60.9853 54.694 60.7442 54.4591C60.5031 54.2243 60.365 53.9034 60.3601 53.5669L60.3099 49.7589C60.3055 49.4222 60.435 49.0976 60.6699 48.8564C60.9048 48.6152 61.2259 48.4772 61.5626 48.4728C61.8992 48.4683 62.2238 48.5978 62.465 48.8327C62.7062 49.0676 62.8442 49.3887 62.8486 49.7254L62.8988 53.5334C62.9029 53.87 62.7733 54.1944 62.5385 54.4355C62.3036 54.6766 61.9828 54.8147 61.6462 54.8195Z" fill="#FF8063"/>
<path d="M65.0311 54.775C64.6946 54.779 64.3702 54.6494 64.1291 54.4146C63.888 54.1798 63.7499 53.8589 63.745 53.5223L63.6948 49.7143C63.6904 49.3776 63.8199 49.053 64.0548 48.8118C64.2897 48.5706 64.6108 48.4327 64.9475 48.4282C65.2841 48.4238 65.6087 48.5533 65.8499 48.7882C66.0911 49.0231 66.2291 49.3442 66.2335 49.6808L66.2837 53.4889C66.2878 53.8254 66.1582 54.1498 65.9233 54.3909C65.6885 54.632 65.3676 54.7701 65.0311 54.775Z" fill="#FF8063"/>
<path d="M68.4161 54.7303C68.0796 54.7343 67.7552 54.6047 67.5141 54.3699C67.273 54.1351 67.1349 53.8142 67.13 53.4777L67.0798 49.6696C67.0754 49.333 67.2049 49.0083 67.4398 48.7672C67.6747 48.526 67.9958 48.388 68.3325 48.3835C68.6691 48.3791 68.9937 48.5086 69.2349 48.7435C69.4761 48.9784 69.6141 49.2995 69.6185 49.6362L69.6687 53.4442C69.6728 53.7807 69.5432 54.1051 69.3084 54.3462C69.0735 54.5873 68.7527 54.7255 68.4161 54.7303Z" fill="#FF8063"/>
<path d="M34.4734 69.3076L16.2173 69.5482C15.9911 69.5512 15.773 69.4642 15.6109 69.3064C15.4489 69.1485 15.3561 68.9328 15.3532 68.7066C15.3502 68.4803 15.4372 68.2622 15.595 68.1002C15.7529 67.9381 15.9686 67.8454 16.1948 67.8424L34.4509 67.6017C34.6772 67.5988 34.8953 67.6858 35.0573 67.8436C35.2194 68.0014 35.3121 68.2172 35.3151 68.4434C35.3181 68.6696 35.2311 68.8877 35.0732 69.0498C34.9154 69.2119 34.6996 69.3046 34.4734 69.3076Z" fill="#E6E6E6"/>
<path d="M28.572 65.7177L22.0221 65.8041C21.7959 65.8071 21.5778 65.7201 21.4157 65.5622C21.2537 65.4044 21.161 65.1886 21.158 64.9624C21.155 64.7362 21.242 64.5181 21.3998 64.356C21.5577 64.194 21.7734 64.1012 21.9996 64.0983L28.5495 64.0119C28.7757 64.0089 28.9939 64.0959 29.1559 64.2538C29.318 64.4116 29.4107 64.6274 29.4137 64.8536C29.4167 65.0798 29.3297 65.2979 29.1718 65.46C29.014 65.622 28.7982 65.7148 28.572 65.7177Z" fill="#E6E6E6"/>
<path d="M80.7659 39.1916L11.2338 40.1082L11.2375 40.3902L80.7696 39.4737L80.7659 39.1916Z" fill="#3F3D56"/>
</g>
<defs>
<clipPath id="clip0_81_1412">
<rect width="80" height="72.9671" fill="white" transform="translate(0.590576 1.16125) rotate(-0.755228)"/>
</clipPath>
</defs>
</svg>
