<svg width="18" height="18" viewBox="0 0 18 18" fill="none" xmlns="http://www.w3.org/2000/svg">
<path d="M8.4375 15.75V14.25H6.9375V13.125H8.4375V11.2125C7.4125 11.075 6.5625 10.6156 5.8875 9.83438C5.2125 9.05313 4.875 8.14375 4.875 7.10625C4.875 5.96875 5.27813 5 6.08438 4.2C6.89063 3.4 7.8625 3 9 3C10.1375 3 11.1094 3.4 11.9156 4.2C12.7219 5 13.125 5.96875 13.125 7.10625C13.125 8.14375 12.7875 9.05313 12.1125 9.83438C11.4375 10.6156 10.5875 11.075 9.5625 11.2125V13.125H11.0625V14.25H9.5625V15.75H8.4375ZM9 10.125C9.825 10.125 10.5312 9.83125 11.1187 9.24375C11.7062 8.65625 12 7.95 12 7.125C12 6.3 11.7062 5.59375 11.1187 5.00625C10.5312 4.41875 9.825 4.125 9 4.125C8.175 4.125 7.46875 4.41875 6.88125 5.00625C6.29375 5.59375 6 6.3 6 7.125C6 7.95 6.29375 8.65625 6.88125 9.24375C7.46875 9.83125 8.175 10.125 9 10.125Z" fill="#434343"/>
</svg>
