<svg width="130" height="130" viewBox="0 0 130 130" fill="none" xmlns="http://www.w3.org/2000/svg">
<path d="M64.8647 118.896C58.1842 118.896 51.8873 117.632 45.9741 115.104C40.0609 112.576 34.9151 109.123 30.5366 104.745C26.1581 100.366 22.6825 95.2205 20.1095 89.3073C17.5366 83.3941 16.2502 77.0641 16.2502 70.3174C16.2502 63.5707 17.5366 57.2512 20.1095 51.3591C22.6825 45.4669 26.1581 40.309 30.5366 35.8854C34.9151 31.4618 40.0609 27.9861 45.9741 25.4583C51.8873 22.9306 58.1842 21.6667 64.8647 21.6667C71.5453 21.6667 77.8422 22.9306 83.7554 25.4583C89.6686 27.9861 94.837 31.4618 99.2606 35.8854C103.684 40.309 107.16 45.4669 109.688 51.3591C112.215 57.2512 113.479 63.5707 113.479 70.3174C113.479 77.0641 112.215 83.3941 109.688 89.3073C107.16 95.2205 103.684 100.366 99.2606 104.745C94.837 109.123 89.6686 112.576 83.7554 115.104C77.8422 117.632 71.5453 118.896 64.8647 118.896ZM81.2502 92.3542L86.9377 86.6667L69.3335 69.0625V43.3333H61.2085V72.3125L81.2502 92.3542ZM28.9793 12.5938L34.6668 18.2812L12.4585 39.6771L6.771 33.9896L28.9793 12.5938ZM100.75 12.5938L122.959 33.9896L117.271 39.6771L95.0627 18.2812L100.75 12.5938ZM64.8706 110.771C76.1514 110.771 85.7189 106.842 93.5731 98.9838C101.427 91.1257 105.354 81.5563 105.354 70.2754C105.354 58.9946 101.425 49.4271 93.5673 41.5729C85.7092 33.7188 76.1398 29.7917 64.8589 29.7917C53.5781 29.7917 44.0106 33.7207 36.1564 41.5787C28.3022 49.4368 24.3752 59.0062 24.3752 70.2871C24.3752 81.5679 28.3042 91.1354 36.1622 98.9896C44.0203 106.844 53.5897 110.771 64.8706 110.771Z" fill="#FF8063"/>
</svg>
