<svg width="32" height="32" viewBox="0 0 32 32" fill="none" xmlns="http://www.w3.org/2000/svg">
<path d="M15.0998 22.6667H17.0998V17.1333H22.6665V15.1333H17.0998V9.33334H15.0998V15.1333H9.33317V17.1333H15.0998V22.6667ZM16.0087 29.3333C14.1702 29.3333 12.4424 28.9833 10.8254 28.2833C9.20835 27.5833 7.79428 26.6278 6.58317 25.4167C5.37206 24.2056 4.4165 22.7907 3.7165 21.172C3.0165 19.5533 2.6665 17.8238 2.6665 15.9833C2.6665 14.1429 3.0165 12.4134 3.7165 10.7947C4.4165 9.17602 5.37206 7.76667 6.58317 6.56667C7.79428 5.36667 9.20918 4.41667 10.8279 3.71667C12.4465 3.01667 14.1761 2.66667 16.0165 2.66667C17.8569 2.66667 19.5865 3.01667 21.2051 3.71667C22.8238 4.41667 24.2332 5.36667 25.4332 6.56667C26.6332 7.76667 27.5832 9.17778 28.2832 10.8C28.9832 12.4222 29.3332 14.1526 29.3332 15.9911C29.3332 17.8297 28.9832 19.5574 28.2832 21.1745C27.5832 22.7915 26.6332 24.2035 25.4332 25.4105C24.2332 26.6176 22.8221 27.5731 21.1998 28.2772C19.5776 28.9813 17.8472 29.3333 16.0087 29.3333ZM16.0165 27.3333C19.1609 27.3333 21.8332 26.2278 24.0332 24.0167C26.2332 21.8056 27.3332 19.1278 27.3332 15.9833C27.3332 12.8389 26.2353 10.1667 24.0394 7.96667C21.8436 5.76667 19.1637 4.66667 15.9998 4.66667C12.8665 4.66667 10.1943 5.76458 7.98317 7.96041C5.77206 10.1562 4.6665 12.8361 4.6665 16C4.6665 19.1333 5.77206 21.8056 7.98317 24.0167C10.1943 26.2278 12.8721 27.3333 16.0165 27.3333Z" fill="#A65858"/>
</svg>
