<svg width="22" height="24" viewBox="0 0 22 24" fill="none" xmlns="http://www.w3.org/2000/svg">
<path d="M7.2047 17.75H14.4771V16.25H7.2047V17.75ZM7.2047 13.5H14.4771V12H7.2047V13.5ZM4.96876 22C4.6074 22 4.2912 21.85 4.02018 21.55C3.74916 21.25 3.61365 20.9 3.61365 20.5V3.5C3.61365 3.1 3.74916 2.75 4.02018 2.45C4.2912 2.15 4.6074 2 4.96876 2H13.122L18.0682 7.475V20.5C18.0682 20.9 17.9327 21.25 17.6617 21.55C17.3906 21.85 17.0744 22 16.7131 22H4.96876ZM12.4445 8.15V3.5H4.96876V20.5H16.7131V8.15H12.4445Z" fill="#999999"/>
</svg>
