<svg width="130" height="140" viewBox="0 0 130 140" fill="none" xmlns="http://www.w3.org/2000/svg">
<g clip-path="url(#clip0_15_7989)">
<path d="M82.5296 31.4016H47.5003C46.702 31.4027 45.9367 31.7521 45.3723 32.3732C44.8078 32.9942 44.4903 33.8363 44.4893 34.7146V120.378L44.0879 120.513L35.4946 123.408C35.0873 123.545 34.6475 123.498 34.2715 123.278C33.8956 123.058 33.6143 122.683 33.4894 122.236L7.92835 30.3658C7.80395 29.9176 7.84635 29.4335 8.04622 29.0198C8.24609 28.606 8.58707 28.2965 8.99423 28.1593L22.2364 23.6978L60.626 10.7682L73.8681 6.30667C74.0697 6.23843 74.2814 6.21458 74.4913 6.2365C74.7013 6.25841 74.9052 6.32566 75.0914 6.43439C75.2777 6.54311 75.4426 6.69119 75.5768 6.87014C75.711 7.04909 75.8118 7.25541 75.8735 7.47727L82.4072 30.9599L82.5296 31.4016Z" fill="#F2F2F2"/>
<path d="M90.1725 30.9608L82.2978 2.65886C82.1668 2.1873 81.9526 1.74876 81.6675 1.36831C81.3824 0.987862 81.032 0.672957 80.6362 0.441589C80.2405 0.210221 79.8072 0.0669229 79.3611 0.0198895C78.915 -0.027144 78.4648 0.0230085 78.0363 0.167476L59.4186 6.4379L21.0311 19.3697L2.41339 25.6423C1.54851 25.9345 0.824333 26.5924 0.399817 27.4715C-0.0246986 28.3506 -0.114872 29.3792 0.149095 30.3314L27.063 127.056C27.2774 127.824 27.7101 128.497 28.2975 128.975C28.8849 129.454 29.5962 129.712 30.3269 129.713C30.6651 129.713 31.0014 129.657 31.3245 129.547L44.0869 125.249L44.4884 125.112V124.651L44.0869 124.785L31.2061 129.125C30.4427 129.381 29.6181 129.294 28.9133 128.882C28.2085 128.47 27.6809 127.767 27.4464 126.928L0.534579 30.201C0.418374 29.7851 0.377874 29.3481 0.415395 28.9149C0.452917 28.4818 0.56772 28.061 0.753239 27.6767C0.938757 27.2925 1.19135 26.9522 1.49654 26.6755C1.80173 26.3988 2.15352 26.1911 2.53178 26.0642L21.1495 19.7916L59.5371 6.86197L78.1548 0.589337C78.4417 0.492994 78.74 0.443871 79.04 0.443564C79.6838 0.445154 80.3102 0.673521 80.8274 1.09522C81.3447 1.51691 81.7257 2.10977 81.9145 2.78697L89.753 30.9608L89.8774 31.4026H90.295L90.1725 30.9608Z" fill="#3F3D56"/>
<path d="M24.6254 28.2315C24.2385 28.2312 23.8619 28.0945 23.5508 27.8414C23.2397 27.5883 23.0105 27.2322 22.8968 26.8253L20.3114 17.533C20.2419 17.2834 20.2178 17.0212 20.2404 16.7613C20.2631 16.5015 20.332 16.249 20.4433 16.0185C20.5546 15.788 20.7061 15.5838 20.8891 15.4177C21.0721 15.2516 21.2831 15.1268 21.51 15.0504L56.8262 3.15364C57.2843 2.99981 57.7792 3.05227 58.2023 3.29951C58.6253 3.54675 58.9419 3.96856 59.0826 4.47237L61.668 13.7648C61.8077 14.2689 61.76 14.8134 61.5353 15.2788C61.3106 15.7442 60.9274 16.0926 60.4695 16.2475L25.1532 28.1442C24.9822 28.202 24.8043 28.2314 24.6254 28.2315Z" fill="#FF8063"/>
<path d="M38.1695 9.92903C40.3867 9.92903 42.1841 7.95131 42.1841 5.51168C42.1841 3.07204 40.3867 1.09433 38.1695 1.09433C35.9523 1.09433 34.1549 3.07204 34.1549 5.51168C34.1549 7.95131 35.9523 9.92903 38.1695 9.92903Z" fill="#FF8063"/>
<path d="M38.1694 8.30893C39.5734 8.30893 40.7115 7.05658 40.7115 5.51173C40.7115 3.96687 39.5734 2.71452 38.1694 2.71452C36.7654 2.71452 35.6272 3.96687 35.6272 5.51173C35.6272 7.05658 36.7654 8.30893 38.1694 8.30893Z" fill="white"/>
<path d="M120.967 128.583H53.1204C52.668 128.583 52.2344 128.385 51.9145 128.033C51.5946 127.681 51.4147 127.204 51.4142 126.706V37.2546C51.4147 36.7569 51.5946 36.2797 51.9145 35.9277C52.2343 35.5758 52.668 35.3778 53.1204 35.3772H120.967C121.419 35.3778 121.853 35.5758 122.173 35.9277C122.493 36.2797 122.673 36.7569 122.673 37.2546V126.706C122.673 127.204 122.493 127.681 122.173 128.033C121.853 128.385 121.419 128.583 120.967 128.583Z" fill="#E6E6E6"/>
<path d="M89.7535 30.9599H47.4998C46.5952 30.9613 45.728 31.3573 45.0883 32.0612C44.4486 32.765 44.0887 33.7192 44.0874 34.7146V124.784L44.4889 124.65V34.7146C44.4898 33.8363 44.8074 32.9942 45.3718 32.3732C45.9363 31.7521 46.7016 31.4027 47.4998 31.4016H89.8779L89.7535 30.9599ZM126.587 30.9599H47.4998C46.5952 30.9613 45.728 31.3573 45.0883 32.0612C44.4486 32.765 44.0887 33.7192 44.0874 34.7146V135.872C44.0887 136.867 44.4486 137.822 45.0883 138.525C45.728 139.229 46.5952 139.625 47.4998 139.627H126.587C127.492 139.625 128.359 139.229 128.999 138.525C129.639 137.822 129.999 136.867 130 135.872V34.7146C129.999 33.7192 129.639 32.765 128.999 32.0612C128.359 31.3573 127.492 30.9613 126.587 30.9599ZM129.598 135.872C129.597 136.75 129.28 137.592 128.715 138.213C128.151 138.834 127.386 139.184 126.587 139.185H47.4998C46.7016 139.184 45.9363 138.834 45.3718 138.213C44.8074 137.592 44.4898 136.75 44.4889 135.872V34.7146C44.4898 33.8363 44.8074 32.9942 45.3718 32.3732C45.9363 31.7521 46.7016 31.4027 47.4998 31.4016H126.587C127.386 31.4027 128.151 31.7521 128.715 32.3732C129.28 32.9942 129.597 33.8363 129.598 34.7146V135.872Z" fill="#3F3D56"/>
<path d="M105.511 40.6781H68.5766C68.0976 40.6775 67.6384 40.4678 67.2997 40.0952C66.9611 39.7225 66.7706 39.2173 66.77 38.6902V28.9721C66.7706 28.4451 66.9611 27.9398 67.2998 27.5671C67.6384 27.1945 68.0976 26.9849 68.5766 26.9843H105.511C105.99 26.9849 106.449 27.1945 106.788 27.5671C107.126 27.9398 107.317 28.4451 107.317 28.9721V38.6902C107.317 39.2173 107.126 39.7225 106.788 40.0952C106.449 40.4678 105.99 40.6775 105.511 40.6781Z" fill="#FF8063"/>
<path d="M87.0438 27.6469C89.261 27.6469 91.0584 25.6692 91.0584 23.2295C91.0584 20.7899 89.261 18.8122 87.0438 18.8122C84.8266 18.8122 83.0292 20.7899 83.0292 23.2295C83.0292 25.6692 84.8266 27.6469 87.0438 27.6469Z" fill="#FF8063"/>
<path d="M87.0435 25.9201C88.394 25.9201 89.4888 24.7155 89.4888 23.2295C89.4888 21.7436 88.394 20.539 87.0435 20.539C85.6931 20.539 84.5983 21.7436 84.5983 23.2295C84.5983 24.7155 85.6931 25.9201 87.0435 25.9201Z" fill="white"/>
</g>
<defs>
<clipPath id="clip0_15_7989">
<rect width="130" height="139.627" fill="white"/>
</clipPath>
</defs>
</svg>
