<svg width="22" height="22" viewBox="0 0 22 22" fill="none" xmlns="http://www.w3.org/2000/svg">
<path d="M17.7147 7.0125V5.04167H15.7439V3.66667H17.7147V1.67292H19.0897V3.66667H21.0835V5.04167H19.0897V7.0125H17.7147ZM2.1543 20.1667C1.78763 20.1667 1.4668 20.0292 1.1918 19.7542C0.916797 19.4792 0.779297 19.1583 0.779297 18.7917V7.03542C0.779297 6.68403 0.916797 6.36701 1.1918 6.08437C1.4668 5.80174 1.78763 5.66042 2.1543 5.66042H5.52305L7.19596 3.66667H13.6126V5.04167H7.83763L6.16471 7.03542H2.1543V18.7917H17.7376V9.16667H19.1126V18.7917C19.1126 19.1583 18.9713 19.4792 18.6887 19.7542C18.406 20.0292 18.089 20.1667 17.7376 20.1667H2.1543ZM9.93451 16.8208C11.0421 16.8208 11.9703 16.4465 12.7189 15.6979C13.4675 14.9493 13.8418 14.0212 13.8418 12.9135C13.8418 11.8059 13.4675 10.8816 12.7189 10.1406C11.9703 9.39965 11.0421 9.02917 9.93451 9.02917C8.82687 9.02917 7.90256 9.39965 7.16159 10.1406C6.42062 10.8816 6.05013 11.8059 6.05013 12.9135C6.05013 14.0212 6.42062 14.9493 7.16159 15.6979C7.90256 16.4465 8.82687 16.8208 9.93451 16.8208ZM9.93451 15.4458C9.20881 15.4458 8.60916 15.2052 8.13555 14.724C7.66194 14.2427 7.42513 13.6392 7.42513 12.9135C7.42513 12.1878 7.66194 11.5882 8.13555 11.1146C8.60916 10.641 9.20881 10.4042 9.93451 10.4042C10.6602 10.4042 11.2637 10.641 11.7449 11.1146C12.2262 11.5882 12.4668 12.1878 12.4668 12.9135C12.4668 13.6392 12.2262 14.2427 11.7449 14.724C11.2637 15.2052 10.6602 15.4458 9.93451 15.4458Z" fill="#999999"/>
</svg>
