<svg width="25" height="25" viewBox="0 0 25 25" fill="none" xmlns="http://www.w3.org/2000/svg">
<path d="M11.7969 17.7083H13.3594V11.4583H11.7969V17.7083ZM12.4996 9.53126C12.7429 9.53126 12.9471 9.4514 13.112 9.29168C13.277 9.13195 13.3594 8.93404 13.3594 8.69793C13.3594 8.44706 13.2771 8.23677 13.1125 8.06707C12.9479 7.89736 12.7439 7.81251 12.5005 7.81251C12.2571 7.81251 12.053 7.89736 11.8881 8.06707C11.7231 8.23677 11.6407 8.44706 11.6407 8.69793C11.6407 8.93404 11.723 9.13195 11.8876 9.29168C12.0522 9.4514 12.2562 9.53126 12.4996 9.53126ZM12.507 22.9167C11.0706 22.9167 9.72079 22.6432 8.45749 22.0964C7.19419 21.5495 6.08945 20.803 5.14327 19.8568C4.19709 18.9106 3.45056 17.8052 2.90369 16.5406C2.35681 15.276 2.08337 13.9248 2.08337 12.487C2.08337 11.0492 2.35681 9.69795 2.90369 8.43337C3.45056 7.16877 4.19709 6.06772 5.14327 5.13022C6.08945 4.19272 7.19484 3.45053 8.45944 2.90366C9.72403 2.35678 11.0752 2.08334 12.5131 2.08334C13.9509 2.08334 15.3021 2.35678 16.5667 2.90366C17.8313 3.45053 18.9323 4.19272 19.8698 5.13022C20.8073 6.06772 21.5495 7.17015 22.0964 8.43751C22.6433 9.70487 22.9167 11.0567 22.9167 12.4931C22.9167 13.9294 22.6433 15.2793 22.0964 16.5426C21.5495 17.8059 20.8073 18.909 19.8698 19.852C18.9323 20.795 17.8299 21.5415 16.5625 22.0916C15.2952 22.6416 13.9433 22.9167 12.507 22.9167ZM12.5131 21.3542C14.9697 21.3542 17.0573 20.4905 18.7761 18.763C20.4948 17.0356 21.3542 14.9436 21.3542 12.487C21.3542 10.0304 20.4965 7.94272 18.781 6.22397C17.0655 4.50522 14.9718 3.64584 12.5 3.64584C10.0521 3.64584 7.96445 4.50359 6.23702 6.21907C4.50959 7.93458 3.64587 10.0282 3.64587 12.5C3.64587 14.9479 4.50959 17.0356 6.23702 18.763C7.96445 20.4905 10.0565 21.3542 12.5131 21.3542Z" fill="#999999"/>
</svg>
