<svg width="18" height="18" viewBox="0 0 18 18" fill="none" xmlns="http://www.w3.org/2000/svg">
<path d="M15 3V7.125H13.875V4.93125L10.425 8.3625C10.6875 8.725 10.8906 9.12188 11.0344 9.55313C11.1781 9.98438 11.25 10.425 11.25 10.875C11.25 12.025 10.85 13 10.05 13.8C9.25 14.6 8.275 15 7.125 15C5.975 15 5 14.6 4.2 13.8C3.4 13 3 12.025 3 10.875C3 9.725 3.4 8.75 4.2 7.95C5 7.15 5.975 6.75 7.125 6.75C7.575 6.75 8.0125 6.82188 8.4375 6.96563C8.8625 7.10938 9.25625 7.3125 9.61875 7.575L13.0688 4.125H10.875V3H15ZM7.12879 7.875C6.30126 7.875 5.59375 8.16749 5.00625 8.75246C4.41875 9.33744 4.125 10.0437 4.125 10.8712C4.125 11.6987 4.41749 12.4062 5.00246 12.9938C5.58744 13.5813 6.29369 13.875 7.12121 13.875C7.94874 13.875 8.65625 13.5825 9.24375 12.9975C9.83125 12.4126 10.125 11.7063 10.125 10.8788C10.125 10.0513 9.83251 9.34375 9.24754 8.75625C8.66256 8.16875 7.95631 7.875 7.12879 7.875Z" fill="#3F3D56"/>
</svg>
