<svg width="48" height="48" viewBox="0 0 48 48" fill="none" xmlns="http://www.w3.org/2000/svg">
<path d="M46.1485 47.93H8.62751C7.60691 47.93 6.77661 46.9157 6.77661 45.6689V14.8564C6.77227 14.6213 6.82712 14.3896 6.93505 14.1869C7.04298 13.9843 7.19975 13.8187 7.38789 13.7087L21.5666 4.23017C22.3438 3.80417 23.1995 3.58203 24.0672 3.58106C24.9349 3.58009 25.7911 3.80031 26.5691 4.22458L47.3844 13.7077C47.5735 13.8174 47.7312 13.983 47.8398 14.186C47.9484 14.3891 48.0037 14.6215 47.9994 14.8573V45.6689C47.9994 46.9157 47.1691 47.93 46.1485 47.93Z" fill="#F2F2F2"/>
<path d="M40.6073 47.8967H8.38702C7.50699 47.8967 6.79102 47.1807 6.79102 46.3006V24.7624C6.79515 24.5829 6.84809 24.409 6.94293 24.2631C7.03777 24.1173 7.17015 24.0063 7.32285 23.9446L22.3253 17.3175C23.7038 16.7153 25.2382 16.7144 26.6172 17.3152L41.6705 23.9449C41.8235 24.0065 41.9561 24.1174 42.0511 24.2633C42.1461 24.4093 42.1991 24.5834 42.2033 24.7631V46.3006C42.2033 47.1807 41.4873 47.8967 40.6073 47.8967Z" fill="#FF8063"/>
<path d="M16.9767 33.0955V30.8679C16.9767 30.5774 16.8722 30.2988 16.6861 30.0933C16.5001 29.8879 16.2478 29.7725 15.9847 29.7725H10.8943C10.6313 29.7725 10.3789 29.8879 10.1929 30.0933C10.0069 30.2988 9.90234 30.5774 9.90234 30.8679V33.0955H16.9767Z" fill="white"/>
<path d="M9.90234 33.4453V36.8972C9.90234 37.1877 10.0069 37.4664 10.1929 37.6718C10.3789 37.8772 10.6313 37.9926 10.8943 37.9927H15.9847C16.2478 37.9926 16.5001 37.8772 16.6861 37.6718C16.8722 37.4664 16.9767 37.1877 16.9767 36.8972V33.4453H9.90234Z" fill="white"/>
<path d="M40.9777 26.9813L25.6949 20.7948C24.7661 20.4187 23.7465 20.4187 22.8177 20.7948L7.53494 26.9813C7.21283 27.1117 6.86699 27.1543 6.52678 27.1055C6.18658 27.0567 5.86207 26.9179 5.58082 26.701C5.29957 26.4841 5.0699 26.1954 4.91132 25.8594C4.75273 25.5235 4.66992 25.1502 4.66992 24.7714C4.66992 24.2893 4.80399 23.8188 5.05398 23.4236C5.30398 23.0284 5.65785 22.7274 6.06775 22.5615L22.8177 15.781C23.7465 15.405 24.7661 15.405 25.6949 15.781L42.4449 22.5615C42.8548 22.7274 43.2086 23.0284 43.4586 23.4236C43.7086 23.8188 43.8427 24.2893 43.8427 24.7714C43.8427 25.1502 43.7599 25.5235 43.6013 25.8594C43.4427 26.1954 43.213 26.4841 42.9318 26.701C42.6505 26.9179 42.326 27.0567 41.9858 27.1055C41.6456 27.1543 41.2998 27.1117 40.9777 26.9813Z" fill="#3F3D56"/>
<path d="M26.7255 48.0004H22.6409C22.2074 47.9998 21.7918 47.8094 21.4853 47.4709C21.1788 47.1324 21.0064 46.6735 21.0059 46.1948V35.2713C21.0064 34.7927 21.1788 34.3337 21.4853 33.9952C21.7918 33.6568 22.2074 33.4664 22.6409 33.4658H26.7255C27.1589 33.4664 27.5745 33.6568 27.881 33.9952C28.1876 34.3337 28.36 34.7927 28.3605 35.2713V46.1948C28.36 46.6735 28.1876 47.1324 27.881 47.4709C27.5745 47.8094 27.1589 47.9998 26.7255 48.0004ZM22.6409 33.7753C22.2817 33.7758 21.9374 33.9336 21.6834 34.214C21.4294 34.4945 21.2866 34.8747 21.2861 35.2713V46.1948C21.2866 46.5915 21.4294 46.9717 21.6834 47.2522C21.9374 47.5326 22.2817 47.6904 22.6409 47.6908H26.7255C27.0846 47.6904 27.429 47.5326 27.6829 47.2522C27.9369 46.9717 28.0798 46.5915 28.0802 46.1948V35.2713C28.0798 34.8747 27.9369 34.4945 27.6829 34.214C27.429 33.9336 27.0846 33.7758 26.7255 33.7753H22.6409Z" fill="#3F3D56"/>
<path d="M27.1225 10.233C27.0568 9.42093 26.7181 8.66542 26.1733 8.11516C25.6284 7.56491 24.9168 7.25977 24.1785 7.25977C23.4401 7.25977 22.7285 7.56491 22.1837 8.11516C21.6388 8.66542 21.3002 9.42093 21.2344 10.233H27.1225Z" fill="white"/>
<path d="M21.2227 10.583C21.2363 11.4386 21.5536 12.254 22.1063 12.8537C22.659 13.4534 23.4029 13.7894 24.1778 13.7894C24.9526 13.7894 25.6965 13.4534 26.2492 12.8537C26.8019 12.254 27.1192 11.4386 27.1329 10.583H21.2227Z" fill="white"/>
<path d="M26.6577 14.1904H21.6951C21.4587 14.1904 21.232 14.0867 21.0648 13.9021C20.8976 13.7175 20.8037 13.4671 20.8037 13.2061C20.8037 12.945 20.8976 12.6946 21.0648 12.51C21.232 12.3254 21.4587 12.2217 21.6951 12.2217H26.6577C26.8941 12.2217 27.1209 12.3254 27.288 12.51C27.4552 12.6946 27.5491 12.945 27.5491 13.2061C27.5491 13.4671 27.4552 13.7175 27.288 13.9021C27.1209 14.0867 26.8941 14.1904 26.6577 14.1904Z" fill="#CCCCCC"/>
<path d="M9.95325 36.8779C9.74162 36.8779 9.53864 36.9708 9.38899 37.136C9.23934 37.3013 9.15527 37.5254 9.15527 37.7591C9.15527 37.9928 9.23934 38.217 9.38899 38.3822C9.53864 38.5475 9.74162 38.6403 9.95325 38.6403H16.922C17.1336 38.6403 17.3366 38.5475 17.4863 38.3822C17.6359 38.217 17.72 37.9928 17.72 37.7591C17.72 37.5254 17.6359 37.3013 17.4863 37.136C17.3366 36.9708 17.1336 36.8779 16.922 36.8779H9.95325Z" fill="#CCCCCC"/>
<path d="M31.5996 33.4453V36.8972C31.5996 37.1877 31.7041 37.4664 31.8902 37.6718C32.0762 37.8772 32.3285 37.9926 32.5916 37.9927H37.682C37.945 37.9926 38.1974 37.8772 38.3834 37.6718C38.5694 37.4664 38.674 37.1877 38.674 36.8972V33.4453H31.5996Z" fill="white"/>
<path d="M38.674 33.0955V30.8679C38.674 30.5774 38.5694 30.2988 38.3834 30.0933C38.1974 29.8879 37.945 29.7725 37.682 29.7725H32.5916C32.3285 29.7725 32.0762 29.8879 31.8902 30.0933C31.7041 30.2988 31.5996 30.5774 31.5996 30.8679V33.0955H38.674Z" fill="white"/>
<path d="M27.112 41.0824C27.4327 41.0824 27.6927 40.7953 27.6927 40.4411C27.6927 40.0869 27.4327 39.7998 27.112 39.7998C26.7912 39.7998 26.5312 40.0869 26.5312 40.4411C26.5312 40.7953 26.7912 41.0824 27.112 41.0824Z" fill="#3F3D56"/>
<path d="M7.60481 40.854L5.31738 36.9248L5.42324 36.8496L7.59378 40.5782L9.36249 36.855L9.47386 36.9195L7.60481 40.854Z" fill="#3F3D56"/>
<path d="M9.46763 35.6364H4.0261V35.5322C4.0261 35.3635 3.996 35.1963 3.93752 35.0404C3.87903 34.8845 3.7933 34.7428 3.68523 34.6235C3.57717 34.5042 3.44887 34.4095 3.30768 34.3449C3.16648 34.2803 3.01514 34.2471 2.86231 34.2471C2.70948 34.2471 2.55814 34.2803 2.41694 34.3449C2.27574 34.4095 2.14745 34.5042 2.03938 34.6235C1.93131 34.7428 1.84558 34.8845 1.7871 35.0404C1.72861 35.1963 1.69851 35.3635 1.69851 35.5322V35.6364H1.1638C0.855139 35.6364 0.559124 35.7718 0.34087 36.0129C0.122616 36.2539 0 36.5808 0 36.9216C0 37.2625 0.122616 37.5893 0.34087 37.8304C0.559124 38.0714 0.855139 38.2068 1.1638 38.2068H1.69851V47.919C4.01745 47.8676 1.68172 47.9708 4.0261 47.919V38.2068H9.46763C9.77629 38.2068 10.0723 38.0714 10.2906 37.8304C10.5088 37.5893 10.6314 37.2625 10.6314 36.9216C10.6314 36.5808 10.5088 36.2539 10.2906 36.0129C10.0723 35.7718 9.77629 35.6364 9.46763 35.6364Z" fill="#3F3D56"/>
<path d="M10.1586 43.3299H5.12687C4.88921 43.3296 4.66136 43.2252 4.49331 43.0396C4.32526 42.8541 4.23073 42.6024 4.23047 42.34V40.5348C4.23074 40.2723 4.32527 40.0207 4.49332 39.8352C4.66137 39.6496 4.88922 39.5452 5.12687 39.5449H10.1586C10.3963 39.5452 10.6241 39.6496 10.7922 39.8352C10.9602 40.0207 11.0548 40.2723 11.055 40.5348V42.34C11.0548 42.6024 10.9602 42.8541 10.7922 43.0396C10.6241 43.2252 10.3963 43.3296 10.1586 43.3299Z" fill="#CCCCCC"/>
<path d="M9.21445 40.9854H6.00615C5.81506 40.9854 5.66016 41.1564 5.66016 41.3674C5.66016 41.5784 5.81506 41.7495 6.00615 41.7495H9.21445C9.40554 41.7495 9.56044 41.5784 9.56044 41.3674C9.56044 41.1564 9.40554 40.9854 9.21445 40.9854Z" fill="#FF8063"/>
<path d="M38.5691 38.7431H31.6004C31.364 38.7431 31.1372 38.6394 30.9701 38.4548C30.8029 38.2702 30.709 38.0198 30.709 37.7588C30.709 37.4977 30.8029 37.2473 30.9701 37.0627C31.1372 36.8781 31.364 36.7744 31.6004 36.7744H38.5691C38.8055 36.7744 39.0323 36.8781 39.1995 37.0627C39.3666 37.2473 39.4605 37.4977 39.4605 37.7588C39.4605 38.0198 39.3666 38.2702 39.1995 38.4548C39.0323 38.6394 38.8055 38.7431 38.5691 38.7431Z" fill="#CCCCCC"/>
<path d="M47.9285 15.8844C47.9285 15.8844 46.2385 15.752 42.7899 15.5749C38.679 7.63059 25.3184 5.7157 25.3184 1.41686e-05V0H41.74C43.383 0 44.9588 0.72076 46.1206 2.00372C47.2824 3.28668 47.935 5.02675 47.935 6.84113L47.9285 15.8844Z" fill="#CCCCCC"/>
<path d="M33.6851 2.08887C33.6479 2.08891 33.6123 2.10523 33.586 2.13424C33.5597 2.16326 33.545 2.2026 33.5449 2.24363V7.41052C33.545 7.45155 33.5597 7.49088 33.586 7.5199C33.6123 7.54891 33.6479 7.56523 33.6851 7.56528H36.5996C36.6367 7.56523 36.6724 7.54891 36.6986 7.5199C36.7249 7.49088 36.7397 7.45155 36.7397 7.41052V2.24363C36.7397 2.2026 36.7249 2.16326 36.6986 2.13424C36.6724 2.10523 36.6367 2.08891 36.5996 2.08887H33.6851Z" fill="#F2F2F2"/>
<path d="M41.7804 15.4677L26.4977 5.29574C25.5688 4.91973 24.5493 4.91973 23.6204 5.29574L8.33767 15.4677C8.01557 15.5981 7.66972 15.6407 7.32952 15.5919C6.98931 15.5431 6.6648 15.4043 6.38356 15.1874C6.10231 14.9705 5.87264 14.6818 5.71405 14.3458C5.55547 14.0099 5.47266 13.6367 5.47266 13.2578C5.47266 12.7757 5.60672 12.3052 5.85672 11.91C6.10671 11.5148 6.46058 11.2138 6.87048 11.0479L23.6204 0.28201C24.5493 -0.0940034 25.5688 -0.0940034 26.4977 0.28201L43.2476 11.0479C43.6575 11.2138 44.0114 11.5148 44.2614 11.91C44.5114 12.3052 44.6454 12.7757 44.6454 13.2578C44.6454 13.6367 44.5626 14.0099 44.404 14.3458C44.2454 14.6818 44.0158 14.9705 43.7345 15.1874C43.4533 15.4043 43.1288 15.5431 42.7886 15.5919C42.4484 15.6407 42.1025 15.5981 41.7804 15.4677Z" fill="#CCCCCC"/>
</svg>
