<svg width="227" height="98" viewBox="0 0 227 98" fill="none" xmlns="http://www.w3.org/2000/svg">
<g clip-path="url(#clip0_2301_296)">
<path d="M200.856 97.4887L201.63 84.542C201.63 84.542 227 79.8088 227 66.166C227 52.5233 185.542 50.8527 181.365 57.1172C181.323 57.1799 181.281 57.2425 181.24 57.3051C176.081 65.1347 178.994 75.2996 187.773 79.8212C190.775 81.3673 194.354 82.6903 198.536 83.4283L198.241 97.1819" fill="#CCCCCC"/>
<path d="M177.326 26.8047C185.236 26.8047 191.648 21.0341 191.648 13.9158C191.648 6.79742 185.236 1.02686 177.326 1.02686C169.416 1.02686 163.003 6.79742 163.003 13.9158C163.003 21.0341 169.416 26.8047 177.326 26.8047Z" fill="#FF6884"/>
<path d="M156.197 94.4201L140.043 93.4934L139.172 28.128C139.151 26.5415 139.854 24.9879 141.101 23.8659L158.406 8.29268C160.829 6.11286 164.641 5.95533 167.275 7.92716L186.056 21.986C187.588 23.1329 188.453 24.8192 188.429 26.6125L187.784 75.7706L195.947 85.9725L195.964 85.9941L197.347 96.7806L156.197 94.4201V94.4201Z" fill="#E6E6E6"/>
<path d="M158.911 23.5123V20.4813C158.911 19.6812 159.635 19.0303 160.524 19.0303H165.256C166.145 19.0303 166.868 19.6812 166.868 20.4813V23.5123C166.868 24.3123 166.145 24.9633 165.256 24.9633H160.524C159.635 24.9633 158.911 24.3123 158.911 23.5123Z" fill="#FF8063"/>
<path d="M148.908 47.0395V35.825C148.908 35.0249 149.632 34.374 150.521 34.374H157.526C158.415 34.374 159.139 35.0249 159.139 35.825V47.0395C159.139 47.8395 158.415 48.4905 157.526 48.4905H150.521C149.632 48.4905 148.908 47.8395 148.908 47.0395Z" fill="#3F3D56"/>
<path d="M164.744 73.29C163.897 73.2631 163.215 72.6447 163.189 71.8825L162.835 61.0432C162.82 60.5805 163.043 60.1506 163.446 59.8631C163.849 59.5758 164.365 59.4799 164.862 59.5986L165.217 59.6837C165.921 59.8529 166.414 60.4293 166.414 61.0856V71.84C166.414 72.2371 166.239 72.608 165.921 72.8839C165.618 73.1476 165.222 73.2908 164.803 73.2908C164.783 73.2908 164.764 73.2906 164.744 73.29L164.744 73.29Z" fill="#3F3D56"/>
<path d="M143.263 72.8839C142.945 72.6079 142.77 72.2371 142.77 71.8399V61.0856C142.77 60.4293 143.262 59.8529 143.967 59.6837L144.321 59.5986C144.819 59.4799 145.335 59.5758 145.738 59.8631C146.141 60.1504 146.364 60.5805 146.349 61.0432L145.994 71.8825C145.969 72.6447 145.286 73.2631 144.44 73.29C144.42 73.2906 144.4 73.2908 144.381 73.2908C143.961 73.2908 143.566 73.1474 143.263 72.8839H143.263Z" fill="#3F3D56"/>
<path d="M150.045 71.7945V60.5475C150.045 59.7535 150.736 59.1164 151.618 59.0968L157.986 58.9572C158.868 58.9462 159.611 59.5695 159.637 60.3657L160.003 71.7524C160.016 72.1478 159.854 72.5218 159.548 72.8055C159.242 73.0892 158.831 73.2454 158.392 73.2454H151.657C150.768 73.2454 150.045 72.5945 150.045 71.7945H150.045Z" fill="#3F3D56"/>
<path d="M187.681 79.4798L192.672 87.4641L193.244 96.4434L197.218 96.6705L195.854 86.032L187.67 75.8027C186.964 76.9469 186.968 78.339 187.681 79.4798Z" fill="#CCCCCC"/>
<path d="M193.085 93.8735L176.887 94.0728L176.89 94.2767L193.088 94.0774L193.085 93.8735Z" fill="#3F3D56"/>
<path d="M192.102 92.0678L176.744 92.1758L176.746 92.3797L192.104 92.2718L192.102 92.0678Z" fill="#3F3D56"/>
<path d="M191.305 90.2227L176.615 90.481L176.619 90.6849L191.31 90.4267L191.305 90.2227Z" fill="#3F3D56"/>
<path d="M190.849 88.388L176.741 88.8096L176.749 89.0135L190.857 88.592L190.849 88.388Z" fill="#3F3D56"/>
<path d="M190.167 86.7543L176.612 87.1831L176.62 87.3871L190.175 86.9582L190.167 86.7543Z" fill="#3F3D56"/>
<path d="M189.261 85.3159H176.059V85.5199H189.261V85.3159Z" fill="#3F3D56"/>
<path d="M188.578 83.8803L175.748 84.0156L175.75 84.2196L188.581 84.0843L188.578 83.8803Z" fill="#3F3D56"/>
<path d="M187.893 82.4498L175.461 82.8213L175.469 83.0252L187.901 82.6538L187.893 82.4498Z" fill="#3F3D56"/>
<path d="M187.441 81.025L175.164 81.2192L175.168 81.4232L187.445 81.229L187.441 81.025Z" fill="#3F3D56"/>
<path d="M186.53 79.6079L174.775 79.9385L174.782 80.1424L186.537 79.8119L186.53 79.6079Z" fill="#3F3D56"/>
<path d="M186.077 78.36L174.426 78.4624L174.428 78.6664L186.08 78.564L186.077 78.36Z" fill="#3F3D56"/>
<path d="M173.575 74.1474V60.2733C173.575 59.4732 174.298 58.8223 175.187 58.8223H182.648C183.537 58.8223 184.26 59.4732 184.26 60.2733V74.1474C184.26 74.9474 183.537 75.5983 182.648 75.5983H175.187C174.298 75.5983 173.575 74.9474 173.575 74.1474Z" fill="#FF8063"/>
<path d="M156.197 94.42L142.99 93.663L142.884 93.6568V84.4592C142.884 83.296 143.935 82.3496 145.228 82.3496H158.272C159.565 82.3496 160.616 83.296 160.616 84.4592V94.4202H160.503L156.197 94.42H156.197Z" fill="#CCCCCC"/>
<path d="M174.484 48.9834V38.3826C174.484 37.5826 175.207 36.9316 176.097 36.9316H178.555C179.444 36.9316 180.168 37.5826 180.168 38.3826V48.9834C180.168 49.7834 179.444 50.4343 178.555 50.4343H176.097C175.207 50.4343 174.484 49.7834 174.484 48.9834Z" fill="#3F3D56"/>
<path d="M176.985 95.4432L176.303 86.4414L174.257 77.8488L173.689 75.4961C172.521 74.7814 170.948 75.5764 171.018 76.8458L171.074 77.8488L173.12 86.4414L173.802 95.4432" fill="#CCCCCC"/>
<path d="M99.5884 91.1467L83.4355 90.2201L82.5643 24.8547C82.5432 23.2681 83.2461 21.7145 84.4929 20.5925L101.798 5.01931C104.221 2.83919 108.034 2.68205 110.668 4.65379L129.448 18.7126C130.98 19.8595 131.845 21.5458 131.821 23.3391L131.176 72.4972L139.339 82.6991L139.356 82.7207L140.739 93.5072L99.5884 91.1467V91.1467Z" fill="#E6E6E6"/>
<path d="M102.303 20.2388V17.2078C102.303 16.4078 103.027 15.7568 103.916 15.7568H108.648C109.537 15.7568 110.26 16.4078 110.26 17.2078V20.2388C110.26 21.0389 109.537 21.6898 108.648 21.6898H103.916C103.027 21.6898 102.303 21.0389 102.303 20.2388Z" fill="#FF8063"/>
<path d="M92.3004 43.766V32.5516C92.3004 31.7515 93.0237 31.1006 93.9129 31.1006H100.918C101.807 31.1006 102.531 31.7515 102.531 32.5516V43.766C102.531 44.5661 101.807 45.217 100.918 45.217H93.9129C93.0237 45.217 92.3004 44.5661 92.3004 43.766Z" fill="#3F3D56"/>
<path d="M106.979 56.7506C106.633 56.9973 106.442 57.3669 106.455 57.7643L106.809 68.6036C106.831 69.2583 107.417 69.7893 108.144 69.8125C108.527 69.8263 108.883 69.7006 109.155 69.4637C109.428 69.2267 109.578 68.9083 109.578 68.567V57.8127C109.578 57.2489 109.156 56.7538 108.55 56.6085L108.196 56.5234C108.076 56.4947 107.955 56.4805 107.835 56.4805C107.527 56.4805 107.228 56.5732 106.979 56.7506Z" fill="#3F3D56"/>
<path d="M86.6546 69.6109C86.3371 69.335 86.1622 68.9642 86.1622 68.567V57.8127C86.1622 57.1563 86.6544 56.5799 87.359 56.4107L87.7134 56.3256C88.2098 56.2069 88.7266 56.3028 89.1298 56.5901C89.5332 56.8776 89.7557 57.3078 89.7406 57.7703L89.3862 68.6096C89.3614 69.3718 88.6787 69.9901 87.8317 70.0171C87.8122 70.0177 87.7924 70.0179 87.7729 70.0179C87.3535 70.0179 86.9583 69.8744 86.6546 69.6109Z" fill="#3F3D56"/>
<path d="M93.4371 68.5214V57.2743C93.4371 56.4804 94.128 55.8432 95.0103 55.8236L101.378 55.684C101.391 55.6838 101.404 55.6836 101.418 55.6836C102.285 55.6836 103.003 56.3083 103.029 57.0925L103.395 68.4792C103.408 68.8746 103.247 69.2486 102.94 69.5323C102.634 69.816 102.223 69.9722 101.784 69.9722H95.0496C94.1604 69.9722 93.4371 69.3213 93.4371 68.5214Z" fill="#3F3D56"/>
<path d="M131.073 76.2064L136.064 84.1907L136.636 93.17L140.61 93.3971L139.246 82.7586L131.062 72.5293C130.356 73.6735 130.36 75.0656 131.073 76.2064Z" fill="#CCCCCC"/>
<path d="M136.477 90.6L120.279 90.7993L120.282 91.0033L136.48 90.804L136.477 90.6Z" fill="#3F3D56"/>
<path d="M135.494 88.7944L120.136 88.9023L120.138 89.1063L135.496 88.9983L135.494 88.7944Z" fill="#3F3D56"/>
<path d="M134.697 86.9493L120.007 87.2075L120.011 87.4115L134.702 87.1533L134.697 86.9493Z" fill="#3F3D56"/>
<path d="M134.241 85.1146L120.133 85.5361L120.141 85.7401L134.249 85.3186L134.241 85.1146Z" fill="#3F3D56"/>
<path d="M133.559 83.4808L120.004 83.9097L120.012 84.1136L133.567 83.6848L133.559 83.4808Z" fill="#3F3D56"/>
<path d="M132.653 82.043H119.451V82.2469H132.653V82.043Z" fill="#3F3D56"/>
<path d="M131.97 80.6074L119.14 80.7427L119.142 80.9466L131.973 80.8113L131.97 80.6074Z" fill="#3F3D56"/>
<path d="M131.286 79.1764L118.853 79.5479L118.861 79.7518L131.293 79.3803L131.286 79.1764Z" fill="#3F3D56"/>
<path d="M130.833 77.7516L118.556 77.9458L118.56 78.1498L130.837 77.9556L130.833 77.7516Z" fill="#3F3D56"/>
<path d="M129.922 76.3345L118.167 76.665L118.174 76.869L129.929 76.5384L129.922 76.3345Z" fill="#3F3D56"/>
<path d="M129.47 75.0866L117.818 75.189L117.821 75.3929L129.472 75.2905L129.47 75.0866Z" fill="#3F3D56"/>
<path d="M116.967 70.874V56.9999C116.967 56.1997 117.69 55.5488 118.579 55.5488H126.04C126.929 55.5488 127.652 56.1997 127.652 56.9999V70.874C127.652 71.674 126.929 72.3249 126.04 72.3249H118.579C117.69 72.3249 116.967 71.674 116.967 70.874Z" fill="#FF8063"/>
<path d="M99.5884 91.1465L86.3822 90.3895L86.2759 90.3833V81.1858C86.2759 80.0226 87.3276 79.0762 88.6201 79.0762H101.664C102.957 79.0762 104.008 80.0226 104.008 81.1858V91.1467H103.895L99.5884 91.1465Z" fill="#CCCCCC"/>
<path d="M117.876 45.7099V35.1092C117.876 34.3091 118.6 33.6582 119.489 33.6582H121.948C122.837 33.6582 123.56 34.3091 123.56 35.1092V45.7099C123.56 46.51 122.837 47.1609 121.948 47.1609H119.489C118.6 47.1609 117.876 46.51 117.876 45.7099Z" fill="#3F3D56"/>
<path d="M120.377 92.1697L119.695 83.168L117.649 74.5754L117.081 72.2226C115.913 71.5079 114.34 72.3029 114.41 73.5723L114.466 74.5754L116.512 83.168L117.194 92.1697" fill="#CCCCCC"/>
<path d="M42.9805 87.8732L26.8275 86.9465L25.9563 21.5811C25.9352 19.9946 26.6381 18.441 27.885 17.319L45.1904 1.7458C47.6128 -0.434224 51.4259 -0.59136 54.0594 1.38028L72.8396 15.4391C74.3718 16.586 75.2369 18.2723 75.2134 20.0656L74.5682 69.2237L82.7308 79.4256L82.7479 79.4472L84.131 90.2337L42.9805 87.8732L42.9805 87.8732Z" fill="#E6E6E6"/>
<path d="M45.6955 16.9654V13.9344C45.6955 13.1343 46.4188 12.4834 47.308 12.4834H52.0402C52.9291 12.4834 53.6524 13.1343 53.6524 13.9344V16.9654C53.6524 17.7655 52.9291 18.4164 52.0402 18.4164H47.308C46.4188 18.4164 45.6955 17.7655 45.6955 16.9654Z" fill="#FF8063"/>
<path d="M35.6925 40.4931V29.2786C35.6925 28.4786 36.4158 27.8276 37.305 27.8276H44.3106C45.1995 27.8276 45.9228 28.4786 45.9228 29.2786V40.4931C45.9228 41.2931 45.1995 41.9441 44.3106 41.9441H37.305C36.4158 41.9441 35.6925 41.2931 35.6925 40.4931Z" fill="#3F3D56"/>
<path d="M51.5284 66.7432C50.6817 66.7163 49.9988 66.0979 49.9737 65.3357L49.6196 54.4965C49.6045 54.0337 49.8269 53.6036 50.2301 53.3163C50.6333 53.029 51.1495 52.9329 51.6465 53.0518L52.0009 53.1369C52.7055 53.3061 53.1977 53.8825 53.1977 54.5388V65.2932C53.1977 65.6904 53.0228 66.0612 52.7053 66.3371C52.4016 66.6008 52.0066 66.7441 51.5873 66.7441C51.5677 66.7441 51.548 66.7439 51.5284 66.7433L51.5284 66.7432Z" fill="#3F3D56"/>
<path d="M30.7805 53.2358L31.1348 53.1508C32.1039 52.9183 33.0485 53.5914 33.019 54.4936L32.6647 65.3329C32.6415 66.0435 32.0093 66.6159 31.2198 66.6411H31.2198C30.3718 66.6681 29.668 66.0568 29.668 65.2932V54.539C29.668 53.928 30.1245 53.3933 30.7805 53.2358V53.2358Z" fill="#3F3D56"/>
<path d="M36.8292 65.2477V54.0007C36.8292 53.2067 37.5201 52.5696 38.4024 52.55L44.7697 52.4103C45.6569 52.3976 46.3951 53.0227 46.4208 53.8189L46.7876 65.2056C46.8002 65.6009 46.6386 65.975 46.3322 66.2587C46.0261 66.5424 45.6153 66.6986 45.1758 66.6986H38.4417C37.5525 66.6986 36.8292 66.0477 36.8292 65.2477H36.8292Z" fill="#3F3D56"/>
<path d="M74.465 72.933L79.4557 80.9173L80.0286 89.8965L84.0025 90.1236L82.6385 79.4852L74.4542 69.2559C73.7478 70.4001 73.7519 71.7922 74.465 72.933Z" fill="#CCCCCC"/>
<path d="M79.869 87.3266L63.6713 87.5259L63.6744 87.7298L79.8721 87.5305L79.869 87.3266Z" fill="#3F3D56"/>
<path d="M78.8864 85.5214L63.5284 85.6294L63.5302 85.8334L78.8882 85.7254L78.8864 85.5214Z" fill="#3F3D56"/>
<path d="M78.0893 83.6759L63.3987 83.9341L63.4031 84.138L78.0937 83.8798L78.0893 83.6759Z" fill="#3F3D56"/>
<path d="M77.6332 81.8412L63.5255 82.2627L63.533 82.4667L77.6407 82.0451L77.6332 81.8412Z" fill="#3F3D56"/>
<path d="M76.9511 80.2074L63.3966 80.6362L63.4045 80.8402L76.9591 80.4114L76.9511 80.2074Z" fill="#3F3D56"/>
<path d="M76.0455 78.7695H62.8435V78.9735H76.0455V78.7695Z" fill="#3F3D56"/>
<path d="M75.3621 77.3339L62.5319 77.4692L62.5345 77.6732L75.3648 77.5379L75.3621 77.3339Z" fill="#3F3D56"/>
<path d="M74.6776 75.9029L62.2453 76.2744L62.2529 76.4784L74.6851 76.1069L74.6776 75.9029Z" fill="#3F3D56"/>
<path d="M74.2249 74.4782L61.9483 74.6724L61.9523 74.8763L74.2289 74.6821L74.2249 74.4782Z" fill="#3F3D56"/>
<path d="M73.3138 73.0615L61.5589 73.3921L61.566 73.596L73.3208 73.2655L73.3138 73.0615Z" fill="#3F3D56"/>
<path d="M72.8616 71.8136L61.2104 71.916L61.2126 72.12L72.8639 72.0176L72.8616 71.8136Z" fill="#3F3D56"/>
<path d="M60.359 67.6006V53.7265C60.359 52.9263 61.0823 52.2754 61.9715 52.2754H69.4318C70.3207 52.2754 71.044 52.9263 71.044 53.7265V67.6006C71.044 68.4005 70.3207 69.0514 69.4318 69.0514H61.9715C61.0823 69.0514 60.359 68.4005 60.359 67.6006Z" fill="#FF8063"/>
<path d="M42.9805 87.8731L29.7743 87.1161L29.668 87.1099V77.9123C29.668 76.7491 30.7196 75.8027 32.0122 75.8027H45.0566C46.3491 75.8027 47.4006 76.7491 47.4006 77.9123V87.8733H47.2869L42.9805 87.8731Z" fill="#CCCCCC"/>
<path d="M61.2683 42.4365V31.8357C61.2683 31.0357 61.9917 30.3848 62.8808 30.3848H65.3396C66.2285 30.3848 66.9519 31.0357 66.9519 31.8357V42.4365C66.9519 43.2365 66.2285 43.8874 65.3396 43.8874H62.8808C61.9917 43.8874 61.2683 43.2365 61.2683 42.4365Z" fill="#3F3D56"/>
<path d="M63.7692 88.8963L63.0872 79.8945L61.0411 71.3019L60.4727 68.9492C59.3048 68.2345 57.7321 69.0295 57.8026 70.2989L57.8583 71.3019L59.9044 79.8945L60.5864 88.8963" fill="#CCCCCC"/>
<path d="M22.1664 86.646L22.9398 73.6992C22.9398 73.6992 48.31 68.966 48.31 55.3233C48.31 41.6805 6.85148 40.0099 2.67469 46.2745C2.63292 46.3371 2.59141 46.3998 2.55015 46.4624C-2.60881 54.292 0.303878 64.4568 9.08266 68.9784C12.0845 70.5245 15.6636 71.8476 19.8459 72.5855L19.5513 86.3391" fill="#CCCCCC"/>
<path d="M5.72706 85.5491L5.69775 85.9575L212.551 97.9789L212.58 97.5705L5.72706 85.5491Z" fill="#CCCCCC"/>
</g>
<defs>
<clipPath id="clip0_2301_296">
<rect width="227" height="98" rx="13" fill="white"/>
</clipPath>
</defs>
</svg>
