<svg width="82" height="100" viewBox="0 0 82 100" fill="none" xmlns="http://www.w3.org/2000/svg">
<path d="M50.7716 65.0621L53.5322 46.2052L34.8979 37.9082L32.1372 66.5707L50.7716 65.0621Z" fill="#A0616A"/>
<path d="M69.4999 92.9299C67.9 93.7824 66.2697 94.5519 64.615 95.2346C61.3054 96.6032 57.8893 97.6359 54.3848 98.3254C50.9595 99.0012 47.4428 99.3444 43.9261 99.3444C39.1751 99.3444 34.4516 98.7215 29.8836 97.4892C28.0948 97.0098 26.2907 96.4237 24.5171 95.7407C24.3312 95.6675 24.1423 95.5943 23.9564 95.5208C21.7561 94.6485 19.5925 93.6259 17.5111 92.4703C17.2307 92.3171 16.9504 92.1604 16.67 91.9938C16.3592 91.8208 16.0514 91.6377 15.7406 91.4478C15.3444 91.2113 14.9513 90.9648 14.5581 90.715C13.2417 89.8824 11.9466 88.9831 10.7093 88.0473L10.627 87.9875C10.5539 87.9309 10.4807 87.8776 10.4106 87.821C10.4563 87.5578 10.499 87.3178 10.5386 87.1048C10.691 86.2689 10.7916 85.8093 10.7916 85.8093L19.1353 66.9718L21.4606 61.723L22.5942 61.2134L31.1574 57.3667H52.087L58.6907 60.3508C58.6907 60.3508 58.7243 60.4874 58.7913 60.7505C59.4495 63.3317 63.2893 77.9859 69.247 92.3236C69.3292 92.5233 69.4146 92.7266 69.4999 92.9299Z" fill="#FF8063"/>
<path d="M46.0626 52.2672C56.5575 52.2672 65.0652 42.9691 65.0652 31.4993C65.0652 20.0295 56.5575 10.7314 46.0626 10.7314C35.5678 10.7314 27.0601 20.0295 27.0601 31.4993C27.0601 42.9691 35.5678 52.2672 46.0626 52.2672Z" fill="#A0616A"/>
<path d="M22.6274 61.0347L22.5947 61.2134L16.8012 91.3179L16.7511 91.58L16.6704 91.9947C16.3586 91.8207 16.0511 91.6372 15.7415 91.449C15.3447 91.2107 14.9522 90.9652 14.5575 90.715C13.2427 89.8833 11.9475 88.9826 10.709 88.0484L10.6262 87.9865C10.5542 87.9317 10.4801 87.8768 10.4103 87.822C9.464 87.1 8.54167 86.347 7.64115 85.5701C7.6346 85.5653 7.63025 85.5606 7.6237 85.5534C6.01671 84.1379 4.46859 82.6152 2.98806 80.9971C2.03303 79.9533 1.11506 78.8786 0.236328 77.7753L0.369347 77.1652L0.38243 77.1033L0.548133 76.3264C2.02212 69.5229 7.00881 64.3018 13.2907 62.9864L21.6375 61.2396L22.6274 61.0347H22.6274Z" fill="#FF8063"/>
<path d="M81.8084 84.1274C79.3491 86.4155 76.7131 88.4873 73.9308 90.3058C73.6596 90.4856 73.3822 90.6619 73.105 90.8385C71.9226 91.5846 70.7188 92.2807 69.4999 92.9302C67.9 93.7826 66.2696 94.5522 64.6149 95.2349L64.4869 94.5753L57.9441 60.5742L58.7913 60.7508L67.2814 62.5293C73.5621 63.8449 78.5507 69.067 80.0226 75.8711L81.6469 83.3882L81.8084 84.1274Z" fill="#FF8063"/>
<path d="M67.9458 37.0507C67.4521 39.0623 64.9685 48.0514 58.6085 49.943C57.3591 50.3161 54.3787 50.7457 55.168 49.943C55.3478 49.7599 55.5215 49.5801 55.6952 49.4035C62.5976 42.3096 65.4134 37.9734 64.1274 28.3481C63.3106 22.2199 54.01 16.6546 48.7776 16.1017C46.5712 15.8688 43.7554 16.6845 41.8966 18.7863C38.8278 22.2498 39.3336 32.881 37.6332 39.1257C37.1761 40.7975 36.5636 42.1564 35.6828 42.9789C35.1343 43.4918 34.7839 42.8391 34.5248 41.77C33.9733 39.4985 33.8301 35.3389 33.0469 36.5144C30.7827 39.9216 32.9402 44.4376 33.5924 46.1796C33.7264 46.5361 33.8635 46.8789 34.0007 47.2055V47.2087C34.0799 47.3951 34.1622 47.5818 34.2414 47.7584V47.7616C36.4172 52.6107 39.0319 54.3459 41.3358 57.3667C42.2409 58.549 43.0972 59.9245 43.8621 61.7631C44.3863 63.0221 44.7641 64.2876 45.0232 65.5297C46.3427 71.7578 44.7763 77.4164 44.3527 78.9552C43.4659 82.1591 41.9422 87.6642 37.4717 90.7716C31.8583 94.6752 26.7357 91.2348 24.2856 94.9416C24.2551 94.9848 24.2276 95.0281 24.2002 95.0713C24.1088 95.2213 24.0265 95.3712 23.9564 95.5208C21.7562 94.6485 19.5925 93.626 17.5112 92.4704C17.2308 92.3172 16.9504 92.1604 16.6701 91.9939C16.3592 91.8209 16.0515 91.6377 15.7406 91.4478C15.7284 91.1879 15.7162 90.9284 15.7071 90.6653C15.5273 86.159 15.7985 81.2065 16.8255 76.2673C17.4837 73.1134 18.1359 69.9859 19.1354 66.9719C19.7876 65.0071 20.586 63.0884 21.6373 61.2401C22.4785 59.7547 23.478 58.3126 24.6908 56.927C27.3543 53.8863 29.7222 52.6175 30.097 49.4067C30.6333 44.824 26.2664 43.4453 24.6908 36.5143C23.6151 31.7752 22.4906 24.9444 23.5816 20.3416C24.6117 15.9921 25.5076 12.2186 28.4971 8.52154C29.2163 7.63557 35.1191 1.47414 41.9575 0.461658C45.1085 -0.00116485 47.9182 4.4085 51.7275 5.35756C56.1066 6.44681 58.6146 7.06965 61.0647 9.11771C65.2062 12.5747 66.3733 17.7438 67.4551 22.5464C68.3023 26.3033 69.3994 31.1624 67.9458 37.0507V37.0507Z" fill="#2F2E41"/>
</svg>
